SplineFontDB: 3.2
FontName: GochiHandPOJ-Regular
FullName: Gochi Hand POJ
FamilyName: Gochi Hand POJ
Weight: Regular
Copyright: Copyright (c) 2011, Huerta Tipografica (www.huertatipografica.com.ar),  with Reserved Font Names "Gochi" and "Gochi Hand"
Version: 1.001
ItalicAngle: 0
UnderlinePosition: -205
UnderlineWidth: 102
Ascent: 1638
Descent: 410
InvalidEm: 0
sfntRevision: 0x00010000
LayerCount: 2
Layer: 0 1 "Back" 1
Layer: 1 1 "Fore" 0
XUID: [1021 958 -1399039395 7289401]
StyleMap: 0x0040
FSType: 0
OS2Version: 3
OS2_WeightWidthSlopeOnly: 0
OS2_UseTypoMetrics: 0
CreationTime: 1317401273
ModificationTime: 1594307760
PfmFamily: 81
TTFWeight: 400
TTFWidth: 5
LineGap: 0
VLineGap: 0
Panose: 0 0 0 0 0 0 0 0 0 0
OS2TypoAscent: 1579
OS2TypoAOffset: 0
OS2TypoDescent: -835
OS2TypoDOffset: 0
OS2TypoLinegap: 0
OS2WinAscent: 1579
OS2WinAOffset: 0
OS2WinDescent: 835
OS2WinDOffset: 0
HheadAscent: 1579
HheadAOffset: 0
HheadDescent: -835
HheadDOffset: 0
OS2SubXSize: 1434
OS2SubYSize: 1331
OS2SubXOff: 0
OS2SubYOff: 287
OS2SupXSize: 1434
OS2SupYSize: 1331
OS2SupXOff: 0
OS2SupYOff: 977
OS2StrikeYSize: 61
OS2StrikeYPos: 512
OS2CapHeight: 975
OS2XHeight: 765
OS2Vendor: 'pyrs'
OS2CodePages: 20000111.40000000
OS2UnicodeRanges: 80000067.40000003.00000000.00000000
Lookup: 4 0 1 "'liga' Standard Ligatures in Latin lookup 0" { "'liga' Standard Ligatures in Latin lookup 0 subtable"  } ['liga' ('latn' <'dflt' > ) ]
Lookup: 4 0 1 "'liga' Standard Ligatures in Latin lookup 1" { "'liga' Standard Ligatures in Latin lookup 1-1"  } ['liga' ('DFLT' <'dflt' > 'latn' <'dflt' > ) ]
Lookup: 260 0 0 "'mark' Mark Positioning in Latin lookup 0" { "'mark' Mark Positioning in Latin lookup 0-1"  } ['mark' ('DFLT' <'dflt' > 'latn' <'dflt' > ) ]
MarkAttachClasses: 1
DEI: 91125
TtTable: prep
PUSHW_1
 511
SCANCTRL
PUSHB_1
 4
SCANTYPE
EndTTInstrs
TtTable: fpgm
PUSHB_1
 0
FDEF
MPPEM
PUSHB_1
 9
LT
IF
PUSHB_2
 1
 1
INSTCTRL
EIF
PUSHW_1
 511
SCANCTRL
PUSHB_1
 68
SCVTCI
PUSHB_2
 9
 3
SDS
SDB
ENDF
PUSHB_1
 1
FDEF
DUP
DUP

StartChar: exclam
Encoding: 1 33 4
Width: 520
GlyphClass: 2
Flags: W
LayerCount: 2
Fore
SplineSet
68 1147 m 0,0,1
 64 1161 64 1161 61.5 1172 c 128,-1,2
 59 1183 59 1183 59 1194 c 0,3,4
 59 1222 59 1222 76.5 1241 c 128,-1,5
 94 1260 94 1260 129 1260 c 0,6,7
 284 1260 284 1260 299 1186 c 0,8,9
 317 1092 317 1092 332 997 c 128,-1,10
 347 902 347 902 358.5 804.5 c 128,-1,11
 370 707 370 707 376.5 606.5 c 128,-1,12
 383 506 383 506 383 401 c 0,13,14
 383 381 383 381 381 362.5 c 128,-1,15
 379 344 379 344 373 329.5 c 128,-1,16
 367 315 367 315 356.5 306 c 128,-1,17
 346 297 346 297 328 297 c 2,18,-1
 244 309 l 2,19,20
 218 312 218 312 207.5 324.5 c 128,-1,21
 197 337 197 337 195 360 c 0,22,23
 187 543 187 543 155 743 c 128,-1,24
 123 943 123 943 68 1147 c 0,0,1
274 -84 m 0,25,26
 245 -84 245 -84 219.5 -75.5 c 128,-1,27
 194 -67 194 -67 175.5 -51.5 c 128,-1,28
 157 -36 157 -36 146 -15 c 128,-1,29
 135 6 135 6 135 31 c 0,30,31
 135 73 135 73 168.5 99 c 128,-1,32
 202 125 202 125 258 125 c 0,33,34
 284 125 284 125 308 115.5 c 128,-1,35
 332 106 332 106 350.5 90 c 128,-1,36
 369 74 369 74 380 52.5 c 128,-1,37
 391 31 391 31 391 8 c 0,38,39
 391 -35 391 -35 359.5 -59.5 c 128,-1,40
 328 -84 328 -84 274 -84 c 0,25,26
EndSplineSet
Validated: 1
EndChar

StartChar: numbersign
Encoding: 3 35 6
Width: 930
GlyphClass: 2
Flags: W
LayerCount: 2
Fore
SplineSet
635 985 m 2,0,1
 641 1029 641 1029 688 1032 c 2,2,-1
 758 1036 l 2,3,4
 807 1036 807 1036 807 991 c 2,5,-1
 807 981 l 1,6,-1
 772 778 l 1,7,-1
 772 770 l 2,8,9
 772 745 772 745 801 745 c 2,10,-1
 864 752 l 1,11,12
 909 752 909 752 909 700 c 2,13,-1
 905 647 l 2,14,15
 902 599 902 599 856 596 c 2,16,-1
 764 590 l 2,17,18
 736 587 736 587 733 561 c 2,19,-1
 709 440 l 1,20,-1
 709 432 l 2,21,22
 709 421 709 421 715.5 414.5 c 128,-1,23
 722 408 722 408 737 408 c 2,24,-1
 795 410 l 2,25,26
 816 410 816 410 828 397 c 128,-1,27
 840 384 840 384 840 358 c 2,28,-1
 836 305 l 2,29,30
 833 257 833 257 786 254 c 0,31,32
 763 252 763 252 741 252 c 128,-1,33
 719 252 719 252 696 252 c 0,34,35
 669 249 669 249 664 223 c 2,36,-1
 627 57 l 2,37,38
 620 36 620 36 607 24 c 128,-1,39
 594 12 594 12 571 12 c 0,40,41
 554 10 554 10 535.5 9 c 128,-1,42
 517 8 517 8 496 8 c 0,43,44
 476 8 476 8 464.5 18.5 c 128,-1,45
 453 29 453 29 453 47 c 0,46,47
 453 50 453 50 453 54 c 128,-1,48
 453 58 453 58 455 63 c 2,49,-1
 487 205 l 2,50,51
 489 209 489 209 489 215 c 0,52,53
 489 238 489 238 461 238 c 2,54,-1
 401 236 l 2,55,56
 372 232 372 232 369 207 c 2,57,-1
 334 25 l 2,58,59
 325 -20 325 -20 279 -20 c 0,60,61
 262 -22 262 -22 243 -23.5 c 128,-1,62
 224 -25 224 -25 203 -25 c 0,63,64
 183 -25 183 -25 171.5 -14.5 c 128,-1,65
 160 -4 160 -4 160 14 c 0,66,67
 160 17 160 17 160 21.5 c 128,-1,68
 160 26 160 26 162 31 c 0,69,70
 171 71 171 71 179 111 c 128,-1,71
 187 151 187 151 195 193 c 1,72,-1
 195 201 l 2,73,74
 195 212 195 212 188 218.5 c 128,-1,75
 181 225 181 225 166 225 c 2,76,-1
 117 225 l 2,77,78
 94 225 94 225 82 236.5 c 128,-1,79
 70 248 70 248 70 266 c 0,80,81
 70 271 70 271 70 274.5 c 128,-1,82
 70 278 70 278 72 283 c 2,83,-1
 86 336 l 2,84,85
 95 381 95 381 141 381 c 2,86,-1
 199 381 l 2,87,88
 228 381 228 381 231 410 c 2,89,-1
 250 535 l 1,90,91
 250 563 250 563 221 563 c 2,92,-1
 162 563 l 2,93,94
 139 563 139 563 127 574.5 c 128,-1,95
 115 586 115 586 115 604 c 0,96,97
 115 609 115 609 115 612.5 c 128,-1,98
 115 616 115 616 117 621 c 2,99,-1
 131 674 l 2,100,101
 140 719 140 719 186 719 c 2,102,-1
 248 719 l 2,103,104
 262 719 262 719 270.5 726.5 c 128,-1,105
 279 734 279 734 281 748 c 2,106,-1
 307 958 l 2,107,108
 313 1005 313 1005 360 1008 c 2,109,-1
 436 1012 l 2,110,111
 458 1012 458 1012 469.5 1000.5 c 128,-1,112
 481 989 481 989 481 969 c 2,113,-1
 481 958 l 1,114,-1
 455 752 l 2,115,116
 455 727 455 727 483 727 c 2,117,-1
 565 731 l 2,118,119
 593 731 593 731 596 760 c 2,120,-1
 635 985 l 2,0,1
406 424 m 2,121,122
 406 421 406 421 404.5 418.5 c 128,-1,123
 403 416 403 416 403 414 c 0,124,125
 403 393 403 393 426 393 c 2,126,-1
 500 393 l 2,127,128
 527 396 527 396 532 422 c 2,129,-1
 557 541 l 2,130,131
 557 544 557 544 558 546.5 c 128,-1,132
 559 549 559 549 559 551 c 0,133,134
 559 571 559 571 537 571 c 2,135,-1
 457 571 l 2,136,137
 427 568 427 568 424 541 c 2,138,-1
 406 424 l 2,121,122
EndSplineSet
Validated: 1
EndChar

StartChar: dollar
Encoding: 4 36 7
Width: 920
GlyphClass: 2
Flags: W
LayerCount: 2
Fore
SplineSet
461 1171 m 2,0,1
 462 1186 462 1186 467 1199 c 128,-1,2
 472 1212 472 1212 484.5 1222.5 c 128,-1,3
 497 1233 497 1233 518 1239 c 128,-1,4
 539 1245 539 1245 571 1245 c 0,5,6
 597 1245 597 1245 613 1228.5 c 128,-1,7
 629 1212 629 1212 629 1180 c 2,8,-1
 621 1036 l 1,9,10
 686 1028 686 1028 724 1013 c 128,-1,11
 762 998 762 998 762 975 c 0,12,13
 762 966 762 966 759 953.5 c 128,-1,14
 756 941 756 941 743 913 c 0,15,16
 729 887 729 887 713.5 874.5 c 128,-1,17
 698 862 698 862 672 862 c 2,18,-1
 612 862 l 1,19,-1
 600 635 l 1,20,21
 654 600 654 600 711.5 558.5 c 128,-1,22
 769 517 769 517 815.5 469 c 128,-1,23
 862 421 862 421 892 367.5 c 128,-1,24
 922 314 922 314 922 256 c 0,25,26
 922 191 922 191 892 141.5 c 128,-1,27
 862 92 862 92 815.5 59 c 128,-1,28
 769 26 769 26 712.5 9 c 128,-1,29
 656 -8 656 -8 602 -8 c 0,30,31
 593 -8 593 -8 584 -8 c 128,-1,32
 575 -8 575 -8 565 -6 c 1,33,-1
 557 -182 l 2,34,35
 556 -197 556 -197 551 -210 c 128,-1,36
 546 -223 546 -223 534 -233.5 c 128,-1,37
 522 -244 522 -244 500.5 -250 c 128,-1,38
 479 -256 479 -256 446 -256 c 0,39,40
 420 -256 420 -256 404.5 -239 c 128,-1,41
 389 -222 389 -222 389 -190 c 2,42,-1
 401 33 l 1,43,44
 346 56 346 56 297 90 c 128,-1,45
 248 124 248 124 211.5 167.5 c 128,-1,46
 175 211 175 211 154 262 c 128,-1,47
 133 313 133 313 133 369 c 0,48,49
 133 391 133 391 136 413.5 c 128,-1,50
 139 436 139 436 147.5 454 c 128,-1,51
 156 472 156 472 170 483 c 128,-1,52
 184 494 184 494 207 494 c 0,53,54
 215 494 215 494 221.5 492.5 c 128,-1,55
 228 491 228 491 236 489 c 2,56,-1
 254 483 l 2,57,58
 265 481 265 481 277 474.5 c 128,-1,59
 289 468 289 468 299 459 c 128,-1,60
 309 450 309 450 315.5 438 c 128,-1,61
 322 426 322 426 322 412 c 0,62,63
 322 359 322 359 346 314.5 c 128,-1,64
 370 270 370 270 412 236 c 1,65,-1
 426 524 l 1,66,67
 365 563 365 563 310 598 c 128,-1,68
 255 633 255 633 213 667.5 c 128,-1,69
 171 702 171 702 146 737 c 128,-1,70
 121 772 121 772 121 813 c 0,71,72
 121 861 121 861 151.5 899.5 c 128,-1,73
 182 938 182 938 230 966.5 c 128,-1,74
 278 995 278 995 337 1013 c 128,-1,75
 396 1031 396 1031 453 1038 c 1,76,-1
 461 1171 l 2,0,1
575 162 m 1,77,78
 589 160 589 160 603 159 c 128,-1,79
 617 158 617 158 631 158 c 0,80,81
 649 158 649 158 667.5 161.5 c 128,-1,82
 686 165 686 165 701.5 172.5 c 128,-1,83
 717 180 717 180 727 193 c 128,-1,84
 737 206 737 206 737 225 c 0,85,86
 737 245 737 245 724.5 270.5 c 128,-1,87
 712 296 712 296 691.5 322.5 c 128,-1,88
 671 349 671 349 644 374 c 128,-1,89
 617 399 617 399 588 418 c 1,90,-1
 575 162 l 1,77,78
342 823 m 0,91,92
 342 810 342 810 351 797.5 c 128,-1,93
 360 785 360 785 374 773.5 c 128,-1,94
 388 762 388 762 405 752 c 128,-1,95
 422 742 422 742 438 733 c 1,96,-1
 444 879 l 1,97,98
 425 877 425 877 406.5 873.5 c 128,-1,99
 388 870 388 870 374 863.5 c 128,-1,100
 360 857 360 857 351 847.5 c 128,-1,101
 342 838 342 838 342 823 c 0,91,92
EndSplineSet
Validated: 1
EndChar

StartChar: percent
Encoding: 5 37 8
Width: 1319
GlyphClass: 2
Flags: W
LayerCount: 2
Fore
SplineSet
705 1096 m 0,0,1
 714 1124 714 1124 731 1137.5 c 128,-1,2
 748 1151 748 1151 770 1151 c 0,3,4
 779 1151 779 1151 789.5 1149 c 128,-1,5
 800 1147 800 1147 811 1141 c 2,6,-1
 848 1122 l 2,7,8
 874 1110 874 1110 886.5 1092 c 128,-1,9
 899 1074 899 1074 899 1051 c 0,10,11
 899 1034 899 1034 893 1016 c 0,12,13
 855 903 855 903 816 793 c 128,-1,14
 777 683 777 683 735 571 c 0,15,16
 729 556 729 556 729 545 c 0,17,18
 729 528 729 528 743 528 c 256,19,20
 757 528 757 528 776 543 c 0,21,22
 829 578 829 578 889.5 598 c 128,-1,23
 950 618 950 618 1012 618 c 0,24,25
 1081 618 1081 618 1132.5 591.5 c 128,-1,26
 1184 565 1184 565 1218 522 c 128,-1,27
 1252 479 1252 479 1269 424 c 128,-1,28
 1286 369 1286 369 1286 311 c 0,29,30
 1286 235 1286 235 1259 172 c 128,-1,31
 1232 109 1232 109 1185.5 63.5 c 128,-1,32
 1139 18 1139 18 1078 -7.5 c 128,-1,33
 1017 -33 1017 -33 950 -33 c 0,34,35
 891 -33 891 -33 839 -10 c 128,-1,36
 787 13 787 13 748 54.5 c 128,-1,37
 709 96 709 96 686.5 152.5 c 128,-1,38
 664 209 664 209 664 276 c 0,39,40
 664 296 664 296 666.5 317 c 128,-1,41
 669 338 669 338 672 358 c 2,42,-1
 680 408 l 1,43,-1
 674 410 l 1,44,45
 611 236 611 236 548 65 c 128,-1,46
 485 -106 485 -106 426 -281 c 0,47,48
 408 -336 408 -336 360 -336 c 0,49,50
 351 -336 351 -336 340.5 -334 c 128,-1,51
 330 -332 330 -332 317 -326 c 2,52,-1
 281 -307 l 2,53,54
 231 -283 231 -283 231 -236 c 0,55,56
 231 -218 231 -218 238 -201 c 0,57,58
 295 -32 295 -32 355 133 c 128,-1,59
 415 298 415 298 477 465 c 0,60,61
 480 474 480 474 482.5 481.5 c 128,-1,62
 485 489 485 489 485 494 c 0,63,64
 485 504 485 504 475 504 c 0,65,66
 464 504 464 504 442 492 c 0,67,68
 408 472 408 472 369.5 461.5 c 128,-1,69
 331 451 331 451 291 451 c 0,70,71
 239 451 239 451 196 470.5 c 128,-1,72
 153 490 153 490 122.5 524 c 128,-1,73
 92 558 92 558 75.5 604.5 c 128,-1,74
 59 651 59 651 59 705 c 0,75,76
 59 731 59 731 63 754.5 c 128,-1,77
 67 778 67 778 72.5 797.5 c 128,-1,78
 78 817 78 817 83.5 831 c 128,-1,79
 89 845 89 845 92 852 c 0,80,81
 98 866 98 866 100 874.5 c 128,-1,82
 102 883 102 883 102 889 c 0,83,84
 102 894 102 894 100 896 c 128,-1,85
 98 898 98 898 98 903 c 0,86,87
 98 909 98 909 106 919.5 c 128,-1,88
 114 930 114 930 131 942 c 0,89,90
 173 971 173 971 219.5 986 c 128,-1,91
 266 1001 266 1001 311 1001 c 0,92,93
 362 1001 362 1001 408.5 983.5 c 128,-1,94
 455 966 455 966 490.5 932 c 128,-1,95
 526 898 526 898 547.5 848 c 128,-1,96
 569 798 569 798 569 733 c 0,97,98
 569 731 569 731 575.5 746 c 128,-1,99
 582 761 582 761 591.5 783.5 c 128,-1,100
 601 806 601 806 611 831 c 128,-1,101
 621 856 621 856 627 874 c 0,102,103
 647 930 647 930 666.5 985 c 128,-1,104
 686 1040 686 1040 705 1096 c 0,0,1
983 133 m 0,105,106
 1014 133 1014 133 1037.5 147.5 c 128,-1,107
 1061 162 1061 162 1076 185 c 128,-1,108
 1091 208 1091 208 1098.5 237 c 128,-1,109
 1106 266 1106 266 1106 295 c 0,110,111
 1106 330 1106 330 1094.5 358.5 c 128,-1,112
 1083 387 1083 387 1063.5 407 c 128,-1,113
 1044 427 1044 427 1018 438 c 128,-1,114
 992 449 992 449 963 449 c 0,115,116
 949 449 949 449 932.5 446 c 128,-1,117
 916 443 916 443 900.5 436.5 c 128,-1,118
 885 430 885 430 872.5 420 c 128,-1,119
 860 410 860 410 856 397 c 1,120,121
 860 389 860 389 860 385 c 0,122,123
 860 379 860 379 858 370 c 128,-1,124
 856 361 856 361 854 348 c 0,125,126
 852 339 852 339 851 329.5 c 128,-1,127
 850 320 850 320 850 307 c 0,128,129
 850 278 850 278 858.5 247 c 128,-1,130
 867 216 867 216 884 190.5 c 128,-1,131
 901 165 901 165 926 149 c 128,-1,132
 951 133 951 133 983 133 c 0,105,106
246 739 m 0,133,134
 246 721 246 721 250 699.5 c 128,-1,135
 254 678 254 678 263 659 c 128,-1,136
 272 640 272 640 288 627 c 128,-1,137
 304 614 304 614 328 614 c 0,138,139
 356 614 356 614 371.5 641.5 c 128,-1,140
 387 669 387 669 387 705 c 0,141,142
 387 727 387 727 380.5 749 c 128,-1,143
 374 771 374 771 361 788 c 128,-1,144
 348 805 348 805 328 816 c 128,-1,145
 308 827 308 827 281 827 c 0,146,147
 270 827 270 827 263 817 c 128,-1,148
 256 807 256 807 252.5 793 c 128,-1,149
 249 779 249 779 247.5 764 c 128,-1,150
 246 749 246 749 246 739 c 0,133,134
EndSplineSet
Validated: 1
EndChar

StartChar: ampersand
Encoding: 6 38 9
Width: 944
GlyphClass: 2
Flags: W
LayerCount: 2
Fore
SplineSet
895 109 m 2,0,1
 926 80 926 80 926 51 c 0,2,3
 926 21 926 21 891 -8 c 0,4,5
 859 -33 859 -33 843 -40 c 128,-1,6
 827 -47 827 -47 813 -47 c 0,7,8
 798 -47 798 -47 782.5 -40.5 c 128,-1,9
 767 -34 767 -34 752 -20 c 2,10,-1
 692 31 l 2,11,12
 677 43 677 43 659 43 c 0,13,14
 647 43 647 43 635 37 c 0,15,16
 590 14 590 14 540 1 c 128,-1,17
 490 -12 490 -12 434 -12 c 0,18,19
 379 -12 379 -12 323.5 6.5 c 128,-1,20
 268 25 268 25 223.5 59.5 c 128,-1,21
 179 94 179 94 151 143 c 128,-1,22
 123 192 123 192 123 254 c 0,23,24
 123 319 123 319 148.5 369 c 128,-1,25
 174 419 174 419 217 459 c 0,26,27
 225 467 225 467 229 473.5 c 128,-1,28
 233 480 233 480 233 489 c 0,29,30
 233 496 233 496 230.5 502 c 128,-1,31
 228 508 228 508 225 516 c 0,32,33
 188 575 188 575 167.5 631.5 c 128,-1,34
 147 688 147 688 147 745 c 0,35,36
 147 815 147 815 172.5 872 c 128,-1,37
 198 929 198 929 242.5 969 c 128,-1,38
 287 1009 287 1009 347 1031 c 128,-1,39
 407 1053 407 1053 475 1053 c 0,40,41
 535 1053 535 1053 593 1036 c 128,-1,42
 651 1019 651 1019 696 986 c 128,-1,43
 741 953 741 953 769 903.5 c 128,-1,44
 797 854 797 854 797 788 c 0,45,46
 797 724 797 724 775 675 c 128,-1,47
 753 626 753 626 715.5 587.5 c 128,-1,48
 678 549 678 549 629 519 c 128,-1,49
 580 489 580 489 526 465 c 0,50,51
 522 461 522 461 522 459 c 0,52,53
 522 453 522 453 530 444.5 c 128,-1,54
 538 436 538 436 549 424 c 2,55,-1
 623 348 l 2,56,57
 640 330 640 330 648 326 c 128,-1,58
 656 322 656 322 659 322 c 0,59,60
 665 322 665 322 668.5 328 c 128,-1,61
 672 334 672 334 673.5 342.5 c 128,-1,62
 675 351 675 351 675.5 360 c 128,-1,63
 676 369 676 369 676 375 c 0,64,65
 676 386 676 386 674 397 c 128,-1,66
 672 408 672 408 672 424 c 0,67,68
 672 441 672 441 690 451.5 c 128,-1,69
 708 462 708 462 743 471 c 0,70,71
 766 477 766 477 782.5 479 c 128,-1,72
 799 481 799 481 807 481 c 0,73,74
 852 481 852 481 858 453 c 0,75,76
 861 436 861 436 863.5 422 c 128,-1,77
 866 408 866 408 866 391 c 0,78,79
 866 353 866 353 855 310.5 c 128,-1,80
 844 268 844 268 819 221 c 0,81,82
 813 209 813 209 813 197 c 0,83,84
 813 180 813 180 829 164 c 2,85,-1
 895 109 l 2,0,1
342 764 m 0,86,87
 342 696 342 696 393 616 c 0,88,89
 406 594 406 594 426 594 c 0,90,91
 435 594 435 594 449 600 c 0,92,93
 476 613 476 613 504 630 c 128,-1,94
 532 647 532 647 554 667 c 128,-1,95
 576 687 576 687 590 709.5 c 128,-1,96
 604 732 604 732 604 758 c 0,97,98
 604 786 604 786 593.5 809 c 128,-1,99
 583 832 583 832 564.5 848 c 128,-1,100
 546 864 546 864 522 872.5 c 128,-1,101
 498 881 498 881 471 881 c 0,102,103
 449 881 449 881 426 876 c 128,-1,104
 403 871 403 871 384.5 858.5 c 128,-1,105
 366 846 366 846 354 823 c 128,-1,106
 342 800 342 800 342 764 c 0,86,87
459 158 m 0,107,108
 490 158 490 158 498 165.5 c 128,-1,109
 506 173 506 173 506 184 c 0,110,111
 506 201 506 201 492 215 c 0,112,113
 460 244 460 244 430.5 272 c 128,-1,114
 401 300 401 300 375 328 c 0,115,116
 360 346 360 346 344 346 c 0,117,118
 330 346 330 346 319 330 c 0,119,120
 316 320 316 320 313.5 310 c 128,-1,121
 311 300 311 300 311 289 c 0,122,123
 311 224 311 224 353.5 191 c 128,-1,124
 396 158 396 158 459 158 c 0,107,108
EndSplineSet
Validated: 1
EndChar

StartChar: parenleft
Encoding: 8 40 11
Width: 580
GlyphClass: 2
Flags: W
LayerCount: 2
Fore
SplineSet
229 1122 m 0,0,1
 233 1140 233 1140 241 1153.5 c 128,-1,2
 249 1167 249 1167 263.5 1176.5 c 128,-1,3
 278 1186 278 1186 300 1191 c 128,-1,4
 322 1196 322 1196 354 1196 c 0,5,6
 391 1196 391 1196 411.5 1180.5 c 128,-1,7
 432 1165 432 1165 432 1137 c 0,8,9
 432 1130 432 1130 430 1115.5 c 128,-1,10
 428 1101 428 1101 420 1063 c 0,11,12
 410 1014 410 1014 400.5 953.5 c 128,-1,13
 391 893 391 893 383.5 826 c 128,-1,14
 376 759 376 759 371.5 687.5 c 128,-1,15
 367 616 367 616 367 545 c 256,16,17
 367 474 367 474 372 401.5 c 128,-1,18
 377 329 377 329 389.5 257 c 128,-1,19
 402 185 402 185 422.5 115.5 c 128,-1,20
 443 46 443 46 475 -18 c 0,21,22
 485 -39 485 -39 498 -57 c 128,-1,23
 511 -75 511 -75 522 -91 c 128,-1,24
 533 -107 533 -107 541 -122 c 128,-1,25
 549 -137 549 -137 549 -152 c 0,26,27
 549 -169 549 -169 536.5 -184.5 c 128,-1,28
 524 -200 524 -200 492 -223 c 0,29,30
 463 -243 463 -243 446.5 -250.5 c 128,-1,31
 430 -258 430 -258 418 -258 c 0,32,33
 401 -258 401 -258 378.5 -237.5 c 128,-1,34
 356 -217 356 -217 330 -182 c 0,35,36
 287 -121 287 -121 255.5 -37.5 c 128,-1,37
 224 46 224 46 204 141 c 128,-1,38
 184 236 184 236 174 337.5 c 128,-1,39
 164 439 164 439 164 535 c 0,40,41
 164 681 164 681 182 829 c 128,-1,42
 200 977 200 977 229 1122 c 0,0,1
EndSplineSet
Validated: 1
EndChar

StartChar: parenright
Encoding: 9 41 12
Width: 580
GlyphClass: 2
Flags: W
LayerCount: 2
Fore
SplineSet
350 -184 m 0,0,1
 346 -202 346 -202 338 -215.5 c 128,-1,2
 330 -229 330 -229 316 -238.5 c 128,-1,3
 302 -248 302 -248 279.5 -253 c 128,-1,4
 257 -258 257 -258 225 -258 c 0,5,6
 188 -258 188 -258 167.5 -242.5 c 128,-1,7
 147 -227 147 -227 147 -199 c 0,8,9
 147 -192 147 -192 149.5 -177.5 c 128,-1,10
 152 -163 152 -163 160 -125 c 0,11,12
 170 -76 170 -76 179.5 -15.5 c 128,-1,13
 189 45 189 45 196.5 112 c 128,-1,14
 204 179 204 179 208.5 250.5 c 128,-1,15
 213 322 213 322 213 393 c 0,16,17
 213 536 213 536 190 681 c 128,-1,18
 167 826 167 826 104 956 c 0,19,20
 94 977 94 977 81.5 995 c 128,-1,21
 69 1013 69 1013 57.5 1029 c 128,-1,22
 46 1045 46 1045 38.5 1060 c 128,-1,23
 31 1075 31 1075 31 1090 c 0,24,25
 31 1107 31 1107 43.5 1122.5 c 128,-1,26
 56 1138 56 1138 88 1161 c 0,27,28
 117 1181 117 1181 133 1188.5 c 128,-1,29
 149 1196 149 1196 162 1196 c 0,30,31
 179 1196 179 1196 201.5 1175.5 c 128,-1,32
 224 1155 224 1155 250 1120 c 0,33,34
 293 1059 293 1059 324.5 975.5 c 128,-1,35
 356 892 356 892 376 796.5 c 128,-1,36
 396 701 396 701 406 600 c 128,-1,37
 416 499 416 499 416 403 c 0,38,39
 416 257 416 257 397.5 109 c 128,-1,40
 379 -39 379 -39 350 -184 c 0,0,1
EndSplineSet
Validated: 1
EndChar

StartChar: asterisk
Encoding: 10 42 13
Width: 707
GlyphClass: 2
Flags: W
LayerCount: 2
Fore
SplineSet
188 770 m 0,0,1
 180 770 180 770 166.5 769.5 c 128,-1,2
 153 769 153 769 138.5 768 c 128,-1,3
 124 767 124 767 111 766.5 c 128,-1,4
 98 766 98 766 92 766 c 0,5,6
 64 766 64 766 48.5 773.5 c 128,-1,7
 33 781 33 781 33 803 c 0,8,9
 33 810 33 810 36 827 c 128,-1,10
 39 844 39 844 45 861.5 c 128,-1,11
 51 879 51 879 61 892 c 128,-1,12
 71 905 71 905 86 905 c 0,13,14
 104 905 104 905 126.5 903 c 128,-1,15
 149 901 149 901 170.5 899 c 128,-1,16
 192 897 192 897 210 895 c 128,-1,17
 228 893 228 893 238 893 c 0,18,19
 255 893 255 893 262.5 896.5 c 128,-1,20
 270 900 270 900 270 911 c 0,21,22
 270 919 270 919 266.5 934 c 128,-1,23
 263 949 263 949 254 975 c 0,24,25
 243 1004 243 1004 239.5 1021.5 c 128,-1,26
 236 1039 236 1039 236 1055 c 0,27,28
 236 1074 236 1074 252 1085 c 0,29,30
 289 1107 289 1107 312.5 1113.5 c 128,-1,31
 336 1120 336 1120 350 1120 c 0,32,33
 363 1120 363 1120 370.5 1108 c 128,-1,34
 378 1096 378 1096 382.5 1078 c 128,-1,35
 387 1060 387 1060 389.5 1039 c 128,-1,36
 392 1018 392 1018 395.5 1000 c 128,-1,37
 399 982 399 982 404.5 970 c 128,-1,38
 410 958 410 958 420 958 c 0,39,40
 426 958 426 958 439 968 c 128,-1,41
 452 978 452 978 483 1010 c 0,42,43
 505 1031 505 1031 520 1044 c 128,-1,44
 535 1057 535 1057 549 1057 c 0,45,46
 567 1057 567 1057 580.5 1048.5 c 128,-1,47
 594 1040 594 1040 603.5 1027.5 c 128,-1,48
 613 1015 613 1015 618 1001.5 c 128,-1,49
 623 988 623 988 623 979 c 0,50,51
 623 967 623 967 605.5 951 c 128,-1,52
 588 935 588 935 567.5 919.5 c 128,-1,53
 547 904 547 904 529.5 889.5 c 128,-1,54
 512 875 512 875 512 866 c 256,55,56
 512 857 512 857 528.5 852 c 128,-1,57
 545 847 545 847 584 842 c 0,58,59
 627 836 627 836 650.5 828.5 c 128,-1,60
 674 821 674 821 674 801 c 0,61,62
 674 784 674 784 669 771.5 c 128,-1,63
 664 759 664 759 659 750 c 0,64,65
 641 718 641 718 625 707 c 128,-1,66
 609 696 609 696 598 696 c 0,67,68
 584 696 584 696 566 700.5 c 128,-1,69
 548 705 548 705 530 710.5 c 128,-1,70
 512 716 512 716 496 720.5 c 128,-1,71
 480 725 480 725 471 725 c 0,72,73
 460 725 460 725 456.5 719.5 c 128,-1,74
 453 714 453 714 453 700 c 0,75,76
 453 691 453 691 457 669 c 128,-1,77
 461 647 461 647 466 622.5 c 128,-1,78
 471 598 471 598 475 575 c 128,-1,79
 479 552 479 552 479 541 c 0,80,81
 479 526 479 526 466 516 c 128,-1,82
 453 506 453 506 435 499.5 c 128,-1,83
 417 493 417 493 397.5 490 c 128,-1,84
 378 487 378 487 365 487 c 0,85,86
 340 487 340 487 333 513.5 c 128,-1,87
 326 540 326 540 326 575 c 0,88,89
 326 606 326 606 322.5 631.5 c 128,-1,90
 319 657 319 657 305 657 c 0,91,92
 295 657 295 657 283 643 c 128,-1,93
 271 629 271 629 257.5 612.5 c 128,-1,94
 244 596 244 596 230 582.5 c 128,-1,95
 216 569 216 569 203 569 c 0,96,97
 184 569 184 569 173 572.5 c 128,-1,98
 162 576 162 576 156 580 c 0,99,100
 131 591 131 591 123 603 c 128,-1,101
 115 615 115 615 115 625 c 0,102,103
 115 637 115 637 130 655 c 128,-1,104
 145 673 145 673 174 702 c 0,105,106
 197 725 197 725 207 738.5 c 128,-1,107
 217 752 217 752 217 760 c 0,108,109
 217 765 217 765 211 767.5 c 128,-1,110
 205 770 205 770 188 770 c 0,0,1
EndSplineSet
Validated: 1
EndChar

StartChar: plus
Encoding: 11 43 14
Width: 995
GlyphClass: 2
Flags: W
LayerCount: 2
Fore
SplineSet
86 401 m 0,0,1
 54 401 54 401 37 416 c 128,-1,2
 20 431 20 431 20 457 c 0,3,4
 20 463 20 463 21.5 469 c 128,-1,5
 23 475 23 475 25 481 c 2,6,-1
 35 524 l 2,7,8
 50 586 50 586 113 586 c 0,9,10
 182 586 182 586 226.5 588 c 128,-1,11
 271 590 271 590 299 590 c 0,12,13
 336 590 336 590 350.5 603 c 128,-1,14
 365 616 365 616 365 639 c 0,15,16
 365 695 365 695 359.5 750 c 128,-1,17
 354 805 354 805 354 862 c 0,18,19
 354 896 354 896 368 916 c 128,-1,20
 382 936 382 936 416 942 c 2,21,-1
 479 954 l 2,22,23
 484 954 484 954 488.5 955 c 128,-1,24
 493 956 493 956 498 956 c 0,25,26
 556 956 556 956 559 893 c 2,27,-1
 569 653 l 2,28,29
 571 630 571 630 583 617 c 128,-1,30
 595 604 595 604 618 604 c 0,31,32
 690 604 690 604 760.5 612.5 c 128,-1,33
 831 621 831 621 903 621 c 0,34,35
 973 621 973 621 973 559 c 2,36,-1
 971 510 l 2,37,38
 968 441 968 441 899 438 c 2,39,-1
 625 422 l 2,40,41
 599 420 599 420 587 406.5 c 128,-1,42
 575 393 575 393 575 362 c 0,43,44
 575 347 575 347 574.5 327.5 c 128,-1,45
 574 308 574 308 573 287.5 c 128,-1,46
 572 267 572 267 571.5 246.5 c 128,-1,47
 571 226 571 226 571 209 c 0,48,49
 571 169 571 169 554 142 c 128,-1,50
 537 115 537 115 506 109 c 2,51,-1
 444 96 l 2,52,53
 439 94 439 94 435 94 c 128,-1,54
 431 94 431 94 426 94 c 0,55,56
 397 94 397 94 382 112 c 128,-1,57
 367 130 367 130 367 162 c 0,58,59
 367 211 367 211 369 259.5 c 128,-1,60
 371 308 371 308 371 356 c 0,61,62
 371 408 371 408 322 408 c 0,63,64
 265 408 265 408 205.5 405.5 c 128,-1,65
 146 403 146 403 86 401 c 0,0,1
EndSplineSet
Validated: 1
EndChar

StartChar: comma
Encoding: 12 44 15
Width: 643
GlyphClass: 2
Flags: W
LayerCount: 2
Fore
SplineSet
496 121 m 0,0,1
 496 110 496 110 481 69 c 128,-1,2
 466 28 466 28 441.5 -27 c 128,-1,3
 417 -82 417 -82 385 -143 c 128,-1,4
 353 -204 353 -204 320 -255 c 128,-1,5
 287 -306 287 -306 255.5 -339.5 c 128,-1,6
 224 -373 224 -373 199 -373 c 0,7,8
 187 -373 187 -373 169 -366 c 128,-1,9
 151 -359 151 -359 134.5 -348.5 c 128,-1,10
 118 -338 118 -338 106 -325.5 c 128,-1,11
 94 -313 94 -313 94 -301 c 0,12,13
 94 -291 94 -291 114.5 -251.5 c 128,-1,14
 135 -212 135 -212 165 -149.5 c 128,-1,15
 195 -87 195 -87 229 -6 c 128,-1,16
 263 75 263 75 289 168 c 0,17,18
 295 188 295 188 306 199.5 c 128,-1,19
 317 211 317 211 336 211 c 0,20,21
 354 211 354 211 381 203.5 c 128,-1,22
 408 196 408 196 433.5 183.5 c 128,-1,23
 459 171 459 171 477.5 155 c 128,-1,24
 496 139 496 139 496 121 c 0,0,1
EndSplineSet
Validated: 1
EndChar

StartChar: hyphen
Encoding: 13 45 16
Width: 643
GlyphClass: 2
Flags: W
LayerCount: 2
Fore
SplineSet
109 350 m 0,0,1
 81 350 81 350 63 373.5 c 128,-1,2
 45 397 45 397 45 442 c 0,3,4
 45 482 45 482 81 502 c 128,-1,5
 117 522 117 522 203 530 c 0,6,7
 231 533 231 533 276.5 538.5 c 128,-1,8
 322 544 322 544 369.5 549.5 c 128,-1,9
 417 555 417 555 459.5 559 c 128,-1,10
 502 563 502 563 526 563 c 0,11,12
 563 563 563 563 583.5 541 c 128,-1,13
 604 519 604 519 604 463 c 0,14,15
 604 405 604 405 489 393 c 0,16,17
 474 391 474 391 444.5 387.5 c 128,-1,18
 415 384 415 384 378 379 c 128,-1,19
 341 374 341 374 300.5 369 c 128,-1,20
 260 364 260 364 223 360 c 128,-1,21
 186 356 186 356 155.5 353 c 128,-1,22
 125 350 125 350 109 350 c 0,0,1
EndSplineSet
Validated: 1
EndChar

StartChar: period
Encoding: 14 46 17
Width: 643
GlyphClass: 2
Flags: W
LayerCount: 2
Fore
SplineSet
336 18 m 0,0,1
 307 18 307 18 281.5 27 c 128,-1,2
 256 36 256 36 237 51.5 c 128,-1,3
 218 67 218 67 207.5 88 c 128,-1,4
 197 109 197 109 197 133 c 0,5,6
 197 175 197 175 230.5 201 c 128,-1,7
 264 227 264 227 319 227 c 0,8,9
 345 227 345 227 369.5 217.5 c 128,-1,10
 394 208 394 208 412.5 192 c 128,-1,11
 431 176 431 176 442 155 c 128,-1,12
 453 134 453 134 453 111 c 0,13,14
 453 67 453 67 421.5 42.5 c 128,-1,15
 390 18 390 18 336 18 c 0,0,1
EndSplineSet
Validated: 1
EndChar

StartChar: slash
Encoding: 15 47 18
Width: 492
GlyphClass: 2
Flags: W
LayerCount: 2
Fore
SplineSet
272 1112 m 0,0,1
 282 1158 282 1158 330 1161 c 2,2,-1
 424 1165 l 2,3,4
 453 1163 453 1163 463 1150 c 128,-1,5
 473 1137 473 1137 473 1108 c 1,6,7
 420 797 420 797 363 487.5 c 128,-1,8
 306 178 306 178 233 -131 c 0,9,10
 227 -157 227 -157 212 -165.5 c 128,-1,11
 197 -174 197 -174 172 -174 c 2,12,-1
 82 -164 l 2,13,14
 60 -162 60 -162 48.5 -150.5 c 128,-1,15
 37 -139 37 -139 37 -119 c 0,16,17
 37 -116 37 -116 37 -111.5 c 128,-1,18
 37 -107 37 -107 39 -102 c 0,19,20
 84 107 84 107 118.5 276.5 c 128,-1,21
 153 446 153 446 180.5 590.5 c 128,-1,22
 208 735 208 735 230 861.5 c 128,-1,23
 252 988 252 988 272 1112 c 0,0,1
EndSplineSet
Validated: 1
EndChar

StartChar: zero
Encoding: 16 48 19
Width: 1163
GlyphClass: 2
Flags: W
LayerCount: 2
Fore
SplineSet
57 393 m 0,0,1
 57 501 57 501 96.5 595.5 c 128,-1,2
 136 690 136 690 204.5 759.5 c 128,-1,3
 273 829 273 829 365 869 c 128,-1,4
 457 909 457 909 563 909 c 0,5,6
 676 909 676 909 775 871.5 c 128,-1,7
 874 834 874 834 947.5 769.5 c 128,-1,8
 1021 705 1021 705 1063.5 618 c 128,-1,9
 1106 531 1106 531 1106 432 c 0,10,11
 1106 367 1106 367 1085 306 c 128,-1,12
 1064 245 1064 245 1025.5 192 c 128,-1,13
 987 139 987 139 933.5 95 c 128,-1,14
 880 51 880 51 815 19.5 c 128,-1,15
 750 -12 750 -12 675.5 -29.5 c 128,-1,16
 601 -47 601 -47 522 -47 c 0,17,18
 417 -47 417 -47 331 -15.5 c 128,-1,19
 245 16 245 16 184.5 73.5 c 128,-1,20
 124 131 124 131 90.5 212 c 128,-1,21
 57 293 57 293 57 393 c 0,0,1
905 393 m 0,22,23
 905 460 905 460 875 520 c 128,-1,24
 845 580 845 580 793 625 c 128,-1,25
 741 670 741 670 671 696.5 c 128,-1,26
 601 723 601 723 522 723 c 0,27,28
 467 723 467 723 419 701.5 c 128,-1,29
 371 680 371 680 336 643.5 c 128,-1,30
 301 607 301 607 280.5 557.5 c 128,-1,31
 260 508 260 508 260 451 c 0,32,33
 260 301 260 301 336 219 c 128,-1,34
 412 137 412 137 549 137 c 0,35,36
 622 137 622 137 687 157 c 128,-1,37
 752 177 752 177 800.5 212 c 128,-1,38
 849 247 849 247 877 293.5 c 128,-1,39
 905 340 905 340 905 393 c 0,22,23
EndSplineSet
Validated: 1
EndChar

StartChar: one
Encoding: 17 49 20
Width: 827
GlyphClass: 2
Flags: W
LayerCount: 2
Fore
SplineSet
133 551 m 0,0,1
 105 524 105 524 74 524 c 0,2,3
 60 524 60 524 45 530.5 c 128,-1,4
 30 537 30 537 10 553 c 0,5,6
 -27 581 -27 581 -27 612 c 0,7,8
 -27 632 -27 632 -4.5 659 c 128,-1,9
 18 686 18 686 54 715.5 c 128,-1,10
 90 745 90 745 135.5 776 c 128,-1,11
 181 807 181 807 228 835 c 128,-1,12
 275 863 275 863 319 886 c 128,-1,13
 363 909 363 909 395 924 c 0,14,15
 414 932 414 932 430 936 c 128,-1,16
 446 940 446 940 463 940 c 0,17,18
 497 940 497 940 521.5 928.5 c 128,-1,19
 546 917 546 917 563 897 c 128,-1,20
 580 877 580 877 591.5 851.5 c 128,-1,21
 603 826 603 826 610.5 798.5 c 128,-1,22
 618 771 618 771 623 742.5 c 128,-1,23
 628 714 628 714 633 690 c 0,24,25
 641 649 641 649 649.5 595.5 c 128,-1,26
 658 542 658 542 665 484.5 c 128,-1,27
 672 427 672 427 678.5 370.5 c 128,-1,28
 685 314 685 314 690 265.5 c 128,-1,29
 695 217 695 217 697.5 181.5 c 128,-1,30
 700 146 700 146 700 131 c 0,31,32
 700 61 700 61 631 49 c 0,33,34
 593 41 593 41 581 40 c 128,-1,35
 569 39 569 39 565 39 c 0,36,37
 534 39 534 39 515.5 57 c 128,-1,38
 497 75 497 75 494 111 c 0,39,40
 483 245 483 245 469 377.5 c 128,-1,41
 455 510 455 510 426 641 c 0,42,43
 420 670 420 670 405 685 c 128,-1,44
 390 700 390 700 369 700 c 0,45,46
 349 700 349 700 319 684 c 128,-1,47
 289 668 289 668 256 645 c 128,-1,48
 223 622 223 622 190.5 596.5 c 128,-1,49
 158 571 158 571 133 551 c 0,0,1
EndSplineSet
Validated: 1
EndChar

StartChar: two
Encoding: 18 50 21
Width: 1004
GlyphClass: 2
Flags: W
LayerCount: 2
Fore
SplineSet
287 811 m 0,0,1
 273 788 273 788 257 776 c 128,-1,2
 241 764 241 764 221 764 c 0,3,4
 212 764 212 764 199 768 c 128,-1,5
 186 772 186 772 160 784 c 0,6,7
 113 810 113 810 113 850 c 0,8,9
 113 873 113 873 127 895 c 0,10,11
 154 937 154 937 190.5 972.5 c 128,-1,12
 227 1008 227 1008 273.5 1034 c 128,-1,13
 320 1060 320 1060 376.5 1075 c 128,-1,14
 433 1090 433 1090 500 1090 c 0,15,16
 569 1090 569 1090 631 1069 c 128,-1,17
 693 1048 693 1048 740 1009.5 c 128,-1,18
 787 971 787 971 814.5 915.5 c 128,-1,19
 842 860 842 860 842 791 c 0,20,21
 842 708 842 708 809 629.5 c 128,-1,22
 776 551 776 551 723.5 477.5 c 128,-1,23
 671 404 671 404 605 337.5 c 128,-1,24
 539 271 539 271 473 213 c 0,25,26
 462 204 462 204 457.5 195 c 128,-1,27
 453 186 453 186 453 178 c 0,28,29
 453 167 453 167 463.5 159.5 c 128,-1,30
 474 152 474 152 494 152 c 0,31,32
 594 147 594 147 692 138.5 c 128,-1,33
 790 130 790 130 889 119 c 0,34,35
 956 110 956 110 956 53 c 0,36,37
 956 45 956 45 955 34.5 c 128,-1,38
 954 24 954 24 946 -4 c 0,39,40
 938 -38 938 -38 915.5 -54 c 128,-1,41
 893 -70 893 -70 862 -70 c 0,42,43
 842 -70 842 -70 799 -66.5 c 128,-1,44
 756 -63 756 -63 699 -58 c 128,-1,45
 642 -53 642 -53 575 -46.5 c 128,-1,46
 508 -40 508 -40 439.5 -35 c 128,-1,47
 371 -30 371 -30 305 -26.5 c 128,-1,48
 239 -23 239 -23 184 -23 c 0,49,50
 162 -23 162 -23 146.5 -13.5 c 128,-1,51
 131 -4 131 -4 121.5 11.5 c 128,-1,52
 112 27 112 27 108 48 c 128,-1,53
 104 69 104 69 104 92 c 0,54,55
 104 120 104 120 116.5 140.5 c 128,-1,56
 129 161 129 161 152 178 c 0,57,58
 198 212 198 212 251.5 253 c 128,-1,59
 305 294 305 294 359 340 c 128,-1,60
 413 386 413 386 462.5 436.5 c 128,-1,61
 512 487 512 487 550.5 539.5 c 128,-1,62
 589 592 589 592 612 645.5 c 128,-1,63
 635 699 635 699 635 752 c 0,64,65
 635 788 635 788 620.5 816.5 c 128,-1,66
 606 845 606 845 581.5 865.5 c 128,-1,67
 557 886 557 886 525 896.5 c 128,-1,68
 493 907 493 907 459 907 c 0,69,70
 393 907 393 907 353 879 c 128,-1,71
 313 851 313 851 287 811 c 0,0,1
EndSplineSet
Validated: 1
EndChar

StartChar: three
Encoding: 19 51 22
Width: 1063
GlyphClass: 2
Flags: W
LayerCount: 2
Fore
SplineSet
408 446 m 0,0,1
 401 444 401 444 395 443 c 128,-1,2
 389 442 389 442 383 442 c 0,3,4
 352 442 352 442 335 461 c 128,-1,5
 318 480 318 480 313 514 c 2,6,-1
 307 555 l 2,7,8
 307 560 307 560 306 564 c 128,-1,9
 305 568 305 568 305 571 c 0,10,11
 305 600 305 600 318.5 617.5 c 128,-1,12
 332 635 332 635 353.5 644.5 c 128,-1,13
 375 654 375 654 402 657.5 c 128,-1,14
 429 661 429 661 457 662 c 0,15,16
 517 664 517 664 554.5 695.5 c 128,-1,17
 592 727 592 727 592 793 c 0,18,19
 592 830 592 830 572 855.5 c 128,-1,20
 552 881 552 881 521.5 897 c 128,-1,21
 491 913 491 913 454.5 920.5 c 128,-1,22
 418 928 418 928 385 928 c 0,23,24
 317 928 317 928 262 904.5 c 128,-1,25
 207 881 207 881 158 844 c 0,26,27
 126 821 126 821 102 821 c 0,28,29
 85 821 85 821 70 830 c 128,-1,30
 55 839 55 839 37 862 c 0,31,32
 14 893 14 893 6 909.5 c 128,-1,33
 -2 926 -2 926 -2 940 c 0,34,35
 -2 962 -2 962 16.5 983.5 c 128,-1,36
 35 1005 35 1005 66.5 1024 c 128,-1,37
 98 1043 98 1043 140 1059 c 128,-1,38
 182 1075 182 1075 228.5 1086 c 128,-1,39
 275 1097 275 1097 323.5 1103.5 c 128,-1,40
 372 1110 372 1110 418 1110 c 0,41,42
 503 1110 503 1110 572.5 1089 c 128,-1,43
 642 1068 642 1068 691 1030 c 128,-1,44
 740 992 740 992 766.5 938.5 c 128,-1,45
 793 885 793 885 793 821 c 0,46,47
 793 784 793 784 782.5 748 c 128,-1,48
 772 712 772 712 748 678 c 0,49,50
 733 658 733 658 733 647 c 0,51,52
 733 630 733 630 762 616 c 0,53,54
 817 590 817 590 857 553.5 c 128,-1,55
 897 517 897 517 922.5 472.5 c 128,-1,56
 948 428 948 428 960.5 377.5 c 128,-1,57
 973 327 973 327 973 274 c 0,58,59
 973 193 973 193 938 130.5 c 128,-1,60
 903 68 903 68 845 25.5 c 128,-1,61
 787 -17 787 -17 712.5 -39 c 128,-1,62
 638 -61 638 -61 559 -61 c 0,63,64
 489 -61 489 -61 425.5 -43.5 c 128,-1,65
 362 -26 362 -26 310.5 8.5 c 128,-1,66
 259 43 259 43 222 92.5 c 128,-1,67
 185 142 185 142 168 207 c 0,68,69
 166 213 166 213 165 220 c 128,-1,70
 164 227 164 227 164 233 c 0,71,72
 164 261 164 261 184 277 c 128,-1,73
 204 293 204 293 236 293 c 2,74,-1
 301 287 l 2,75,76
 338 282 338 282 355 263.5 c 128,-1,77
 372 245 372 245 387 211 c 0,78,79
 399 183 399 183 421 166 c 128,-1,80
 443 149 443 149 470.5 140 c 128,-1,81
 498 131 498 131 528.5 128 c 128,-1,82
 559 125 559 125 588 125 c 0,83,84
 628 125 628 125 662 133 c 128,-1,85
 696 141 696 141 720.5 158 c 128,-1,86
 745 175 745 175 758.5 203 c 128,-1,87
 772 231 772 231 772 272 c 0,88,89
 772 320 772 320 752.5 358 c 128,-1,90
 733 396 733 396 702 423 c 128,-1,91
 671 450 671 450 632 464.5 c 128,-1,92
 593 479 593 479 553 479 c 0,93,94
 519 479 519 479 482 467.5 c 128,-1,95
 445 456 445 456 408 446 c 0,0,1
EndSplineSet
Validated: 1
EndChar

StartChar: four
Encoding: 20 52 23
Width: 969
GlyphClass: 2
Flags: W
LayerCount: 2
Fore
SplineSet
868 354 m 2,0,1
 902 352 902 352 921 336 c 128,-1,2
 940 320 940 320 940 289 c 0,3,4
 940 280 940 280 937 266 c 128,-1,5
 934 252 934 252 930 238 c 128,-1,6
 926 224 926 224 922 212.5 c 128,-1,7
 918 201 918 201 915 197 c 0,8,9
 907 179 907 179 893.5 175 c 128,-1,10
 880 171 880 171 867 168.5 c 128,-1,11
 854 166 854 166 845 159.5 c 128,-1,12
 836 153 836 153 836 131 c 0,13,14
 836 116 836 116 841 94 c 128,-1,15
 846 72 846 72 852 47 c 128,-1,16
 858 22 858 22 863 -4 c 128,-1,17
 868 -30 868 -30 868 -51 c 0,18,19
 868 -109 868 -109 809 -127 c 0,20,21
 788 -134 788 -134 774 -138 c 128,-1,22
 760 -142 760 -142 750 -144 c 128,-1,23
 740 -146 740 -146 733 -146.5 c 128,-1,24
 726 -147 726 -147 719 -147 c 0,25,26
 703 -147 703 -147 691 -134 c 128,-1,27
 679 -121 679 -121 670 -98 c 128,-1,28
 661 -75 661 -75 653.5 -42 c 128,-1,29
 646 -9 646 -9 639 31 c 0,30,31
 630 76 630 76 623.5 105 c 128,-1,32
 617 134 617 134 608.5 150.5 c 128,-1,33
 600 167 600 167 589.5 173.5 c 128,-1,34
 579 180 579 180 563 182 c 2,35,-1
 373 197 l 2,36,37
 344 199 344 199 307.5 202.5 c 128,-1,38
 271 206 271 206 232.5 212.5 c 128,-1,39
 194 219 194 219 157.5 230.5 c 128,-1,40
 121 242 121 242 92.5 260 c 128,-1,41
 64 278 64 278 46.5 303.5 c 128,-1,42
 29 329 29 329 29 365 c 0,43,44
 29 391 29 391 37 415.5 c 128,-1,45
 45 440 45 440 57 463.5 c 128,-1,46
 69 487 69 487 83.5 510 c 128,-1,47
 98 533 98 533 111 555 c 0,48,49
 163 643 163 643 226.5 724.5 c 128,-1,50
 290 806 290 806 350 889 c 0,51,52
 375 921 375 921 375 958 c 0,53,54
 375 974 375 974 370 991.5 c 128,-1,55
 365 1009 365 1009 365 1024 c 0,56,57
 365 1045 365 1045 376.5 1057 c 128,-1,58
 388 1069 388 1069 405.5 1075 c 128,-1,59
 423 1081 423 1081 444 1083 c 128,-1,60
 465 1085 465 1085 485 1085 c 0,61,62
 537 1085 537 1085 561.5 1064.5 c 128,-1,63
 586 1044 586 1044 595.5 1017 c 128,-1,64
 605 990 605 990 605.5 963.5 c 128,-1,65
 606 937 606 937 610 924 c 0,66,67
 649 791 649 791 689 661.5 c 128,-1,68
 729 532 729 532 764 399 c 0,69,70
 770 376 770 376 784 367 c 128,-1,71
 798 358 798 358 821 356 c 2,72,-1
 868 354 l 2,0,1
455 377 m 2,73,74
 466 375 466 375 479 374 c 128,-1,75
 492 373 492 373 502 373 c 0,76,77
 520 373 520 373 530.5 381.5 c 128,-1,78
 541 390 541 390 541 406 c 0,79,80
 541 411 541 411 540 416.5 c 128,-1,81
 539 422 539 422 537 428 c 0,82,83
 530 450 530 450 523.5 473.5 c 128,-1,84
 517 497 517 497 509.5 523 c 128,-1,85
 502 549 502 549 492.5 578.5 c 128,-1,86
 483 608 483 608 469 643 c 0,87,88
 466 652 466 652 457 665 c 128,-1,89
 448 678 448 678 432 678 c 0,90,91
 414 678 414 678 397 655 c 0,92,93
 362 606 362 606 329.5 559 c 128,-1,94
 297 512 297 512 268 463 c 0,95,96
 258 443 258 443 258 430 c 0,97,98
 258 416 258 416 267.5 407 c 128,-1,99
 277 398 277 398 293 395 c 2,100,-1
 455 377 l 2,73,74
EndSplineSet
Validated: 1
EndChar

StartChar: five
Encoding: 21 53 24
Width: 1077
GlyphClass: 2
Flags: W
LayerCount: 2
Fore
SplineSet
885 1030 m 0,0,1
 920 1027 920 1027 942 1009.5 c 128,-1,2
 964 992 964 992 973 956 c 2,3,-1
 979 932 l 2,4,5
 981 924 981 924 982 916.5 c 128,-1,6
 983 909 983 909 983 901 c 0,7,8
 983 876 983 876 967.5 861 c 128,-1,9
 952 846 952 846 924 844 c 0,10,11
 843 847 843 847 778 849.5 c 128,-1,12
 713 852 713 852 651 852 c 0,13,14
 576 852 576 852 504 849 c 128,-1,15
 432 846 432 846 362 838 c 0,16,17
 326 835 326 835 326 807 c 0,18,19
 326 788 326 788 358 776 c 0,20,21
 429 750 429 750 505.5 722 c 128,-1,22
 582 694 582 694 656 661 c 128,-1,23
 730 628 730 628 797 589.5 c 128,-1,24
 864 551 864 551 914.5 504 c 128,-1,25
 965 457 965 457 994.5 400 c 128,-1,26
 1024 343 1024 343 1024 274 c 0,27,28
 1024 197 1024 197 992 134 c 128,-1,29
 960 71 960 71 901.5 25.5 c 128,-1,30
 843 -20 843 -20 759.5 -45 c 128,-1,31
 676 -70 676 -70 573 -70 c 0,32,33
 483 -70 483 -70 394 -49 c 128,-1,34
 305 -28 305 -28 234 14.5 c 128,-1,35
 163 57 163 57 118.5 122 c 128,-1,36
 74 187 74 187 74 274 c 0,37,38
 74 312 74 312 81 341.5 c 128,-1,39
 88 371 88 371 102 399 c 0,40,41
 116 431 116 431 138.5 444 c 128,-1,42
 161 457 161 457 188 457 c 2,43,-1
 238 455 l 2,44,45
 309 452 309 452 309 406 c 0,46,47
 309 401 309 401 308 395 c 128,-1,48
 307 389 307 389 305 383 c 0,49,50
 293 345 293 345 293 313 c 0,51,52
 293 259 293 259 321.5 220.5 c 128,-1,53
 350 182 350 182 395 157.5 c 128,-1,54
 440 133 440 133 496 122 c 128,-1,55
 552 111 552 111 606 111 c 0,56,57
 711 111 711 111 767 144.5 c 128,-1,58
 823 178 823 178 823 238 c 0,59,60
 823 296 823 296 781 342 c 128,-1,61
 739 388 739 388 660 432 c 128,-1,62
 581 476 581 476 467 522 c 128,-1,63
 353 568 353 568 209 627 c 0,64,65
 102 672 102 672 102 772 c 0,66,67
 102 779 102 779 103 794 c 128,-1,68
 104 809 104 809 111 850 c 0,69,70
 120 913 120 913 154.5 948.5 c 128,-1,71
 189 984 189 984 252 995 c 0,72,73
 391 1018 391 1018 506.5 1027 c 128,-1,74
 622 1036 622 1036 721 1036 c 0,75,76
 808 1036 808 1036 885 1030 c 0,0,1
EndSplineSet
Validated: 1
EndChar

StartChar: six
Encoding: 22 54 25
Width: 1038
GlyphClass: 2
Flags: W
LayerCount: 2
Fore
SplineSet
756 893 m 0,0,1
 784 868 784 868 784 840 c 0,2,3
 784 808 784 808 752 778 c 2,4,-1
 727 756 l 2,5,6
 713 743 713 743 698 737 c 128,-1,7
 683 731 683 731 668 731 c 0,8,9
 641 731 641 731 610 750 c 0,10,11
 578 768 578 768 549.5 777 c 128,-1,12
 521 786 521 786 494 786 c 0,13,14
 447 786 447 786 406.5 762 c 128,-1,15
 366 738 366 738 336 698 c 128,-1,16
 306 658 306 658 289 606.5 c 128,-1,17
 272 555 272 555 272 500 c 0,18,19
 272 475 272 475 276.5 447 c 128,-1,20
 281 419 281 419 289 393 c 0,21,22
 294 381 294 381 302 375 c 128,-1,23
 310 369 310 369 319 369 c 0,24,25
 332 369 332 369 344 375 c 0,26,27
 432 421 432 421 530.5 449 c 128,-1,28
 629 477 629 477 735 477 c 0,29,30
 793 477 793 477 847.5 462 c 128,-1,31
 902 447 902 447 944 417.5 c 128,-1,32
 986 388 986 388 1011 344 c 128,-1,33
 1036 300 1036 300 1036 242 c 0,34,35
 1036 175 1036 175 1006.5 122 c 128,-1,36
 977 69 977 69 927 32.5 c 128,-1,37
 877 -4 877 -4 811.5 -23.5 c 128,-1,38
 746 -43 746 -43 674 -43 c 0,39,40
 539 -43 539 -43 428.5 -3.5 c 128,-1,41
 318 36 318 36 239.5 105 c 128,-1,42
 161 174 161 174 117.5 266.5 c 128,-1,43
 74 359 74 359 74 465 c 0,44,45
 74 560 74 560 106.5 651 c 128,-1,46
 139 742 139 742 200 813 c 128,-1,47
 261 884 261 884 348 927.5 c 128,-1,48
 435 971 435 971 543 971 c 0,49,50
 608 971 608 971 660 950.5 c 128,-1,51
 712 930 712 930 756 893 c 0,0,1
831 217 m 0,52,53
 831 241 831 241 816 256.5 c 128,-1,54
 801 272 801 272 778.5 281 c 128,-1,55
 756 290 756 290 730 293.5 c 128,-1,56
 704 297 704 297 682 297 c 0,57,58
 632 297 632 297 578.5 285.5 c 128,-1,59
 525 274 525 274 471 252 c 0,60,61
 459 247 459 247 451.5 239 c 128,-1,62
 444 231 444 231 444 223 c 0,63,64
 444 205 444 205 469 193 c 0,65,66
 531 162 531 162 581 152.5 c 128,-1,67
 631 143 631 143 684 143 c 0,68,69
 756 143 756 143 793.5 164 c 128,-1,70
 831 185 831 185 831 217 c 0,52,53
EndSplineSet
Validated: 1
EndChar

StartChar: seven
Encoding: 23 55 26
Width: 1065
GlyphClass: 2
Flags: W
LayerCount: 2
Fore
SplineSet
178 397 m 0,0,1
 144 397 144 397 125 414.5 c 128,-1,2
 106 432 106 432 106 467 c 0,3,4
 106 488 106 488 109.5 507.5 c 128,-1,5
 113 527 113 527 122 542.5 c 128,-1,6
 131 558 131 558 146.5 568 c 128,-1,7
 162 578 162 578 186 580 c 0,8,9
 267 586 267 586 350 589 c 128,-1,10
 433 592 433 592 514 592 c 0,11,12
 565 592 565 592 565 643 c 0,13,14
 565 660 565 660 564 677.5 c 128,-1,15
 563 695 563 695 561 711 c 0,16,17
 556 742 556 742 541.5 762 c 128,-1,18
 527 782 527 782 498 793 c 0,19,20
 467 804 467 804 422.5 813 c 128,-1,21
 378 822 378 822 326.5 828 c 128,-1,22
 275 834 275 834 220.5 837 c 128,-1,23
 166 840 166 840 115 840 c 0,24,25
 93 840 93 840 72 839 c 128,-1,26
 51 838 51 838 31 838 c 0,27,28
 -47 838 -47 838 -47 909 c 1,29,-1
 -45 938 l 2,30,31
 -43 976 -43 976 -22 997 c 128,-1,32
 -1 1018 -1 1018 37 1018 c 0,33,34
 65 1018 65 1018 92.5 1019 c 128,-1,35
 120 1020 120 1020 147 1020 c 0,36,37
 188 1020 188 1020 226.5 1019 c 128,-1,38
 265 1018 265 1018 303 1016 c 0,39,40
 353 1013 353 1013 408.5 1008 c 128,-1,41
 464 1003 464 1003 519 991 c 128,-1,42
 574 979 574 979 624 957.5 c 128,-1,43
 674 936 674 936 713 901 c 0,44,45
 732 883 732 883 743 856.5 c 128,-1,46
 754 830 754 830 759 796 c 128,-1,47
 764 762 764 762 765.5 721 c 128,-1,48
 767 680 767 680 768 633 c 0,49,50
 768 586 768 586 819 580 c 0,51,52
 875 575 875 575 931 569 c 128,-1,53
 987 563 987 563 1042 555 c 0,54,55
 1073 550 1073 550 1090.5 534 c 128,-1,56
 1108 518 1108 518 1108 494 c 0,57,58
 1108 484 1108 484 1104 470.5 c 128,-1,59
 1100 457 1100 457 1087 428 c 0,60,61
 1064 371 1064 371 1006 371 c 0,62,63
 992 371 992 371 966 374 c 128,-1,64
 940 377 940 377 911.5 381 c 128,-1,65
 883 385 883 385 858 388 c 128,-1,66
 833 391 833 391 821 391 c 0,67,68
 795 391 795 391 782.5 379.5 c 128,-1,69
 770 368 770 368 768 342 c 0,70,71
 766 267 766 267 763.5 191.5 c 128,-1,72
 761 116 761 116 758 41 c 0,73,74
 755 -31 755 -31 682 -47 c 0,75,76
 663 -51 663 -51 651.5 -53 c 128,-1,77
 640 -55 640 -55 633.5 -56 c 128,-1,78
 627 -57 627 -57 624 -57 c 128,-1,79
 621 -57 621 -57 618 -57 c 0,80,81
 556 -57 556 -57 553 12 c 1,82,-1
 565 356 l 2,83,84
 563 381 563 381 551 395.5 c 128,-1,85
 539 410 539 410 514 410 c 0,86,87
 461 410 461 410 408 408 c 128,-1,88
 355 406 355 406 309 403.5 c 128,-1,89
 263 401 263 401 228.5 399 c 128,-1,90
 194 397 194 397 178 397 c 0,0,1
EndSplineSet
Validated: 1
EndChar

StartChar: eight
Encoding: 24 56 27
Width: 1122
GlyphClass: 2
Flags: W
LayerCount: 2
Fore
SplineSet
526 1036 m 0,0,1
 598 1036 598 1036 669.5 1017 c 128,-1,2
 741 998 741 998 798 959.5 c 128,-1,3
 855 921 855 921 890.5 864 c 128,-1,4
 926 807 926 807 926 731 c 0,5,6
 926 690 926 690 909 651 c 0,7,8
 906 642 906 642 903.5 635.5 c 128,-1,9
 901 629 901 629 901 621 c 0,10,11
 901 599 901 599 922 582 c 0,12,13
 979 526 979 526 1010.5 456 c 128,-1,14
 1042 386 1042 386 1042 311 c 0,15,16
 1042 219 1042 219 1000 151.5 c 128,-1,17
 958 84 958 84 890.5 39.5 c 128,-1,18
 823 -5 823 -5 738 -27 c 128,-1,19
 653 -49 653 -49 567 -49 c 0,20,21
 514 -49 514 -49 459 -39.5 c 128,-1,22
 404 -30 404 -30 352 -10.5 c 128,-1,23
 300 9 300 9 254 38.5 c 128,-1,24
 208 68 208 68 174 108.5 c 128,-1,25
 140 149 140 149 120 200.5 c 128,-1,26
 100 252 100 252 100 315 c 0,27,28
 100 380 100 380 122 444.5 c 128,-1,29
 144 509 144 509 184 563 c 0,30,31
 201 582 201 582 201 600 c 0,32,33
 201 614 201 614 190 633 c 0,34,35
 169 675 169 675 162.5 703 c 128,-1,36
 156 731 156 731 156 756 c 0,37,38
 156 833 156 833 187.5 886.5 c 128,-1,39
 219 940 219 940 271 973 c 128,-1,40
 323 1006 323 1006 389.5 1021 c 128,-1,41
 456 1036 456 1036 526 1036 c 0,0,1
784 430 m 0,42,43
 770 444 770 444 756.5 455 c 128,-1,44
 743 466 743 466 729 475 c 0,45,46
 718 483 718 483 708.5 485 c 128,-1,47
 699 487 699 487 688 487 c 0,48,49
 683 487 683 487 677.5 487 c 128,-1,50
 672 487 672 487 666 485 c 0,51,52
 635 479 635 479 604.5 477 c 128,-1,53
 574 475 574 475 545 475 c 0,54,55
 471 475 471 475 401 494 c 0,56,57
 377 500 377 500 365 500 c 0,58,59
 358 500 358 500 356 498 c 2,60,-1
 348 492 l 2,61,62
 333 479 333 479 323.5 461 c 128,-1,63
 314 443 314 443 308.5 423 c 128,-1,64
 303 403 303 403 301 382 c 128,-1,65
 299 361 299 361 299 342 c 0,66,67
 299 288 299 288 324.5 248.5 c 128,-1,68
 350 209 350 209 390.5 183 c 128,-1,69
 431 157 431 157 481 144 c 128,-1,70
 531 131 531 131 580 131 c 0,71,72
 640 131 640 131 690 142 c 128,-1,73
 740 153 740 153 775.5 173.5 c 128,-1,74
 811 194 811 194 830.5 223.5 c 128,-1,75
 850 253 850 253 850 291 c 0,76,77
 850 322 850 322 834 357.5 c 128,-1,78
 818 393 818 393 784 430 c 0,42,43
487 858 m 0,79,80
 465 858 465 858 441 856 c 128,-1,81
 417 854 417 854 397.5 847.5 c 128,-1,82
 378 841 378 841 365 828 c 128,-1,83
 352 815 352 815 352 793 c 0,84,85
 352 777 352 777 359 760.5 c 128,-1,86
 366 744 366 744 383 727 c 0,87,88
 402 705 402 705 428 705 c 0,89,90
 433 705 433 705 437.5 705 c 128,-1,91
 442 705 442 705 449 707 c 0,92,93
 473 713 473 713 500 716 c 128,-1,94
 527 719 527 719 553 719 c 0,95,96
 614 719 614 719 670 707 c 0,97,98
 711 696 711 696 721 696 c 0,99,100
 727 696 727 696 727 702 c 0,101,102
 727 746 727 746 702 776 c 128,-1,103
 677 806 677 806 640 824 c 128,-1,104
 603 842 603 842 561.5 850 c 128,-1,105
 520 858 520 858 487 858 c 0,79,80
EndSplineSet
Validated: 1
EndChar

StartChar: nine
Encoding: 25 57 28
Width: 1026
GlyphClass: 2
Flags: W
LayerCount: 2
Fore
SplineSet
950 864 m 0,0,1
 967 850 967 850 975 835.5 c 128,-1,2
 983 821 983 821 983 807 c 256,3,4
 983 793 983 793 975 779 c 128,-1,5
 967 765 967 765 944 745 c 0,6,7
 921 724 921 724 909.5 702 c 128,-1,8
 898 680 898 680 895 649 c 0,9,10
 884 546 884 546 880.5 441.5 c 128,-1,11
 877 337 877 337 877 233 c 0,12,13
 877 150 877 150 881 67.5 c 128,-1,14
 885 -15 885 -15 891 -96 c 1,15,-1
 891 -111 l 2,16,17
 891 -176 891 -176 821 -188 c 2,18,-1
 778 -197 l 2,19,20
 772 -199 772 -199 766.5 -199 c 128,-1,21
 761 -199 761 -199 756 -199 c 0,22,23
 692 -199 692 -199 686 -127 c 0,24,25
 674 23 674 23 674 178 c 0,26,27
 674 210 674 210 675.5 252 c 128,-1,28
 677 294 677 294 679 333.5 c 128,-1,29
 681 373 681 373 682.5 405.5 c 128,-1,30
 684 438 684 438 684 451 c 0,31,32
 684 481 684 481 662 481 c 0,33,34
 649 481 649 481 631 469 c 0,35,36
 549 413 549 413 461 382.5 c 128,-1,37
 373 352 373 352 287 352 c 0,38,39
 228 352 228 352 169.5 373 c 128,-1,40
 111 394 111 394 63.5 431.5 c 128,-1,41
 16 469 16 469 -13.5 520.5 c 128,-1,42
 -43 572 -43 572 -43 633 c 0,43,44
 -43 706 -43 706 -12.5 761 c 128,-1,45
 18 816 18 816 67 856.5 c 128,-1,46
 116 897 116 897 178.5 924 c 128,-1,47
 241 951 241 951 305 967 c 128,-1,48
 369 983 369 983 428.5 990 c 128,-1,49
 488 997 488 997 532 997 c 0,50,51
 653 997 653 997 758.5 964.5 c 128,-1,52
 864 932 864 932 950 864 c 0,0,1
594 653 m 0,53,54
 614 670 614 670 632 688.5 c 128,-1,55
 650 707 650 707 666 727 c 0,56,57
 678 742 678 742 678 758 c 0,58,59
 678 784 678 784 643 795 c 256,60,61
 608 806 608 806 570.5 810.5 c 128,-1,62
 533 815 533 815 496 815 c 0,63,64
 482 815 482 815 468 815 c 128,-1,65
 454 815 454 815 440 813 c 0,66,67
 409 810 409 810 361.5 802.5 c 128,-1,68
 314 795 314 795 269 778.5 c 128,-1,69
 224 762 224 762 192 735 c 128,-1,70
 160 708 160 708 160 666 c 0,71,72
 160 609 160 609 204.5 574 c 128,-1,73
 249 539 249 539 330 539 c 0,74,75
 367 539 367 539 402.5 548 c 128,-1,76
 438 557 438 557 471 573 c 128,-1,77
 504 589 504 589 535 609.5 c 128,-1,78
 566 630 566 630 594 653 c 0,53,54
EndSplineSet
Validated: 1
EndChar

StartChar: less
Encoding: 28 60 31
Width: 670
GlyphClass: 2
Flags: W
LayerCount: 2
Fore
SplineSet
403 905 m 0,0,1
 422 924 422 924 442 924 c 0,2,3
 463 924 463 924 479 909 c 2,4,-1
 535 868 l 2,5,6
 557 849 557 849 557 829 c 0,7,8
 557 811 557 811 539 793 c 0,9,10
 508 761 508 761 472 723 c 128,-1,11
 436 685 436 685 401 643 c 128,-1,12
 366 601 366 601 335 558 c 128,-1,13
 304 515 304 515 283 473 c 0,14,15
 274 460 274 460 274 444 c 0,16,17
 274 425 274 425 293.5 404.5 c 128,-1,18
 313 384 313 384 344 363 c 128,-1,19
 375 342 375 342 414.5 321.5 c 128,-1,20
 454 301 454 301 494 283 c 128,-1,21
 534 265 534 265 571 250.5 c 128,-1,22
 608 236 608 236 635 227 c 0,23,24
 670 214 670 214 670 188 c 0,25,26
 670 178 670 178 659.5 155 c 128,-1,27
 649 132 649 132 632.5 108.5 c 128,-1,28
 616 85 616 85 597 67 c 128,-1,29
 578 49 578 49 561 49 c 0,30,31
 556 49 556 49 550.5 49.5 c 128,-1,32
 545 50 545 50 539 53 c 0,33,34
 485 72 485 72 431.5 96 c 128,-1,35
 378 120 378 120 326 147 c 0,36,37
 290 166 290 166 243 190.5 c 128,-1,38
 196 215 196 215 155 246.5 c 128,-1,39
 114 278 114 278 85.5 315.5 c 128,-1,40
 57 353 57 353 57 397 c 0,41,42
 57 432 57 432 73.5 474 c 128,-1,43
 90 516 90 516 117.5 561 c 128,-1,44
 145 606 145 606 180.5 652 c 128,-1,45
 216 698 216 698 254.5 743 c 128,-1,46
 293 788 293 788 331.5 829 c 128,-1,47
 370 870 370 870 403 905 c 0,0,1
EndSplineSet
Validated: 1
EndChar

StartChar: equal
Encoding: 29 61 32
Width: 930
GlyphClass: 2
Flags: W
LayerCount: 2
Fore
SplineSet
127 514 m 0,0,1
 78 514 78 514 78 557 c 0,2,3
 78 560 78 560 78 564 c 128,-1,4
 78 568 78 568 80 573 c 2,5,-1
 98 653 l 2,6,7
 110 698 110 698 158 698 c 0,8,9
 326 700 326 700 492 709.5 c 128,-1,10
 658 719 658 719 825 731 c 1,11,-1
 836 731 l 2,12,13
 876 728 876 728 879 686 c 1,14,-1
 874 602 l 2,15,16
 871 552 871 552 821 549 c 0,17,18
 647 536 647 536 474 526 c 128,-1,19
 301 516 301 516 127 514 c 0,0,1
102 197 m 0,20,21
 53 197 53 197 53 240 c 0,22,23
 53 243 53 243 53 247 c 128,-1,24
 53 251 53 251 55 256 c 2,25,-1
 74 336 l 2,26,27
 86 381 86 381 133 381 c 0,28,29
 217 382 217 382 296.5 384.5 c 128,-1,30
 376 387 376 387 455 391 c 128,-1,31
 534 395 534 395 613.5 400.5 c 128,-1,32
 693 406 693 406 776 412 c 1,33,-1
 786 412 l 2,34,35
 808 410 808 410 817.5 399 c 128,-1,36
 827 388 827 388 829 367 c 2,37,-1
 825 283 l 2,38,39
 822 232 822 232 772 229 c 0,40,41
 685 223 685 223 596.5 217.5 c 128,-1,42
 508 212 508 212 422 207.5 c 128,-1,43
 336 203 336 203 255 200.5 c 128,-1,44
 174 198 174 198 102 197 c 0,20,21
EndSplineSet
Validated: 1
EndChar

StartChar: greater
Encoding: 30 62 33
Width: 670
GlyphClass: 2
Flags: W
LayerCount: 2
Fore
SplineSet
266 68 m 0,0,1
 248 49 248 49 227 49 c 0,2,3
 208 49 208 49 190 63 c 2,4,-1
 135 104 l 2,5,6
 113 124 113 124 113 143 c 256,7,8
 113 162 113 162 131 180 c 0,9,10
 162 211 162 211 198 249.5 c 128,-1,11
 234 288 234 288 269 330 c 128,-1,12
 304 372 304 372 335 415 c 128,-1,13
 366 458 366 458 387 500 c 0,14,15
 392 508 392 508 393.5 515 c 128,-1,16
 395 522 395 522 395 528 c 0,17,18
 395 547 395 547 375.5 568 c 128,-1,19
 356 589 356 589 325 610 c 128,-1,20
 294 631 294 631 254.5 651.5 c 128,-1,21
 215 672 215 672 175 689.5 c 128,-1,22
 135 707 135 707 98 721.5 c 128,-1,23
 61 736 61 736 35 745 c 0,24,25
 0 759 0 759 0 784 c 0,26,27
 0 794 0 794 10.5 817 c 128,-1,28
 21 840 21 840 37 864 c 128,-1,29
 53 888 53 888 72.5 906 c 128,-1,30
 92 924 92 924 109 924 c 0,31,32
 114 924 114 924 119.5 923.5 c 128,-1,33
 125 923 125 923 131 920 c 0,34,35
 185 901 185 901 238 877 c 128,-1,36
 291 853 291 853 344 825 c 0,37,38
 380 807 380 807 426.5 782 c 128,-1,39
 473 757 473 757 514 726 c 128,-1,40
 555 695 555 695 583.5 657.5 c 128,-1,41
 612 620 612 620 612 575 c 0,42,43
 612 522 612 522 576.5 456 c 128,-1,44
 541 390 541 390 488.5 321 c 128,-1,45
 436 252 436 252 376 186 c 128,-1,46
 316 120 316 120 266 68 c 0,0,1
EndSplineSet
Validated: 1
EndChar

StartChar: question
Encoding: 31 63 34
Width: 1030
GlyphClass: 2
Flags: W
LayerCount: 2
Fore
SplineSet
516 18 m 0,0,1
 487 18 487 18 461.5 27 c 128,-1,2
 436 36 436 36 417 51.5 c 128,-1,3
 398 67 398 67 387.5 88 c 128,-1,4
 377 109 377 109 377 133 c 0,5,6
 377 175 377 175 410.5 201 c 128,-1,7
 444 227 444 227 500 227 c 0,8,9
 526 227 526 227 550 217.5 c 128,-1,10
 574 208 574 208 592.5 192 c 128,-1,11
 611 176 611 176 622 155 c 128,-1,12
 633 134 633 134 633 111 c 0,13,14
 633 67 633 67 601.5 42.5 c 128,-1,15
 570 18 570 18 516 18 c 0,0,1
170 741 m 0,16,17
 150 684 150 684 102 684 c 0,18,19
 83 684 83 684 63 692 c 2,20,-1
 12 713 l 2,21,22
 -41 737 -41 737 -41 780 c 0,23,24
 -41 798 -41 798 -31 821 c 0,25,26
 171 1253 171 1253 582 1253 c 0,27,28
 671 1253 671 1253 745.5 1225.5 c 128,-1,29
 820 1198 820 1198 874 1149 c 128,-1,30
 928 1100 928 1100 958.5 1032 c 128,-1,31
 989 964 989 964 989 883 c 0,32,33
 989 810 989 810 962 743.5 c 128,-1,34
 935 677 935 677 884.5 620 c 128,-1,35
 834 563 834 563 760.5 517 c 128,-1,36
 687 471 687 471 594 440 c 0,37,38
 576 434 576 434 557 434 c 0,39,40
 516 434 516 434 483 467 c 2,41,-1
 471 479 l 2,42,43
 444 504 444 504 444 530 c 0,44,45
 444 549 444 549 458 565 c 128,-1,46
 472 581 472 581 500 592 c 0,47,48
 581 623 581 623 635.5 655 c 128,-1,49
 690 687 690 687 723.5 720 c 128,-1,50
 757 753 757 753 771.5 789 c 128,-1,51
 786 825 786 825 786 866 c 0,52,53
 786 909 786 909 767.5 946 c 128,-1,54
 749 983 749 983 717.5 1010.5 c 128,-1,55
 686 1038 686 1038 643.5 1053.5 c 128,-1,56
 601 1069 601 1069 553 1069 c 0,57,58
 425 1069 425 1069 331 989 c 128,-1,59
 237 909 237 909 170 741 c 0,16,17
EndSplineSet
Validated: 1
EndChar

StartChar: at
Encoding: 32 64 35
Width: 2023
GlyphClass: 2
Flags: W
LayerCount: 2
Fore
SplineSet
1931 655 m 0,0,1
 1931 559 1931 559 1897.5 471 c 128,-1,2
 1864 383 1864 383 1802 316.5 c 128,-1,3
 1740 250 1740 250 1650.5 210 c 128,-1,4
 1561 170 1561 170 1450 170 c 0,5,6
 1405 170 1405 170 1359.5 183.5 c 128,-1,7
 1314 197 1314 197 1274 222.5 c 128,-1,8
 1234 248 1234 248 1203 286 c 128,-1,9
 1172 324 1172 324 1157 373 c 1,10,-1
 1151 373 l 1,11,12
 1070 274 1070 274 981 225 c 128,-1,13
 892 176 892 176 807 176 c 0,14,15
 720 176 720 176 671.5 225 c 128,-1,16
 623 274 623 274 623 360 c 0,17,18
 623 414 623 414 647.5 474.5 c 128,-1,19
 672 535 672 535 713 593 c 128,-1,20
 754 651 754 651 808.5 704 c 128,-1,21
 863 757 863 757 922.5 797.5 c 128,-1,22
 982 838 982 838 1043.5 861.5 c 128,-1,23
 1105 885 1105 885 1161 885 c 0,24,25
 1206 885 1206 885 1248.5 870.5 c 128,-1,26
 1291 856 1291 856 1323.5 830 c 128,-1,27
 1356 804 1356 804 1375.5 768 c 128,-1,28
 1395 732 1395 732 1395 688 c 0,29,30
 1395 667 1395 667 1387 649 c 128,-1,31
 1379 631 1379 631 1366 616.5 c 128,-1,32
 1353 602 1353 602 1336 593 c 128,-1,33
 1319 584 1319 584 1300 582 c 1,34,-1
 1300 571 l 2,35,36
 1300 514 1300 514 1318.5 472.5 c 128,-1,37
 1337 431 1337 431 1366 404 c 128,-1,38
 1395 377 1395 377 1429 364.5 c 128,-1,39
 1463 352 1463 352 1495 352 c 0,40,41
 1556 352 1556 352 1599.5 372 c 128,-1,42
 1643 392 1643 392 1671 428.5 c 128,-1,43
 1699 465 1699 465 1712.5 517 c 128,-1,44
 1726 569 1726 569 1726 633 c 0,45,46
 1726 718 1726 718 1694.5 780.5 c 128,-1,47
 1663 843 1663 843 1611 887.5 c 128,-1,48
 1559 932 1559 932 1493 960 c 128,-1,49
 1427 988 1427 988 1357.5 1004 c 128,-1,50
 1288 1020 1288 1020 1221.5 1026 c 128,-1,51
 1155 1032 1155 1032 1102 1032 c 0,52,53
 1025 1032 1025 1032 937 1020 c 128,-1,54
 849 1008 849 1008 761 981.5 c 128,-1,55
 673 955 673 955 592 913.5 c 128,-1,56
 511 872 511 872 449 813.5 c 128,-1,57
 387 755 387 755 350 678 c 128,-1,58
 313 601 313 601 313 504 c 0,59,60
 313 409 313 409 347.5 325 c 128,-1,61
 382 241 382 241 442 170.5 c 128,-1,62
 502 100 502 100 582.5 44.5 c 128,-1,63
 663 -11 663 -11 754.5 -49.5 c 128,-1,64
 846 -88 846 -88 944 -108.5 c 128,-1,65
 1042 -129 1042 -129 1137 -129 c 0,66,67
 1220 -129 1220 -129 1300 -113 c 128,-1,68
 1380 -97 1380 -97 1454 -61 c 0,69,70
 1462 -58 1462 -58 1469.5 -55.5 c 128,-1,71
 1477 -53 1477 -53 1483 -53 c 0,72,73
 1506 -53 1506 -53 1526 -82 c 2,74,-1
 1559 -137 l 2,75,76
 1564 -145 1564 -145 1565.5 -153.5 c 128,-1,77
 1567 -162 1567 -162 1567 -168 c 0,78,79
 1567 -197 1567 -197 1538 -211 c 0,80,81
 1436 -264 1436 -264 1335 -286.5 c 128,-1,82
 1234 -309 1234 -309 1130 -309 c 0,83,84
 1015 -309 1015 -309 895 -287.5 c 128,-1,85
 775 -266 775 -266 662 -223 c 128,-1,86
 549 -180 549 -180 449 -114.5 c 128,-1,87
 349 -49 349 -49 274.5 38.5 c 128,-1,88
 200 126 200 126 156.5 236 c 128,-1,89
 113 346 113 346 113 479 c 0,90,91
 113 575 113 575 147 667 c 128,-1,92
 181 759 181 759 245 841 c 128,-1,93
 309 923 309 923 401 992.5 c 128,-1,94
 493 1062 493 1062 608 1112.5 c 128,-1,95
 723 1163 723 1163 860 1191 c 128,-1,96
 997 1219 997 1219 1151 1219 c 0,97,98
 1253 1219 1253 1219 1351 1203 c 128,-1,99
 1449 1187 1449 1187 1535.5 1155 c 128,-1,100
 1622 1123 1622 1123 1694.5 1075.5 c 128,-1,101
 1767 1028 1767 1028 1819.5 965.5 c 128,-1,102
 1872 903 1872 903 1901.5 825 c 128,-1,103
 1931 747 1931 747 1931 655 c 0,0,1
1126 612 m 0,104,105
 1142 641 1142 641 1154.5 656 c 128,-1,106
 1167 671 1167 671 1186 676 c 1,107,108
 1177 687 1177 687 1165 692.5 c 128,-1,109
 1153 698 1153 698 1133 698 c 0,110,111
 1105 698 1105 698 1070 683 c 128,-1,112
 1035 668 1035 668 999 643 c 128,-1,113
 963 618 963 618 928.5 586 c 128,-1,114
 894 554 894 554 867 520 c 128,-1,115
 840 486 840 486 823.5 453 c 128,-1,116
 807 420 807 420 807 393 c 0,117,118
 807 365 807 365 848 365 c 0,119,120
 910 365 910 365 982 427 c 128,-1,121
 1054 489 1054 489 1126 612 c 0,104,105
EndSplineSet
Validated: 1
EndChar

StartChar: A
Encoding: 33 65 36
Width: 1208
GlyphClass: 2
Flags: W
AnchorPoint: "tones" 520 1160 basechar 0
LayerCount: 2
Fore
SplineSet
63 199 m 2,0,1
 46 199 46 199 37.5 216 c 128,-1,2
 29 233 29 233 29 264 c 0,3,4
 29 269 29 269 29 275.5 c 128,-1,5
 29 282 29 282 31 301 c 0,6,7
 34 373 34 373 102 385 c 1,8,-1
 125 387 l 2,9,10
 148 390 148 390 161 401.5 c 128,-1,11
 174 413 174 413 180 434 c 0,12,13
 197 491 197 491 214 549 c 128,-1,14
 231 607 231 607 250 664 c 0,15,16
 260 696 260 696 270.5 732.5 c 128,-1,17
 281 769 281 769 293.5 805 c 128,-1,18
 306 841 306 841 322.5 876 c 128,-1,19
 339 911 339 911 360 940 c 0,20,21
 369 952 369 952 385 965 c 128,-1,22
 401 978 401 978 421.5 988.5 c 128,-1,23
 442 999 442 999 465.5 1005.5 c 128,-1,24
 489 1012 489 1012 512 1012 c 0,25,26
 542 1012 542 1012 571 993 c 0,27,28
 610 966 610 966 648 928 c 128,-1,29
 686 890 686 890 733 831 c 128,-1,30
 780 772 780 772 842 688.5 c 128,-1,31
 904 605 904 605 991 487 c 0,32,33
 1004 472 1004 472 1018.5 464.5 c 128,-1,34
 1033 457 1033 457 1053 457 c 2,35,-1
 1110 457 l 2,36,37
 1145 457 1145 457 1164.5 440.5 c 128,-1,38
 1184 424 1184 424 1184 395 c 0,39,40
 1184 389 1184 389 1183.5 381 c 128,-1,41
 1183 373 1183 373 1180 365 c 2,42,-1
 1161 309 l 2,43,44
 1159 301 1159 301 1158 295 c 128,-1,45
 1157 289 1157 289 1157 283 c 0,46,47
 1157 262 1157 262 1171 240 c 2,48,-1
 1278 94 l 2,49,50
 1296 67 1296 67 1296 43 c 0,51,52
 1296 7 1296 7 1255 -20 c 2,53,-1
 1217 -47 l 2,54,55
 1203 -56 1203 -56 1190.5 -61 c 128,-1,56
 1178 -66 1178 -66 1165 -66 c 0,57,58
 1147 -66 1147 -66 1131.5 -55.5 c 128,-1,59
 1116 -45 1116 -45 1102 -27 c 0,60,61
 1054 41 1054 41 1005.5 107 c 128,-1,62
 957 173 957 173 907 238 c 0,63,64
 884 270 884 270 846 270 c 0,65,66
 724 265 724 265 604.5 256.5 c 128,-1,67
 485 248 485 248 365 236 c 0,68,69
 322 232 322 232 311 190 c 2,70,-1
 266 25 l 2,71,72
 248 -41 248 -41 186 -41 c 2,73,-1
 170 -41 l 1,74,-1
 139 -37 l 2,75,76
 105 -34 105 -34 87.5 -16 c 128,-1,77
 70 2 70 2 70 31 c 0,78,79
 70 37 70 37 71 44 c 128,-1,80
 72 51 72 51 74 59 c 0,81,82
 79 79 79 79 84.5 100 c 128,-1,83
 90 121 90 121 96 141 c 0,84,85
 98 149 98 149 99 155.5 c 128,-1,86
 100 162 100 162 100 168 c 0,87,88
 100 199 100 199 76 199 c 2,89,-1
 63 199 l 2,0,1
539 727 m 0,90,91
 529 736 529 736 521 742 c 128,-1,92
 513 748 513 748 504 748 c 0,93,94
 479 748 479 748 469 713 c 0,95,96
 449 654 449 654 430.5 596.5 c 128,-1,97
 412 539 412 539 393 479 c 0,98,99
 391 474 391 474 391 470 c 128,-1,100
 391 466 391 466 391 461 c 0,101,102
 391 424 391 424 430 424 c 2,103,-1
 440 424 l 1,104,105
 500 432 500 432 560 436.5 c 128,-1,106
 620 441 620 441 680 444 c 0,107,108
 700 446 700 446 711.5 454.5 c 128,-1,109
 723 463 723 463 723 477 c 0,110,111
 723 490 723 490 711 508 c 0,112,113
 669 564 669 564 626.5 618.5 c 128,-1,114
 584 673 584 673 539 727 c 0,90,91
EndSplineSet
Validated: 1048577
EndChar

StartChar: B
Encoding: 34 66 37
Width: 1047
GlyphClass: 2
Flags: W
LayerCount: 2
Fore
SplineSet
209 -88 m 0,0,1
 193 96 193 96 167.5 276 c 128,-1,2
 142 456 142 456 106 639 c 0,3,4
 103 651 103 651 98.5 658.5 c 128,-1,5
 94 666 94 666 86 666 c 0,6,7
 80 666 80 666 72.5 665 c 128,-1,8
 65 664 65 664 57 664 c 0,9,10
 19 664 19 664 -2 683 c 128,-1,11
 -23 702 -23 702 -23 731 c 0,12,13
 -23 764 -23 764 4.5 795 c 128,-1,14
 32 826 32 826 77 853.5 c 128,-1,15
 122 881 122 881 180 904 c 128,-1,16
 238 927 238 927 299.5 943.5 c 128,-1,17
 361 960 361 960 421 969.5 c 128,-1,18
 481 979 481 979 530 979 c 0,19,20
 619 979 619 979 683.5 957 c 128,-1,21
 748 935 748 935 789.5 899 c 128,-1,22
 831 863 831 863 850.5 816 c 128,-1,23
 870 769 870 769 870 719 c 256,24,25
 870 669 870 669 848.5 609.5 c 128,-1,26
 827 550 827 550 776 496 c 0,27,28
 770 489 770 489 768 484.5 c 128,-1,29
 766 480 766 480 766 475 c 0,30,31
 766 466 766 466 786 463 c 0,32,33
 844 458 844 458 898.5 435 c 128,-1,34
 953 412 953 412 994 375.5 c 128,-1,35
 1035 339 1035 339 1060 290 c 128,-1,36
 1085 241 1085 241 1085 186 c 0,37,38
 1085 109 1085 109 1055.5 51.5 c 128,-1,39
 1026 -6 1026 -6 974 -44 c 128,-1,40
 922 -82 922 -82 850.5 -100.5 c 128,-1,41
 779 -119 779 -119 696 -119 c 0,42,43
 631 -119 631 -119 565.5 -107.5 c 128,-1,44
 500 -96 500 -96 438 -78 c 0,45,46
 434 -76 434 -76 426 -76 c 0,47,48
 409 -76 409 -76 399 -96 c 0,49,50
 382 -130 382 -130 350.5 -149 c 128,-1,51
 319 -168 319 -168 287 -168 c 0,52,53
 258 -168 258 -168 236 -149.5 c 128,-1,54
 214 -131 214 -131 209 -88 c 0,0,1
403 293 m 0,55,56
 381 285 381 285 381 262 c 0,57,58
 381 259 381 259 383.5 240 c 128,-1,59
 386 221 386 221 390 199 c 0,60,61
 394 173 394 173 399 143 c 0,62,63
 402 117 402 117 426 111 c 0,64,65
 457 102 457 102 494 92.5 c 128,-1,66
 531 83 531 83 571 75 c 128,-1,67
 611 67 611 67 652 62 c 128,-1,68
 693 57 693 57 731 57 c 0,69,70
 760 57 760 57 787 63.5 c 128,-1,71
 814 70 814 70 835 84 c 128,-1,72
 856 98 856 98 868.5 119.5 c 128,-1,73
 881 141 881 141 881 172 c 0,74,75
 881 217 881 217 856 248 c 128,-1,76
 831 279 831 279 793 298 c 128,-1,77
 755 317 755 317 710 325.5 c 128,-1,78
 665 334 665 334 625 334 c 0,79,80
 571 334 571 334 515.5 322 c 128,-1,81
 460 310 460 310 403 293 c 0,55,56
326 770 m 0,82,83
 315 767 315 767 309 763 c 128,-1,84
 303 759 303 759 303 748 c 256,85,86
 303 737 303 737 307.5 708.5 c 128,-1,87
 312 680 312 680 318.5 644 c 128,-1,88
 325 608 325 608 332.5 569.5 c 128,-1,89
 340 531 340 531 346 500 c 0,90,91
 348 481 348 481 354.5 474 c 128,-1,92
 361 467 361 467 371 467 c 0,93,94
 377 467 377 467 386.5 469.5 c 128,-1,95
 396 472 396 472 412 477 c 0,96,97
 453 490 453 490 498.5 506.5 c 128,-1,98
 544 523 544 523 581.5 546 c 128,-1,99
 619 569 619 569 643.5 600.5 c 128,-1,100
 668 632 668 632 668 674 c 0,101,102
 668 707 668 707 654 729.5 c 128,-1,103
 640 752 640 752 615 766.5 c 128,-1,104
 590 781 590 781 557 787 c 128,-1,105
 524 793 524 793 485 793 c 0,106,107
 445 793 445 793 404.5 787 c 128,-1,108
 364 781 364 781 326 770 c 0,82,83
EndSplineSet
Validated: 1
EndChar

StartChar: C
Encoding: 35 67 38
Width: 1110
GlyphClass: 2
Flags: W
LayerCount: 2
Fore
SplineSet
504 872 m 0,0,1
 448 872 448 872 400.5 845.5 c 128,-1,2
 353 819 353 819 317.5 772.5 c 128,-1,3
 282 726 282 726 262 663 c 128,-1,4
 242 600 242 600 242 528 c 0,5,6
 242 454 242 454 275.5 391.5 c 128,-1,7
 309 329 309 329 368.5 282.5 c 128,-1,8
 428 236 428 236 508.5 210 c 128,-1,9
 589 184 589 184 684 184 c 0,10,11
 753 184 753 184 814.5 196.5 c 128,-1,12
 876 209 876 209 922 230 c 128,-1,13
 968 251 968 251 995 279.5 c 128,-1,14
 1022 308 1022 308 1022 340 c 0,15,16
 1022 365 1022 365 1013 381.5 c 128,-1,17
 1004 398 1004 398 992.5 411.5 c 128,-1,18
 981 425 981 425 972 438.5 c 128,-1,19
 963 452 963 452 963 473 c 0,20,21
 963 493 963 493 973 511 c 128,-1,22
 983 529 983 529 1000.5 543 c 128,-1,23
 1018 557 1018 557 1040.5 565 c 128,-1,24
 1063 573 1063 573 1087 573 c 0,25,26
 1116 573 1116 573 1141.5 558 c 128,-1,27
 1167 543 1167 543 1185.5 516.5 c 128,-1,28
 1204 490 1204 490 1214.5 454.5 c 128,-1,29
 1225 419 1225 419 1225 379 c 0,30,31
 1225 298 1225 298 1182 228.5 c 128,-1,32
 1139 159 1139 159 1063 109 c 128,-1,33
 987 59 987 59 883 30.5 c 128,-1,34
 779 2 779 2 657 2 c 0,35,36
 522 2 522 2 408 38.5 c 128,-1,37
 294 75 294 75 211.5 140 c 128,-1,38
 129 205 129 205 83 294 c 128,-1,39
 37 383 37 383 37 489 c 0,40,41
 37 605 37 605 77.5 708 c 128,-1,42
 118 811 118 811 188 888 c 128,-1,43
 258 965 258 965 351.5 1010 c 128,-1,44
 445 1055 445 1055 551 1055 c 0,45,46
 598 1055 598 1055 637.5 1044.5 c 128,-1,47
 677 1034 677 1034 706 1015 c 128,-1,48
 735 996 735 996 751.5 970.5 c 128,-1,49
 768 945 768 945 768 915 c 0,50,51
 768 891 768 891 757.5 869.5 c 128,-1,52
 747 848 747 848 730 831.5 c 128,-1,53
 713 815 713 815 690.5 805 c 128,-1,54
 668 795 668 795 643 795 c 0,55,56
 617 795 617 795 601.5 807 c 128,-1,57
 586 819 586 819 573 833.5 c 128,-1,58
 560 848 560 848 545 860 c 128,-1,59
 530 872 530 872 504 872 c 0,0,1
EndSplineSet
Validated: 1
EndChar

StartChar: D
Encoding: 36 68 39
Width: 1335
GlyphClass: 2
Flags: W
LayerCount: 2
Fore
SplineSet
-14 764 m 0,0,1
 -27 762 -27 762 -36 761 c 128,-1,2
 -45 760 -45 760 -51 760 c 0,3,4
 -85 762 -85 762 -99 779.5 c 128,-1,5
 -113 797 -113 797 -113 838 c 0,6,7
 -113 919 -113 919 -35 940 c 0,8,9
 34 956 34 956 113 963.5 c 128,-1,10
 192 971 192 971 289 971 c 0,11,12
 419 971 419 971 547.5 946 c 128,-1,13
 676 921 676 921 792.5 877.5 c 128,-1,14
 909 834 909 834 1009 774.5 c 128,-1,15
 1109 715 1109 715 1182.5 645.5 c 128,-1,16
 1256 576 1256 576 1297.5 499.5 c 128,-1,17
 1339 423 1339 423 1339 346 c 0,18,19
 1339 268 1339 268 1286.5 197.5 c 128,-1,20
 1234 127 1234 127 1145 73 c 128,-1,21
 1056 19 1056 19 939 -13 c 128,-1,22
 822 -45 822 -45 694 -45 c 0,23,24
 592 -45 592 -45 481 -26 c 128,-1,25
 370 -7 370 -7 236 35 c 0,26,27
 174 52 174 52 174 111 c 0,28,29
 174 124 174 124 180 135 c 128,-1,30
 186 146 186 146 192.5 156 c 128,-1,31
 199 166 199 166 205 175.5 c 128,-1,32
 211 185 211 185 211 195 c 0,33,34
 211 252 211 252 205.5 317 c 128,-1,35
 200 382 200 382 190.5 447 c 128,-1,36
 181 512 181 512 168.5 571.5 c 128,-1,37
 156 631 156 631 143 677 c 128,-1,38
 130 723 130 723 116.5 750.5 c 128,-1,39
 103 778 103 778 92 778 c 0,40,41
 75 778 75 778 50.5 774 c 128,-1,42
 26 770 26 770 -14 764 c 0,0,1
371 780 m 0,43,44
 342 780 342 780 342 760 c 0,45,46
 342 755 342 755 345 743 c 128,-1,47
 348 731 348 731 354 705 c 0,48,49
 363 663 363 663 371 615 c 128,-1,50
 379 567 379 567 387 507.5 c 128,-1,51
 395 448 395 448 402.5 374.5 c 128,-1,52
 410 301 410 301 418 209 c 0,53,54
 419 194 419 194 445 180.5 c 128,-1,55
 471 167 471 167 514 156.5 c 128,-1,56
 557 146 557 146 612.5 139.5 c 128,-1,57
 668 133 668 133 727 133 c 0,58,59
 805 133 805 133 876.5 151.5 c 128,-1,60
 948 170 948 170 1002.5 201 c 128,-1,61
 1057 232 1057 232 1089.5 273 c 128,-1,62
 1122 314 1122 314 1122 358 c 0,63,64
 1122 431 1122 431 1064.5 500 c 128,-1,65
 1007 569 1007 569 906 625.5 c 128,-1,66
 805 682 805 682 668 722.5 c 128,-1,67
 531 763 531 763 371 780 c 0,43,44
EndSplineSet
Validated: 1
EndChar

StartChar: E
Encoding: 37 69 40
Width: 1276
GlyphClass: 2
Flags: W
AnchorPoint: "tones" 658 1074 basechar 0
LayerCount: 2
Fore
SplineSet
160 246 m 0,0,1
 157 246 157 246 150.5 245 c 128,-1,2
 144 244 144 244 136.5 243 c 128,-1,3
 129 242 129 242 122 241 c 128,-1,4
 115 240 115 240 111 240 c 0,5,6
 83 240 83 240 62 263.5 c 128,-1,7
 41 287 41 287 41 326 c 0,8,9
 41 352 41 352 58 376 c 128,-1,10
 75 400 75 400 111 416 c 0,11,12
 122 421 122 421 128.5 427.5 c 128,-1,13
 135 434 135 434 135 446 c 0,14,15
 135 478 135 478 133.5 514.5 c 128,-1,16
 132 551 132 551 129 600 c 0,17,18
 128 610 128 610 122.5 619 c 128,-1,19
 117 628 117 628 110.5 639.5 c 128,-1,20
 104 651 104 651 99 665 c 128,-1,21
 94 679 94 679 94 700 c 0,22,23
 94 719 94 719 99.5 743.5 c 128,-1,24
 105 768 105 768 122.5 789.5 c 128,-1,25
 140 811 140 811 171.5 825.5 c 128,-1,26
 203 840 203 840 254 840 c 0,27,28
 275 840 275 840 289 836 c 128,-1,29
 303 832 303 832 313.5 826.5 c 128,-1,30
 324 821 324 821 332.5 817 c 128,-1,31
 341 813 341 813 350 813 c 0,32,33
 366 813 366 813 414 819 c 128,-1,34
 462 825 462 825 529.5 836 c 128,-1,35
 597 847 597 847 678.5 861 c 128,-1,36
 760 875 760 875 844 891.5 c 128,-1,37
 928 908 928 908 1008 925 c 128,-1,38
 1088 942 1088 942 1153 958 c 0,39,40
 1173 963 1173 963 1188 963 c 0,41,42
 1209 963 1209 963 1221.5 953.5 c 128,-1,43
 1234 944 1234 944 1240 930 c 128,-1,44
 1246 916 1246 916 1247.5 898.5 c 128,-1,45
 1249 881 1249 881 1249 866 c 0,46,47
 1249 840 1249 840 1231.5 817.5 c 128,-1,48
 1214 795 1214 795 1174 782 c 0,49,50
 1075 753 1075 753 974.5 731.5 c 128,-1,51
 874 710 874 710 772 692.5 c 128,-1,52
 670 675 670 675 567 661 c 128,-1,53
 464 647 464 647 362 633 c 0,54,55
 348 631 348 631 341 622.5 c 128,-1,56
 334 614 334 614 334 600 c 2,57,-1
 334 559 l 2,58,59
 334 542 334 542 335 524 c 128,-1,60
 336 506 336 506 339.5 491 c 128,-1,61
 343 476 343 476 349 466.5 c 128,-1,62
 355 457 355 457 365 457 c 0,63,64
 389 457 389 457 439.5 467 c 128,-1,65
 490 477 490 477 553.5 491.5 c 128,-1,66
 617 506 617 506 686.5 523.5 c 128,-1,67
 756 541 756 541 818 555.5 c 128,-1,68
 880 570 880 570 927 580 c 128,-1,69
 974 590 974 590 993 590 c 0,70,71
 1021 590 1021 590 1035.5 569.5 c 128,-1,72
 1050 549 1050 549 1055 518 c 0,73,74
 1055 513 1055 513 1056 509 c 128,-1,75
 1057 505 1057 505 1057 500 c 0,76,77
 1057 471 1057 471 1039.5 446.5 c 128,-1,78
 1022 422 1022 422 977 410 c 0,79,80
 965 406 965 406 929 397.5 c 128,-1,81
 893 389 893 389 844 377.5 c 128,-1,82
 795 366 795 366 738 353 c 128,-1,83
 681 340 681 340 626 327.5 c 128,-1,84
 571 315 571 315 523.5 303.5 c 128,-1,85
 476 292 476 292 446 285 c 0,86,87
 419 278 419 278 413.5 274 c 128,-1,88
 408 270 408 270 408 264 c 0,89,90
 410 242 410 242 430.5 223 c 128,-1,91
 451 204 451 204 482.5 188 c 128,-1,92
 514 172 514 172 553.5 159 c 128,-1,93
 593 146 593 146 635.5 137.5 c 128,-1,94
 678 129 678 129 719 124 c 128,-1,95
 760 119 760 119 795 119 c 0,96,97
 810 119 810 119 838 119 c 128,-1,98
 866 119 866 119 899.5 120.5 c 128,-1,99
 933 122 933 122 968.5 125 c 128,-1,100
 1004 128 1004 128 1032.5 133.5 c 128,-1,101
 1061 139 1061 139 1079.5 147.5 c 128,-1,102
 1098 156 1098 156 1098 168 c 0,103,104
 1098 179 1098 179 1090.5 191 c 128,-1,105
 1083 203 1083 203 1083 217 c 0,106,107
 1083 237 1083 237 1094 256.5 c 128,-1,108
 1105 276 1105 276 1122.5 291.5 c 128,-1,109
 1140 307 1140 307 1162.5 316.5 c 128,-1,110
 1185 326 1185 326 1208 326 c 0,111,112
 1237 326 1237 326 1261 314.5 c 128,-1,113
 1285 303 1285 303 1302.5 284.5 c 128,-1,114
 1320 266 1320 266 1329.5 242 c 128,-1,115
 1339 218 1339 218 1339 193 c 0,116,117
 1339 127 1339 127 1290.5 79 c 128,-1,118
 1242 31 1242 31 1164 -0.5 c 128,-1,119
 1086 -32 1086 -32 988 -47.5 c 128,-1,120
 890 -63 890 -63 791 -63 c 0,121,122
 675 -63 675 -63 579 -47.5 c 128,-1,123
 483 -32 483 -32 407 2 c 128,-1,124
 331 36 331 36 276 90.5 c 128,-1,125
 221 145 221 145 186 223 c 0,126,127
 174 246 174 246 160 246 c 0,0,1
EndSplineSet
Validated: 1048577
EndChar

StartChar: F
Encoding: 38 70 41
Width: 1049
GlyphClass: 2
Flags: W
LayerCount: 2
Fore
SplineSet
240 731 m 0,0,1
 221 731 221 731 196 724.5 c 128,-1,2
 171 718 171 718 144 709.5 c 128,-1,3
 117 701 117 701 90.5 694.5 c 128,-1,4
 64 688 64 688 43 688 c 0,5,6
 21 688 21 688 8.5 695.5 c 128,-1,7
 -4 703 -4 703 -10 715 c 128,-1,8
 -16 727 -16 727 -17 741 c 128,-1,9
 -18 755 -18 755 -18 768 c 0,10,11
 -18 806 -18 806 4.5 830 c 128,-1,12
 27 854 27 854 69 870.5 c 128,-1,13
 111 887 111 887 170.5 898.5 c 128,-1,14
 230 910 230 910 305 924 c 0,15,16
 423 946 423 946 520.5 958 c 128,-1,17
 618 970 618 970 706.5 975.5 c 128,-1,18
 795 981 795 981 880 982 c 128,-1,19
 965 983 965 983 1059 983 c 0,20,21
 1087 983 1087 983 1103 976 c 128,-1,22
 1119 969 1119 969 1126.5 958 c 128,-1,23
 1134 947 1134 947 1135.5 933 c 128,-1,24
 1137 919 1137 919 1137 905 c 0,25,26
 1137 889 1137 889 1132.5 870.5 c 128,-1,27
 1128 852 1128 852 1117.5 836.5 c 128,-1,28
 1107 821 1107 821 1089.5 811 c 128,-1,29
 1072 801 1072 801 1047 801 c 2,30,-1
 967 801 l 2,31,32
 919 801 919 801 865 800.5 c 128,-1,33
 811 800 811 800 758 798.5 c 128,-1,34
 705 797 705 797 656.5 794 c 128,-1,35
 608 791 608 791 570.5 785.5 c 128,-1,36
 533 780 533 780 511 772 c 128,-1,37
 489 764 489 764 489 752 c 256,38,39
 489 740 489 740 498 712 c 128,-1,40
 507 684 507 684 520 651.5 c 128,-1,41
 533 619 533 619 546.5 587.5 c 128,-1,42
 560 556 560 556 569 535 c 0,43,44
 577 518 577 518 587 512 c 128,-1,45
 597 506 597 506 614 506 c 0,46,47
 655 506 655 506 698 511 c 128,-1,48
 741 516 741 516 784.5 522.5 c 128,-1,49
 828 529 828 529 871.5 534 c 128,-1,50
 915 539 915 539 958 539 c 0,51,52
 982 539 982 539 997.5 530.5 c 128,-1,53
 1013 522 1013 522 1022 509.5 c 128,-1,54
 1031 497 1031 497 1034.5 483 c 128,-1,55
 1038 469 1038 469 1038 459 c 0,56,57
 1038 414 1038 414 1010 391.5 c 128,-1,58
 982 369 982 369 934 358 c 128,-1,59
 886 347 886 347 822.5 343 c 128,-1,60
 759 339 759 339 688 332 c 2,61,-1
 664 330 l 2,62,63
 651 328 651 328 644 321 c 128,-1,64
 637 314 637 314 637 303 c 0,65,66
 637 300 637 300 638 298 c 128,-1,67
 639 296 639 296 639 293 c 0,68,69
 648 260 648 260 660 219.5 c 128,-1,70
 672 179 672 179 682.5 139 c 128,-1,71
 693 99 693 99 700 63 c 128,-1,72
 707 27 707 27 707 4 c 0,73,74
 707 -42 707 -42 672.5 -66 c 128,-1,75
 638 -90 638 -90 575 -90 c 0,76,77
 552 -90 552 -90 530.5 -79.5 c 128,-1,78
 509 -69 509 -69 504 -41 c 0,79,80
 488 41 488 41 468 119.5 c 128,-1,81
 448 198 448 198 426 276 c 0,82,83
 417 303 417 303 391 303 c 0,84,85
 361 303 361 303 323.5 305 c 128,-1,86
 286 307 286 307 247 313 c 128,-1,87
 208 319 208 319 171.5 328.5 c 128,-1,88
 135 338 135 338 106.5 354 c 128,-1,89
 78 370 78 370 60.5 392 c 128,-1,90
 43 414 43 414 43 444 c 0,91,92
 43 463 43 463 52 481.5 c 128,-1,93
 61 500 61 500 75 514.5 c 128,-1,94
 89 529 89 529 105.5 538 c 128,-1,95
 122 547 122 547 137 547 c 0,96,97
 155 547 155 547 176 538 c 128,-1,98
 197 529 197 529 221 518 c 128,-1,99
 245 507 245 507 272.5 498 c 128,-1,100
 300 489 300 489 332 489 c 0,101,102
 348 489 348 489 348 506 c 0,103,104
 348 522 348 522 342.5 548 c 128,-1,105
 337 574 337 574 328 602.5 c 128,-1,106
 319 631 319 631 307.5 658.5 c 128,-1,107
 296 686 296 686 283 705 c 0,108,109
 275 717 275 717 266.5 724 c 128,-1,110
 258 731 258 731 240 731 c 0,0,1
EndSplineSet
Validated: 1
EndChar

StartChar: G
Encoding: 39 71 42
Width: 1292
GlyphClass: 2
Flags: W
LayerCount: 2
Fore
SplineSet
498 1034 m 0,0,1
 519 1047 519 1047 541 1052 c 128,-1,2
 563 1057 563 1057 582 1057 c 0,3,4
 607 1057 607 1057 627 1048.5 c 128,-1,5
 647 1040 647 1040 661 1027 c 128,-1,6
 675 1014 675 1014 682.5 997.5 c 128,-1,7
 690 981 690 981 690 965 c 0,8,9
 690 943 690 943 675.5 923 c 128,-1,10
 661 903 661 903 635 889 c 0,11,12
 583 859 583 859 548 838 c 128,-1,13
 513 817 513 817 488.5 800 c 128,-1,14
 464 783 464 783 446 768 c 128,-1,15
 428 753 428 753 410 735 c 0,16,17
 384 711 384 711 360 680 c 128,-1,18
 336 649 336 649 317.5 618.5 c 128,-1,19
 299 588 299 588 287.5 560 c 128,-1,20
 276 532 276 532 276 514 c 0,21,22
 276 499 276 499 284 490 c 128,-1,23
 292 481 292 481 307 481 c 0,24,25
 323 481 323 481 342 492 c 0,26,27
 403 526 403 526 470.5 553 c 128,-1,28
 538 580 538 580 607 599 c 128,-1,29
 676 618 676 618 745 627.5 c 128,-1,30
 814 637 814 637 879 637 c 0,31,32
 982 637 982 637 1068 614.5 c 128,-1,33
 1154 592 1154 592 1216 552 c 128,-1,34
 1278 512 1278 512 1312 455.5 c 128,-1,35
 1346 399 1346 399 1346 332 c 0,36,37
 1346 257 1346 257 1303 188 c 128,-1,38
 1260 119 1260 119 1185 67 c 128,-1,39
 1110 15 1110 15 1008 -16 c 128,-1,40
 906 -47 906 -47 788 -47 c 0,41,42
 631 -47 631 -47 500.5 -14.5 c 128,-1,43
 370 18 370 18 276.5 76 c 128,-1,44
 183 134 183 134 131.5 214.5 c 128,-1,45
 80 295 80 295 80 391 c 0,46,47
 80 486 80 486 106.5 577.5 c 128,-1,48
 133 669 133 669 185.5 751.5 c 128,-1,49
 238 834 238 834 316 905.5 c 128,-1,50
 394 977 394 977 498 1034 c 0,0,1
1145 297 m 256,51,52
 1145 331 1145 331 1123.5 359 c 128,-1,53
 1102 387 1102 387 1063.5 407 c 128,-1,54
 1025 427 1025 427 970.5 438 c 128,-1,55
 916 449 916 449 850 449 c 0,56,57
 725 449 725 449 605.5 414.5 c 128,-1,58
 486 380 486 380 381 315 c 0,59,60
 356 299 356 299 356 276 c 0,61,62
 356 260 356 260 374 243.5 c 128,-1,63
 392 227 392 227 423 212 c 128,-1,64
 454 197 454 197 496 183 c 128,-1,65
 538 169 538 169 585 159 c 128,-1,66
 632 149 632 149 682 143 c 128,-1,67
 732 137 732 137 780 137 c 0,68,69
 857 137 857 137 923.5 149.5 c 128,-1,70
 990 162 990 162 1039.5 183.5 c 128,-1,71
 1089 205 1089 205 1117 234 c 128,-1,72
 1145 263 1145 263 1145 297 c 256,51,52
EndSplineSet
Validated: 1
EndChar

StartChar: H
Encoding: 40 72 43
Width: 1169
GlyphClass: 2
Flags: W
LayerCount: 2
Fore
SplineSet
705 758 m 0,0,1
 705 769 705 769 700 791 c 128,-1,2
 695 813 695 813 688 841.5 c 128,-1,3
 681 870 681 870 672 902.5 c 128,-1,4
 663 935 663 935 656 966 c 128,-1,5
 649 997 649 997 644 1024 c 128,-1,6
 639 1051 639 1051 639 1069 c 0,7,8
 639 1092 639 1092 652 1106.5 c 128,-1,9
 665 1121 665 1121 685 1129 c 128,-1,10
 705 1137 705 1137 728 1140 c 128,-1,11
 751 1143 751 1143 772 1143 c 0,12,13
 798 1143 798 1143 822.5 1128.5 c 128,-1,14
 847 1114 847 1114 856 1077 c 0,15,16
 867 1038 867 1038 874.5 998.5 c 128,-1,17
 882 959 882 959 888 921.5 c 128,-1,18
 894 884 894 884 899.5 849 c 128,-1,19
 905 814 905 814 911 784 c 0,20,21
 917 760 917 760 926.5 746 c 128,-1,22
 936 732 936 732 949.5 724.5 c 128,-1,23
 963 717 963 717 978.5 715 c 128,-1,24
 994 713 994 713 1012 713 c 0,25,26
 1032 713 1032 713 1055 717 c 128,-1,27
 1078 721 1078 721 1100 721 c 0,28,29
 1114 721 1114 721 1127.5 716.5 c 128,-1,30
 1141 712 1141 712 1152 700.5 c 128,-1,31
 1163 689 1163 689 1169.5 669 c 128,-1,32
 1176 649 1176 649 1176 618 c 0,33,34
 1176 592 1176 592 1166 574.5 c 128,-1,35
 1156 557 1156 557 1128 551 c 2,36,-1
 1092 543 l 2,37,38
 1075 540 1075 540 1060.5 538.5 c 128,-1,39
 1046 537 1046 537 1024 535 c 0,40,41
 977 530 977 530 977 494 c 0,42,43
 977 491 977 491 981 467 c 128,-1,44
 985 443 985 443 991.5 407.5 c 128,-1,45
 998 372 998 372 1006 329.5 c 128,-1,46
 1014 287 1014 287 1021.5 248 c 128,-1,47
 1029 209 1029 209 1035 178.5 c 128,-1,48
 1041 148 1041 148 1044 135 c 0,49,50
 1049 113 1049 113 1052 101 c 128,-1,51
 1055 89 1055 89 1055 68 c 0,52,53
 1055 52 1055 52 1046 36.5 c 128,-1,54
 1037 21 1037 21 1019.5 9 c 128,-1,55
 1002 -3 1002 -3 977 -10.5 c 128,-1,56
 952 -18 952 -18 920 -18 c 0,57,58
 885 -18 885 -18 869.5 3.5 c 128,-1,59
 854 25 854 25 848 53 c 0,60,61
 835 105 835 105 823.5 160 c 128,-1,62
 812 215 812 215 801.5 269 c 128,-1,63
 791 323 791 323 781.5 374.5 c 128,-1,64
 772 426 772 426 764 473 c 0,65,66
 759 495 759 495 746 505.5 c 128,-1,67
 733 516 733 516 713 516 c 0,68,69
 645 516 645 516 576.5 511.5 c 128,-1,70
 508 507 508 507 442 504 c 0,71,72
 419 502 419 502 406 489 c 128,-1,73
 393 476 393 476 393 455 c 0,74,75
 393 408 393 408 394 362 c 128,-1,76
 395 316 395 316 395 268 c 0,77,78
 395 213 395 213 393.5 155 c 128,-1,79
 392 97 392 97 389 43 c 0,80,81
 387 23 387 23 377.5 10 c 128,-1,82
 368 -3 368 -3 353.5 -11 c 128,-1,83
 339 -19 339 -19 320.5 -22 c 128,-1,84
 302 -25 302 -25 283 -25 c 0,85,86
 236 -25 236 -25 210 -9.5 c 128,-1,87
 184 6 184 6 184 43 c 0,88,89
 184 99 184 99 187 160 c 128,-1,90
 190 221 190 221 190 283 c 0,91,92
 190 325 190 325 189 364.5 c 128,-1,93
 188 404 188 404 188 446 c 0,94,95
 188 465 188 465 179.5 474.5 c 128,-1,96
 171 484 171 484 159 490 c 128,-1,97
 147 496 147 496 132 501.5 c 128,-1,98
 117 507 117 507 105 518 c 128,-1,99
 93 529 93 529 84.5 550 c 128,-1,100
 76 571 76 571 76 608 c 0,101,102
 76 628 76 628 83.5 639.5 c 128,-1,103
 91 651 91 651 102.5 658 c 128,-1,104
 114 665 114 665 127 669.5 c 128,-1,105
 140 674 140 674 151.5 681 c 128,-1,106
 163 688 163 688 170.5 698.5 c 128,-1,107
 178 709 178 709 178 729 c 0,108,109
 178 741 178 741 177 757.5 c 128,-1,110
 176 774 176 774 175 789 c 128,-1,111
 174 804 174 804 173 815.5 c 128,-1,112
 172 827 172 827 172 831 c 0,113,114
 172 865 172 865 181.5 885.5 c 128,-1,115
 191 906 191 906 205 916.5 c 128,-1,116
 219 927 219 927 236.5 930.5 c 128,-1,117
 254 934 254 934 270 934 c 0,118,119
 330 934 330 934 353.5 911.5 c 128,-1,120
 377 889 377 889 379 846 c 2,121,-1
 383 741 l 2,122,123
 385 717 385 717 396 704.5 c 128,-1,124
 407 692 407 692 432 692 c 2,125,-1
 659 700 l 2,126,127
 688 702 688 702 696.5 716 c 128,-1,128
 705 730 705 730 705 758 c 0,0,1
EndSplineSet
Validated: 1
EndChar

StartChar: I
Encoding: 41 73 44
Width: 492
GlyphClass: 2
Flags: W
AnchorPoint: "tones" 218 1215 basechar 0
LayerCount: 2
Fore
SplineSet
102 934 m 0,0,1
 102 952 102 952 111 967.5 c 128,-1,2
 120 983 120 983 136 994.5 c 128,-1,3
 152 1006 152 1006 173.5 1013 c 128,-1,4
 195 1020 195 1020 219 1020 c 0,5,6
 266 1020 266 1020 288 1005 c 128,-1,7
 310 990 310 990 315 958 c 0,8,9
 332 825 332 825 343.5 706.5 c 128,-1,10
 355 588 355 588 362 480.5 c 128,-1,11
 369 373 369 373 372 274.5 c 128,-1,12
 375 176 375 176 375 84 c 0,13,14
 375 34 375 34 339.5 9 c 128,-1,15
 304 -16 304 -16 236 -16 c 0,16,17
 205 -16 205 -16 187.5 -1.5 c 128,-1,18
 170 13 170 13 170 41 c 0,19,20
 170 213 170 213 159.5 363.5 c 128,-1,21
 149 514 149 514 136 631 c 128,-1,22
 123 748 123 748 112.5 826.5 c 128,-1,23
 102 905 102 905 102 934 c 0,0,1
EndSplineSet
Validated: 1048577
EndChar

StartChar: J
Encoding: 42 74 45
Width: 1085
GlyphClass: 2
Flags: W
LayerCount: 2
Fore
SplineSet
162 809 m 0,0,1
 142 811 142 811 124 822 c 128,-1,2
 106 833 106 833 92.5 850.5 c 128,-1,3
 79 868 79 868 71 889.5 c 128,-1,4
 63 911 63 911 63 934 c 0,5,6
 63 963 63 963 77.5 980 c 128,-1,7
 92 997 92 997 115 997 c 0,8,9
 128 997 128 997 157 994 c 128,-1,10
 186 991 186 991 225.5 986.5 c 128,-1,11
 265 982 265 982 311.5 976.5 c 128,-1,12
 358 971 358 971 406.5 966.5 c 128,-1,13
 455 962 455 962 502 959 c 128,-1,14
 549 956 549 956 590 956 c 0,15,16
 613 956 613 956 631.5 961.5 c 128,-1,17
 650 967 650 967 670 979 c 0,18,19
 705 1004 705 1004 750.5 1018 c 128,-1,20
 796 1032 796 1032 846 1032 c 0,21,22
 895 1032 895 1032 950 1014.5 c 128,-1,23
 1005 997 1005 997 1051.5 970.5 c 128,-1,24
 1098 944 1098 944 1128.5 912 c 128,-1,25
 1159 880 1159 880 1159 852 c 0,26,27
 1159 830 1159 830 1149.5 815 c 128,-1,28
 1140 800 1140 800 1115 790.5 c 128,-1,29
 1090 781 1090 781 1046.5 774.5 c 128,-1,30
 1003 768 1003 768 936 764 c 0,31,32
 913 762 913 762 902 750.5 c 128,-1,33
 891 739 891 739 891 719 c 0,34,35
 891 701 891 701 900.5 657.5 c 128,-1,36
 910 614 910 614 921.5 550.5 c 128,-1,37
 933 487 933 487 942.5 405.5 c 128,-1,38
 952 324 952 324 952 231 c 0,39,40
 952 136 952 136 925.5 58.5 c 128,-1,41
 899 -19 899 -19 850 -74 c 128,-1,42
 801 -129 801 -129 732 -158.5 c 128,-1,43
 663 -188 663 -188 578 -188 c 0,44,45
 503 -188 503 -188 432.5 -166 c 128,-1,46
 362 -144 362 -144 300 -105 c 128,-1,47
 238 -66 238 -66 186.5 -11 c 128,-1,48
 135 44 135 44 98 110 c 128,-1,49
 61 176 61 176 40.5 251 c 128,-1,50
 20 326 20 326 20 406 c 0,51,52
 20 443 20 443 42 467.5 c 128,-1,53
 64 492 64 492 98 492 c 0,54,55
 129 492 129 492 157 485 c 128,-1,56
 185 478 185 478 205.5 465 c 128,-1,57
 226 452 226 452 238 435 c 128,-1,58
 250 418 250 418 250 399 c 0,59,60
 250 318 250 318 279.5 244 c 128,-1,61
 309 170 309 170 359 114 c 128,-1,62
 409 58 409 58 475 25 c 128,-1,63
 541 -8 541 -8 614 -8 c 0,64,65
 679 -8 679 -8 714.5 40.5 c 128,-1,66
 750 89 750 89 750 180 c 0,67,68
 750 295 750 295 731 424.5 c 128,-1,69
 712 554 712 554 674 707 c 0,70,71
 659 761 659 761 614 764 c 0,72,73
 494 770 494 770 381 781 c 128,-1,74
 268 792 268 792 162 809 c 0,0,1
EndSplineSet
Validated: 1
EndChar

StartChar: K
Encoding: 43 75 46
Width: 1128
GlyphClass: 2
Flags: W
LayerCount: 2
Fore
SplineSet
983 946 m 0,0,1
 983 907 983 907 957.5 873 c 128,-1,2
 932 839 932 839 893.5 807 c 128,-1,3
 855 775 855 775 810 745 c 128,-1,4
 765 715 765 715 726.5 684 c 128,-1,5
 688 653 688 653 662.5 621 c 128,-1,6
 637 589 637 589 637 553 c 0,7,8
 637 523 637 523 679 495 c 128,-1,9
 721 467 721 467 800 439 c 128,-1,10
 879 411 879 411 991 381.5 c 128,-1,11
 1103 352 1103 352 1243 319 c 0,12,13
 1313 300 1313 300 1313 248 c 0,14,15
 1313 228 1313 228 1303.5 209 c 128,-1,16
 1294 190 1294 190 1278 175.5 c 128,-1,17
 1262 161 1262 161 1241.5 152 c 128,-1,18
 1221 143 1221 143 1200 143 c 0,19,20
 1150 143 1150 143 1086.5 158 c 128,-1,21
 1023 173 1023 173 955 195 c 128,-1,22
 887 217 887 217 819 243.5 c 128,-1,23
 751 270 751 270 691.5 292 c 128,-1,24
 632 314 632 314 586.5 329 c 128,-1,25
 541 344 541 344 518 344 c 0,26,27
 500 344 500 344 483.5 327.5 c 128,-1,28
 467 311 467 311 453.5 282 c 128,-1,29
 440 253 440 253 431 213.5 c 128,-1,30
 422 174 422 174 418 127 c 0,31,32
 413 74 413 74 380.5 48.5 c 128,-1,33
 348 23 348 23 291 23 c 0,34,35
 232 23 232 23 223 78 c 0,36,37
 208 162 208 162 186.5 249 c 128,-1,38
 165 336 165 336 139.5 423 c 128,-1,39
 114 510 114 510 84.5 595 c 128,-1,40
 55 680 55 680 23 758 c 0,41,42
 15 775 15 775 11.5 789.5 c 128,-1,43
 8 804 8 804 8 819 c 0,44,45
 8 832 8 832 16 843.5 c 128,-1,46
 24 855 24 855 38 864 c 128,-1,47
 52 873 52 873 70.5 878 c 128,-1,48
 89 883 89 883 109 883 c 0,49,50
 150 883 150 883 174 866 c 128,-1,51
 198 849 198 849 223 815 c 0,52,53
 235 799 235 799 246 772.5 c 128,-1,54
 257 746 257 746 267 716 c 128,-1,55
 277 686 277 686 287 655.5 c 128,-1,56
 297 625 297 625 306.5 600.5 c 128,-1,57
 316 576 316 576 325.5 560.5 c 128,-1,58
 335 545 335 545 344 545 c 0,59,60
 352 545 352 545 357.5 552 c 128,-1,61
 363 559 363 559 371 573 c 0,62,63
 423 681 423 681 485 770.5 c 128,-1,64
 547 860 547 860 612 923.5 c 128,-1,65
 677 987 677 987 742.5 1022 c 128,-1,66
 808 1057 808 1057 868 1057 c 0,67,68
 892 1057 892 1057 913 1048.5 c 128,-1,69
 934 1040 934 1040 949.5 1025 c 128,-1,70
 965 1010 965 1010 974 989.5 c 128,-1,71
 983 969 983 969 983 946 c 0,0,1
EndSplineSet
Validated: 1
EndChar

StartChar: L
Encoding: 44 76 47
Width: 750
GlyphClass: 2
Flags: W
LayerCount: 2
Fore
SplineSet
342 -68 m 0,0,1
 313 -73 313 -73 290 -79.5 c 128,-1,2
 267 -86 267 -86 233 -86 c 0,3,4
 196 -86 196 -86 176 -65 c 128,-1,5
 156 -44 156 -44 156 -18 c 0,6,7
 156 3 156 3 163 36.5 c 128,-1,8
 170 70 170 70 170 104 c 0,9,10
 163 233 163 233 151.5 359.5 c 128,-1,11
 140 486 140 486 129 591 c 128,-1,12
 118 696 118 696 110 770.5 c 128,-1,13
 102 845 102 845 102 872 c 0,14,15
 102 890 102 890 111 905.5 c 128,-1,16
 120 921 120 921 136 933 c 128,-1,17
 152 945 152 945 173.5 951.5 c 128,-1,18
 195 958 195 958 219 958 c 0,19,20
 266 958 266 958 288 943.5 c 128,-1,21
 310 929 310 929 315 897 c 0,22,23
 343 682 343 682 355.5 502.5 c 128,-1,24
 368 323 368 323 373 166 c 0,25,26
 373 143 373 143 385.5 131 c 128,-1,27
 398 119 398 119 418 119 c 0,28,29
 458 119 458 119 499 123.5 c 128,-1,30
 540 128 540 128 581 133 c 128,-1,31
 622 138 622 138 662.5 142.5 c 128,-1,32
 703 147 703 147 741 147 c 0,33,34
 766 147 766 147 781.5 141 c 128,-1,35
 797 135 797 135 805.5 125 c 128,-1,36
 814 115 814 115 816.5 102.5 c 128,-1,37
 819 90 819 90 819 78 c 0,38,39
 819 59 819 59 815 40 c 128,-1,40
 811 21 811 21 801 5.5 c 128,-1,41
 791 -10 791 -10 774 -20.5 c 128,-1,42
 757 -31 757 -31 731 -33 c 0,43,44
 608 -45 608 -45 506.5 -51 c 128,-1,45
 405 -57 405 -57 342 -68 c 0,0,1
EndSplineSet
Validated: 1
EndChar

StartChar: M
Encoding: 45 77 48
Width: 1421
GlyphClass: 2
Flags: W
LayerCount: 2
Fore
SplineSet
1053 545 m 0,0,1
 1041 545 1041 545 1032 526 c 0,2,3
 994 452 994 452 951.5 392 c 128,-1,4
 909 332 909 332 866 290 c 128,-1,5
 823 248 823 248 781 225.5 c 128,-1,6
 739 203 739 203 702 203 c 0,7,8
 666 203 666 203 635.5 218.5 c 128,-1,9
 605 234 605 234 569.5 277 c 128,-1,10
 534 320 534 320 488.5 396 c 128,-1,11
 443 472 443 472 377 594 c 0,12,13
 366 614 366 614 354.5 623.5 c 128,-1,14
 343 633 343 633 334 633 c 0,15,16
 321 633 321 633 310 605.5 c 128,-1,17
 299 578 299 578 291 528.5 c 128,-1,18
 283 479 283 479 278.5 409.5 c 128,-1,19
 274 340 274 340 274 256 c 0,20,21
 274 206 274 206 279.5 156 c 128,-1,22
 285 106 285 106 285 53 c 0,23,24
 285 35 285 35 275 19.5 c 128,-1,25
 265 4 265 4 248.5 -7.5 c 128,-1,26
 232 -19 232 -19 209.5 -26 c 128,-1,27
 187 -33 187 -33 162 -33 c 0,28,29
 112 -33 112 -33 90 27 c 128,-1,30
 68 87 68 87 68 219 c 0,31,32
 68 386 68 386 86.5 522.5 c 128,-1,33
 105 659 105 659 139.5 756.5 c 128,-1,34
 174 854 174 854 221.5 907.5 c 128,-1,35
 269 961 269 961 328 961 c 0,36,37
 380 961 380 961 427.5 901.5 c 128,-1,38
 475 842 475 842 530 709 c 0,39,40
 552 655 552 655 577.5 608 c 128,-1,41
 603 561 603 561 628.5 526.5 c 128,-1,42
 654 492 654 492 678 472.5 c 128,-1,43
 702 453 702 453 721 453 c 256,44,45
 740 453 740 453 757.5 461.5 c 128,-1,46
 775 470 775 470 797.5 498.5 c 128,-1,47
 820 527 820 527 850.5 582 c 128,-1,48
 881 637 881 637 926 729 c 0,49,50
 950 777 950 777 969 809 c 128,-1,51
 988 841 988 841 1007 860.5 c 128,-1,52
 1026 880 1026 880 1047 888.5 c 128,-1,53
 1068 897 1068 897 1094 897 c 0,54,55
 1125 897 1125 897 1155 864 c 128,-1,56
 1185 831 1185 831 1213.5 776 c 128,-1,57
 1242 721 1242 721 1269 648 c 128,-1,58
 1296 575 1296 575 1321.5 495 c 128,-1,59
 1347 415 1347 415 1371.5 332.5 c 128,-1,60
 1396 250 1396 250 1419 176 c 0,61,62
 1425 154 1425 154 1427.5 145.5 c 128,-1,63
 1430 137 1430 137 1430 125 c 0,64,65
 1430 108 1430 108 1419.5 91.5 c 128,-1,66
 1409 75 1409 75 1392 62 c 128,-1,67
 1375 49 1375 49 1353.5 41 c 128,-1,68
 1332 33 1332 33 1311 33 c 0,69,70
 1283 33 1283 33 1267.5 39.5 c 128,-1,71
 1252 46 1252 46 1243 63 c 0,72,73
 1238 72 1238 72 1226 111 c 128,-1,74
 1214 150 1214 150 1197.5 203.5 c 128,-1,75
 1181 257 1181 257 1161.5 317 c 128,-1,76
 1142 377 1142 377 1122.5 427.5 c 128,-1,77
 1103 478 1103 478 1085 511.5 c 128,-1,78
 1067 545 1067 545 1053 545 c 0,0,1
EndSplineSet
Validated: 1
EndChar

StartChar: N
Encoding: 46 78 49
Width: 1337
GlyphClass: 2
Flags: W
LayerCount: 2
Fore
SplineSet
311 500 m 0,0,1
 311 458 311 458 315 413 c 128,-1,2
 319 368 319 368 324.5 323 c 128,-1,3
 330 278 330 278 334 232.5 c 128,-1,4
 338 187 338 187 338 143 c 0,5,6
 338 94 338 94 304 63.5 c 128,-1,7
 270 33 270 33 213 33 c 0,8,9
 185 33 185 33 160.5 50 c 128,-1,10
 136 67 136 67 133 104 c 0,11,12
 128 151 128 151 123.5 209.5 c 128,-1,13
 119 268 119 268 115.5 330.5 c 128,-1,14
 112 393 112 393 109 456.5 c 128,-1,15
 106 520 106 520 104 578.5 c 128,-1,16
 102 637 102 637 101 686.5 c 128,-1,17
 100 736 100 736 100 770 c 0,18,19
 100 800 100 800 104 827 c 128,-1,20
 108 854 108 854 121 874 c 128,-1,21
 134 894 134 894 156.5 906 c 128,-1,22
 179 918 179 918 217 918 c 0,23,24
 246 918 246 918 282 897.5 c 128,-1,25
 318 877 318 877 359.5 842 c 128,-1,26
 401 807 401 807 448 761.5 c 128,-1,27
 495 716 495 716 545 666 c 128,-1,28
 595 616 595 616 647.5 564.5 c 128,-1,29
 700 513 700 513 754 467 c 0,30,31
 778 446 778 446 808.5 418 c 128,-1,32
 839 390 839 390 871.5 365 c 128,-1,33
 904 340 904 340 936.5 322.5 c 128,-1,34
 969 305 969 305 999 305 c 0,35,36
 1027 305 1027 305 1035.5 329.5 c 128,-1,37
 1044 354 1044 354 1044 408 c 0,38,39
 1044 448 1044 448 1037.5 507 c 128,-1,40
 1031 566 1031 566 1019 633 c 128,-1,41
 1007 700 1007 700 989 767.5 c 128,-1,42
 971 835 971 835 948 891 c 0,43,44
 943 903 943 903 938.5 914.5 c 128,-1,45
 934 926 934 926 934 940 c 0,46,47
 934 963 934 963 949 981 c 128,-1,48
 964 999 964 999 985 1011 c 128,-1,49
 1006 1023 1006 1023 1029 1029.5 c 128,-1,50
 1052 1036 1052 1036 1067 1036 c 0,51,52
 1100 1036 1100 1036 1126 1000.5 c 128,-1,53
 1152 965 1152 965 1171.5 908.5 c 128,-1,54
 1191 852 1191 852 1204 781.5 c 128,-1,55
 1217 711 1217 711 1225.5 640 c 128,-1,56
 1234 569 1234 569 1237.5 504.5 c 128,-1,57
 1241 440 1241 440 1241 397 c 0,58,59
 1241 316 1241 316 1234.5 254.5 c 128,-1,60
 1228 193 1228 193 1207.5 151 c 128,-1,61
 1187 109 1187 109 1148 87.5 c 128,-1,62
 1109 66 1109 66 1044 66 c 0,63,64
 992 66 992 66 935 87.5 c 128,-1,65
 878 109 878 109 819.5 145.5 c 128,-1,66
 761 182 761 182 701.5 229 c 128,-1,67
 642 276 642 276 585 327 c 128,-1,68
 528 378 528 378 474.5 429 c 128,-1,69
 421 480 421 480 375 524 c 0,70,71
 356 543 356 543 340 543 c 0,72,73
 326 543 326 543 318.5 531.5 c 128,-1,74
 311 520 311 520 311 500 c 0,0,1
EndSplineSet
Validated: 1
EndChar

StartChar: O
Encoding: 47 79 50
Width: 1233
GlyphClass: 2
Flags: W
AnchorPoint: "tones" 601 1147 basechar 0
AnchorPoint: "o_dot" 1099 1036 basechar 0
LayerCount: 2
Fore
SplineSet
555 -125 m 0,0,1
 446 -125 446 -125 354.5 -88 c 128,-1,2
 263 -51 263 -51 197 15.5 c 128,-1,3
 131 82 131 82 94 174 c 128,-1,4
 57 266 57 266 57 377 c 0,5,6
 57 437 57 437 67.5 492.5 c 128,-1,7
 78 548 78 548 96 596 c 0,8,9
 104 615 104 615 104 623 c 0,10,11
 104 633 104 633 99 642 c 128,-1,12
 94 651 94 651 88 661 c 128,-1,13
 82 671 82 671 77 682 c 128,-1,14
 72 693 72 693 72 707 c 0,15,16
 72 749 72 749 120 789.5 c 128,-1,17
 168 830 168 830 247 861.5 c 128,-1,18
 326 893 326 893 426 912.5 c 128,-1,19
 526 932 526 932 631 932 c 0,20,21
 760 932 760 932 863.5 899 c 128,-1,22
 967 866 967 866 1039.5 804.5 c 128,-1,23
 1112 743 1112 743 1151 655 c 128,-1,24
 1190 567 1190 567 1190 457 c 0,25,26
 1190 334 1190 334 1141 227.5 c 128,-1,27
 1092 121 1092 121 1006.5 43 c 128,-1,28
 921 -35 921 -35 805 -80 c 128,-1,29
 689 -125 689 -125 555 -125 c 0,0,1
989 418 m 0,30,31
 989 496 989 496 962 558 c 128,-1,32
 935 620 935 620 884 662.5 c 128,-1,33
 833 705 833 705 758.5 727.5 c 128,-1,34
 684 750 684 750 590 750 c 0,35,36
 425 750 425 750 341.5 666.5 c 128,-1,37
 258 583 258 583 258 418 c 0,38,39
 258 338 258 338 283 271.5 c 128,-1,40
 308 205 308 205 353 157.5 c 128,-1,41
 398 110 398 110 460.5 83.5 c 128,-1,42
 523 57 523 57 598 57 c 0,43,44
 684 57 684 57 756 83.5 c 128,-1,45
 828 110 828 110 879.5 158 c 128,-1,46
 931 206 931 206 960 272.5 c 128,-1,47
 989 339 989 339 989 418 c 0,30,31
EndSplineSet
Validated: 1
EndChar

StartChar: P
Encoding: 48 80 51
Width: 1130
GlyphClass: 2
Flags: W
LayerCount: 2
Fore
SplineSet
334 -115 m 0,0,1
 334 -82 334 -82 331.5 -29 c 128,-1,2
 329 24 329 24 325 88 c 128,-1,3
 321 152 321 152 316 224 c 128,-1,4
 311 296 311 296 305 367 c 128,-1,5
 299 438 299 438 293.5 504.5 c 128,-1,6
 288 571 288 571 283 625 c 0,7,8
 275 702 275 702 261 738 c 128,-1,9
 247 774 247 774 215 774 c 0,10,11
 185 774 185 774 175.5 757 c 128,-1,12
 166 740 166 740 164.5 715 c 128,-1,13
 163 690 163 690 163.5 660.5 c 128,-1,14
 164 631 164 631 154.5 606 c 128,-1,15
 145 581 145 581 119 564 c 128,-1,16
 93 547 93 547 39 547 c 0,17,18
 1 547 1 547 -26 578.5 c 128,-1,19
 -53 610 -53 610 -53 670 c 0,20,21
 -53 754 -53 754 -3.5 822.5 c 128,-1,22
 46 891 46 891 136 939.5 c 128,-1,23
 226 988 226 988 353 1015 c 128,-1,24
 480 1042 480 1042 635 1042 c 0,25,26
 746 1042 746 1042 840 1017.5 c 128,-1,27
 934 993 934 993 1002.5 949.5 c 128,-1,28
 1071 906 1071 906 1110 846.5 c 128,-1,29
 1149 787 1149 787 1149 717 c 0,30,31
 1149 638 1149 638 1103 566 c 128,-1,32
 1057 494 1057 494 976.5 434 c 128,-1,33
 896 374 896 374 787 329.5 c 128,-1,34
 678 285 678 285 553 260 c 0,35,36
 518 254 518 254 518 217 c 0,37,38
 518 192 518 192 521.5 154.5 c 128,-1,39
 525 117 525 117 528.5 76 c 128,-1,40
 532 35 532 35 535.5 -5 c 128,-1,41
 539 -45 539 -45 539 -76 c 0,42,43
 539 -132 539 -132 513 -156 c 128,-1,44
 487 -180 487 -180 436 -180 c 0,45,46
 388 -180 388 -180 361 -163.5 c 128,-1,47
 334 -147 334 -147 334 -115 c 0,0,1
942 688 m 0,48,49
 942 722 942 722 913 753 c 128,-1,50
 884 784 884 784 835 808 c 128,-1,51
 786 832 786 832 721.5 846 c 128,-1,52
 657 860 657 860 586 860 c 0,53,54
 551 860 551 860 527.5 857.5 c 128,-1,55
 504 855 504 855 490 849 c 128,-1,56
 476 843 476 843 470.5 833.5 c 128,-1,57
 465 824 465 824 465 809 c 0,58,59
 465 799 465 799 468 762.5 c 128,-1,60
 471 726 471 726 476 678 c 128,-1,61
 481 630 481 630 486.5 577.5 c 128,-1,62
 492 525 492 525 498 483 c 0,63,64
 501 452 501 452 506.5 442 c 128,-1,65
 512 432 512 432 524 432 c 0,66,67
 558 432 558 432 602 443.5 c 128,-1,68
 646 455 646 455 692.5 474.5 c 128,-1,69
 739 494 739 494 783.5 519.5 c 128,-1,70
 828 545 828 545 863.5 573.5 c 128,-1,71
 899 602 899 602 920.5 631.5 c 128,-1,72
 942 661 942 661 942 688 c 0,48,49
EndSplineSet
Validated: 1
EndChar

StartChar: Q
Encoding: 49 81 52
Width: 1376
GlyphClass: 2
Flags: W
LayerCount: 2
Fore
SplineSet
672 393 m 2,0,1
 666 412 666 412 666 428 c 0,2,3
 666 475 666 475 717 500 c 0,4,5
 738 510 738 510 752 516.5 c 128,-1,6
 766 523 766 523 775.5 526.5 c 128,-1,7
 785 530 785 530 791 531 c 128,-1,8
 797 532 797 532 803 532 c 0,9,10
 826 532 826 532 843 509.5 c 128,-1,11
 860 487 860 487 873.5 452.5 c 128,-1,12
 887 418 887 418 897.5 378.5 c 128,-1,13
 908 339 908 339 919.5 304.5 c 128,-1,14
 931 270 931 270 944.5 247.5 c 128,-1,15
 958 225 958 225 977 225 c 0,16,17
 998 225 998 225 1018.5 244.5 c 128,-1,18
 1039 264 1039 264 1056 294 c 128,-1,19
 1073 324 1073 324 1083.5 359 c 128,-1,20
 1094 394 1094 394 1094 426 c 0,21,22
 1094 528 1094 528 1055 608.5 c 128,-1,23
 1016 689 1016 689 954 745 c 128,-1,24
 892 801 892 801 813.5 830.5 c 128,-1,25
 735 860 735 860 657 860 c 0,26,27
 564 860 564 860 504 838 c 128,-1,28
 444 816 444 816 409.5 774.5 c 128,-1,29
 375 733 375 733 361.5 673 c 128,-1,30
 348 613 348 613 348 537 c 0,31,32
 348 479 348 479 370 423.5 c 128,-1,33
 392 368 392 368 434 321 c 128,-1,34
 476 274 476 274 537 238 c 128,-1,35
 598 202 598 202 676 184 c 0,36,37
 681 182 681 182 684 182 c 128,-1,38
 687 182 687 182 692 182 c 0,39,40
 708 182 708 182 717.5 192 c 128,-1,41
 727 202 727 202 727 217 c 0,42,43
 727 222 727 222 726 226.5 c 128,-1,44
 725 231 725 231 723 238 c 2,45,-1
 672 393 l 2,0,1
141 530 m 0,46,47
 141 541 141 541 142 557 c 128,-1,48
 143 573 143 573 143 590 c 0,49,50
 143 606 143 606 141 622 c 128,-1,51
 139 638 139 638 133.5 651.5 c 128,-1,52
 128 665 128 665 118 674.5 c 128,-1,53
 108 684 108 684 92 686 c 0,54,55
 74 688 74 688 62.5 700.5 c 128,-1,56
 51 713 51 713 51 731 c 0,57,58
 51 758 51 758 70 784 c 0,59,60
 116 854 116 854 181.5 903.5 c 128,-1,61
 247 953 247 953 325 984 c 128,-1,62
 403 1015 403 1015 489 1029.5 c 128,-1,63
 575 1044 575 1044 662 1044 c 0,64,65
 732 1044 732 1044 806 1027.5 c 128,-1,66
 880 1011 880 1011 950.5 978 c 128,-1,67
 1021 945 1021 945 1084 897 c 128,-1,68
 1147 849 1147 849 1194 785.5 c 128,-1,69
 1241 722 1241 722 1268.5 644.5 c 128,-1,70
 1296 567 1296 567 1296 475 c 0,71,72
 1296 398 1296 398 1278 334 c 128,-1,73
 1260 270 1260 270 1227.5 218 c 128,-1,74
 1195 166 1195 166 1149 125.5 c 128,-1,75
 1103 85 1103 85 1047 57 c 0,76,77
 1014 43 1014 43 1014 12 c 0,78,79
 1014 9 1014 9 1014 5.5 c 128,-1,80
 1014 2 1014 2 1015 -1 c 0,81,82
 1015 -5 1015 -5 1016 -8 c 0,83,84
 1021 -35 1021 -35 1029.5 -74.5 c 128,-1,85
 1038 -114 1038 -114 1046.5 -156.5 c 128,-1,86
 1055 -199 1055 -199 1061 -238.5 c 128,-1,87
 1067 -278 1067 -278 1067 -305 c 0,88,89
 1067 -367 1067 -367 997 -383 c 0,90,91
 976 -388 976 -388 957 -390.5 c 128,-1,92
 938 -393 938 -393 932 -393 c 0,93,94
 871 -393 871 -393 862 -322 c 0,95,96
 853 -253 853 -253 839.5 -187 c 128,-1,97
 826 -121 826 -121 811 -55 c 0,98,99
 805 -32 805 -32 794.5 -22 c 128,-1,100
 784 -12 784 -12 770 -12 c 2,101,-1
 741 -12 l 2,102,103
 608 -12 608 -12 498 31.5 c 128,-1,104
 388 75 388 75 308.5 149.5 c 128,-1,105
 229 224 229 224 185 322 c 128,-1,106
 141 420 141 420 141 530 c 0,46,47
EndSplineSet
Validated: 1
EndChar

StartChar: R
Encoding: 50 82 53
Width: 1073
GlyphClass: 2
Flags: W
LayerCount: 2
Fore
SplineSet
367 758 m 0,0,1
 347 750 347 750 328 750 c 0,2,3
 280 750 280 750 262 807 c 0,4,5
 257 822 257 822 255.5 832 c 128,-1,6
 254 842 254 842 254 850 c 0,7,8
 254 897 254 897 307 920 c 0,9,10
 412 962 412 962 521 988 c 128,-1,11
 630 1014 630 1014 741 1014 c 0,12,13
 793 1014 793 1014 843.5 1003 c 128,-1,14
 894 992 894 992 934 965 c 128,-1,15
 974 938 974 938 999 893 c 128,-1,16
 1024 848 1024 848 1024 780 c 0,17,18
 1024 732 1024 732 1004.5 688 c 128,-1,19
 985 644 985 644 953 604 c 128,-1,20
 921 564 921 564 880 528 c 128,-1,21
 839 492 839 492 796 462 c 128,-1,22
 753 432 753 432 711 407.5 c 128,-1,23
 669 383 669 383 635 365 c 0,24,25
 606 348 606 348 606 330 c 0,26,27
 606 309 606 309 637 297 c 0,28,29
 744 259 744 259 856 226 c 128,-1,30
 968 193 968 193 1083 152 c 0,31,32
 1137 132 1137 132 1137 90 c 0,33,34
 1137 70 1137 70 1125.5 49.5 c 128,-1,35
 1114 29 1114 29 1100 12 c 0,36,37
 1071 -31 1071 -31 1028 -31 c 0,38,39
 1013 -31 1013 -31 991 -25 c 0,40,41
 926 0 926 0 851.5 27 c 128,-1,42
 777 54 777 54 699.5 80.5 c 128,-1,43
 622 107 622 107 547 131.5 c 128,-1,44
 472 156 472 156 408 176 c 0,45,46
 385 182 385 182 377 182 c 256,47,48
 369 182 369 182 364.5 178.5 c 128,-1,49
 360 175 360 175 360 164 c 0,50,51
 360 161 360 161 361 156.5 c 128,-1,52
 362 152 362 152 362 147 c 0,53,54
 365 132 365 132 369.5 107.5 c 128,-1,55
 374 83 374 83 378.5 57 c 128,-1,56
 383 31 383 31 386 7.5 c 128,-1,57
 389 -16 389 -16 389 -31 c 0,58,59
 389 -87 389 -87 328 -109 c 2,60,-1
 283 -123 l 2,61,62
 273 -126 273 -126 265 -127.5 c 128,-1,63
 257 -129 257 -129 248 -129 c 0,64,65
 193 -129 193 -129 184 -61 c 0,66,67
 160 121 160 121 122.5 298 c 128,-1,68
 85 475 85 475 37 651 c 0,69,70
 34 661 34 661 33.5 668.5 c 128,-1,71
 33 676 33 676 33 682 c 0,72,73
 33 735 33 735 90 754 c 0,74,75
 111 761 111 761 124.5 765 c 128,-1,76
 138 769 138 769 146.5 771.5 c 128,-1,77
 155 774 155 774 159.5 775 c 128,-1,78
 164 776 164 776 168 776 c 0,79,80
 222 776 222 776 238 715 c 0,81,82
 259 637 259 637 277.5 564 c 128,-1,83
 296 491 296 491 311 420 c 0,84,85
 319 385 319 385 340 385 c 0,86,87
 346 385 346 385 354 387.5 c 128,-1,88
 362 390 362 390 373 395 c 0,89,90
 405 412 405 412 450.5 437 c 128,-1,91
 496 462 496 462 545.5 492.5 c 128,-1,92
 595 523 595 523 643.5 557 c 128,-1,93
 692 591 692 591 730.5 625 c 128,-1,94
 769 659 769 659 793 692 c 128,-1,95
 817 725 817 725 817 754 c 0,96,97
 817 772 817 772 811.5 787 c 128,-1,98
 806 802 806 802 791 813 c 128,-1,99
 776 824 776 824 750.5 830 c 128,-1,100
 725 836 725 836 686 836 c 0,101,102
 648 836 648 836 606.5 829.5 c 128,-1,103
 565 823 565 823 524 812 c 128,-1,104
 483 801 483 801 443 787 c 128,-1,105
 403 773 403 773 367 758 c 0,0,1
EndSplineSet
Validated: 1
EndChar

StartChar: S
Encoding: 51 83 54
Width: 950
GlyphClass: 2
Flags: W
LayerCount: 2
Fore
SplineSet
283 410 m 0,0,1
 283 350 283 350 312.5 298.5 c 128,-1,2
 342 247 342 247 390 208.5 c 128,-1,3
 438 170 438 170 500 148.5 c 128,-1,4
 562 127 562 127 627 127 c 0,5,6
 647 127 647 127 668 130.5 c 128,-1,7
 689 134 689 134 706 143 c 128,-1,8
 723 152 723 152 734 166.5 c 128,-1,9
 745 181 745 181 745 203 c 0,10,11
 745 245 745 245 715.5 286 c 128,-1,12
 686 327 686 327 638 367.5 c 128,-1,13
 590 408 590 408 528 448.5 c 128,-1,14
 466 489 466 489 402 529 c 128,-1,15
 338 569 338 569 276 609.5 c 128,-1,16
 214 650 214 650 166 690.5 c 128,-1,17
 118 731 118 731 88.5 772.5 c 128,-1,18
 59 814 59 814 59 856 c 0,19,20
 59 896 59 896 79.5 930.5 c 128,-1,21
 100 965 100 965 134 993 c 128,-1,22
 168 1021 168 1021 213 1043 c 128,-1,23
 258 1065 258 1065 307 1080 c 128,-1,24
 356 1095 356 1095 405.5 1102.5 c 128,-1,25
 455 1110 455 1110 500 1110 c 0,26,27
 533 1110 533 1110 572.5 1108.5 c 128,-1,28
 612 1107 612 1107 646.5 1099.5 c 128,-1,29
 681 1092 681 1092 704 1077 c 128,-1,30
 727 1062 727 1062 727 1034 c 0,31,32
 727 1025 727 1025 724 1011.5 c 128,-1,33
 721 998 721 998 707 967 c 0,34,35
 693 938 693 938 674.5 923.5 c 128,-1,36
 656 909 656 909 627 909 c 0,37,38
 586 909 586 909 540.5 918.5 c 128,-1,39
 495 928 495 928 449 928 c 0,40,41
 424 928 424 928 398.5 925.5 c 128,-1,42
 373 923 373 923 352 916.5 c 128,-1,43
 331 910 331 910 318 897.5 c 128,-1,44
 305 885 305 885 305 866 c 256,45,46
 305 847 305 847 332.5 823 c 128,-1,47
 360 799 360 799 405.5 770 c 128,-1,48
 451 741 451 741 509 706.5 c 128,-1,49
 567 672 567 672 627.5 632.5 c 128,-1,50
 688 593 688 593 746 548.5 c 128,-1,51
 804 504 804 504 849.5 454.5 c 128,-1,52
 895 405 895 405 922.5 350 c 128,-1,53
 950 295 950 295 950 236 c 0,54,55
 950 164 950 164 917 109 c 128,-1,56
 884 54 884 54 832 17 c 128,-1,57
 780 -20 780 -20 717 -38.5 c 128,-1,58
 654 -57 654 -57 594 -57 c 0,59,60
 533 -57 533 -57 470.5 -42.5 c 128,-1,61
 408 -28 408 -28 350 -1.5 c 128,-1,62
 292 25 292 25 241.5 62.5 c 128,-1,63
 191 100 191 100 154 146.5 c 128,-1,64
 117 193 117 193 95.5 247 c 128,-1,65
 74 301 74 301 74 360 c 0,66,67
 74 385 74 385 77.5 410.5 c 128,-1,68
 81 436 81 436 90 455.5 c 128,-1,69
 99 475 99 475 115 487.5 c 128,-1,70
 131 500 131 500 156 500 c 0,71,72
 164 500 164 500 174 498.5 c 128,-1,73
 184 497 184 497 209 489 c 0,74,75
 238 480 238 480 260.5 460.5 c 128,-1,76
 283 441 283 441 283 410 c 0,0,1
EndSplineSet
Validated: 1
EndChar

StartChar: T
Encoding: 52 84 55
Width: 788
GlyphClass: 2
Flags: W
LayerCount: 2
Fore
SplineSet
258 831 m 0,0,1
 250 831 250 831 227.5 827.5 c 128,-1,2
 205 824 205 824 175 819 c 128,-1,3
 145 814 145 814 112 807.5 c 128,-1,4
 79 801 79 801 50 796 c 128,-1,5
 21 791 21 791 -0.5 787.5 c 128,-1,6
 -22 784 -22 784 -29 784 c 0,7,8
 -96 784 -96 784 -96 854 c 0,9,10
 -96 873 -96 873 -92.5 891.5 c 128,-1,11
 -89 910 -89 910 -80 925.5 c 128,-1,12
 -71 941 -71 941 -56 952 c 128,-1,13
 -41 963 -41 963 -18 967 c 0,14,15
 99 985 99 985 215 1005 c 128,-1,16
 331 1025 331 1025 449 1047 c 0,17,18
 475 1052 475 1052 496 1056.5 c 128,-1,19
 517 1061 517 1061 543 1069 c 0,20,21
 571 1077 571 1077 604 1084.5 c 128,-1,22
 637 1092 637 1092 670.5 1098 c 128,-1,23
 704 1104 704 1104 735.5 1108 c 128,-1,24
 767 1112 767 1112 793 1112 c 0,25,26
 825 1112 825 1112 841.5 1091.5 c 128,-1,27
 858 1071 858 1071 858 1034 c 0,28,29
 858 1015 858 1015 855 997.5 c 128,-1,30
 852 980 852 980 844 966 c 128,-1,31
 836 952 836 952 822 943 c 128,-1,32
 808 934 808 934 786 932 c 0,33,34
 729 924 729 924 664 912.5 c 128,-1,35
 599 901 599 901 551 887 c 0,36,37
 531 881 531 881 521 867.5 c 128,-1,38
 511 854 511 854 508 834 c 0,39,40
 505 815 505 815 504.5 795.5 c 128,-1,41
 504 776 504 776 504 758 c 0,42,43
 504 716 504 716 507.5 674 c 128,-1,44
 511 632 511 632 514 590 c 0,45,46
 523 446 523 446 541.5 305 c 128,-1,47
 560 164 560 164 582 20 c 0,48,49
 584 15 584 15 584 10 c 128,-1,50
 584 5 584 5 584 0 c 0,51,52
 584 -55 584 -55 522 -78 c 2,53,-1
 477 -92 l 2,54,55
 459 -98 459 -98 442 -98 c 0,56,57
 416 -98 416 -98 400 -81.5 c 128,-1,58
 384 -65 384 -65 379 -33 c 0,59,60
 351 139 351 139 330 309.5 c 128,-1,61
 309 480 309 480 303 653 c 0,62,63
 301 681 301 681 300 714 c 128,-1,64
 299 747 299 747 299 782 c 0,65,66
 299 831 299 831 258 831 c 0,0,1
EndSplineSet
Validated: 1
EndChar

StartChar: U
Encoding: 53 85 56
Width: 1182
GlyphClass: 2
Flags: W
AnchorPoint: "tones" 519 1188 basechar 0
LayerCount: 2
Fore
SplineSet
94 823 m 0,0,1
 100 858 100 858 128 875.5 c 128,-1,2
 156 893 156 893 221 893 c 0,3,4
 256 893 256 893 275.5 875 c 128,-1,5
 295 857 295 857 295 825 c 0,6,7
 295 820 295 820 294 816 c 128,-1,8
 293 812 293 812 293 807 c 0,9,10
 282 742 282 742 275 672 c 128,-1,11
 268 602 268 602 268 530 c 0,12,13
 268 437 268 437 284.5 354.5 c 128,-1,14
 301 272 301 272 343.5 210.5 c 128,-1,15
 386 149 386 149 459.5 113.5 c 128,-1,16
 533 78 533 78 647 78 c 0,17,18
 711 78 711 78 760 101 c 128,-1,19
 809 124 809 124 841.5 164.5 c 128,-1,20
 874 205 874 205 890.5 260 c 128,-1,21
 907 315 907 315 907 379 c 256,22,23
 907 443 907 443 893.5 505 c 128,-1,24
 880 567 880 567 857.5 627.5 c 128,-1,25
 835 688 835 688 805.5 747 c 128,-1,26
 776 806 776 806 743 866 c 0,27,28
 729 893 729 893 729 915 c 0,29,30
 729 954 729 954 770 981 c 2,31,-1
 811 1008 l 2,32,33
 838 1026 838 1026 862 1026 c 0,34,35
 899 1026 899 1026 924 981 c 0,36,37
 962 914 962 914 997 845.5 c 128,-1,38
 1032 777 1032 777 1058.5 705 c 128,-1,39
 1085 633 1085 633 1100.5 556.5 c 128,-1,40
 1116 480 1116 480 1116 399 c 0,41,42
 1116 286 1116 286 1078.5 193 c 128,-1,43
 1041 100 1041 100 972 33.5 c 128,-1,44
 903 -33 903 -33 806.5 -69.5 c 128,-1,45
 710 -106 710 -106 592 -106 c 0,46,47
 464 -106 464 -106 364.5 -61.5 c 128,-1,48
 265 -17 265 -17 197 61.5 c 128,-1,49
 129 140 129 140 94 247.5 c 128,-1,50
 59 355 59 355 59 481 c 0,51,52
 59 569 59 569 69.5 657.5 c 128,-1,53
 80 746 80 746 94 823 c 0,0,1
EndSplineSet
Validated: 1048577
EndChar

StartChar: V
Encoding: 54 86 57
Width: 1139
GlyphClass: 2
Flags: W
LayerCount: 2
Fore
SplineSet
195 383 m 0,0,1
 147 451 147 451 104.5 511.5 c 128,-1,2
 62 572 62 572 30 624.5 c 128,-1,3
 -2 677 -2 677 -20.5 721 c 128,-1,4
 -39 765 -39 765 -39 801 c 0,5,6
 -39 819 -39 819 -23.5 840.5 c 128,-1,7
 -8 862 -8 862 13 880.5 c 128,-1,8
 34 899 34 899 56.5 911.5 c 128,-1,9
 79 924 79 924 94 924 c 0,10,11
 130 924 130 924 156 879 c 0,12,13
 167 858 167 858 189.5 817.5 c 128,-1,14
 212 777 212 777 242 725.5 c 128,-1,15
 272 674 272 674 308.5 615.5 c 128,-1,16
 345 557 345 557 383.5 499 c 128,-1,17
 422 441 422 441 460.5 387.5 c 128,-1,18
 499 334 499 334 534.5 293 c 128,-1,19
 570 252 570 252 600.5 227.5 c 128,-1,20
 631 203 631 203 653 203 c 0,21,22
 682 203 682 203 706 243 c 128,-1,23
 730 283 730 283 750.5 348 c 128,-1,24
 771 413 771 413 787 495.5 c 128,-1,25
 803 578 803 578 815.5 663 c 128,-1,26
 828 748 828 748 837 827.5 c 128,-1,27
 846 907 846 907 852 967 c 0,28,29
 855 999 855 999 870 1015.5 c 128,-1,30
 885 1032 885 1032 909 1032 c 0,31,32
 930 1032 930 1032 955 1023 c 128,-1,33
 980 1014 980 1014 1002 998.5 c 128,-1,34
 1024 983 1024 983 1038.5 962.5 c 128,-1,35
 1053 942 1053 942 1053 918 c 0,36,37
 1053 881 1053 881 1046.5 831 c 128,-1,38
 1040 781 1040 781 1030.5 725.5 c 128,-1,39
 1021 670 1021 670 1009 612.5 c 128,-1,40
 997 555 997 555 985 504 c 0,41,42
 977 468 977 468 963.5 414.5 c 128,-1,43
 950 361 950 361 930 301.5 c 128,-1,44
 910 242 910 242 883 182.5 c 128,-1,45
 856 123 856 123 821 75.5 c 128,-1,46
 786 28 786 28 742.5 -1.5 c 128,-1,47
 699 -31 699 -31 645 -31 c 0,48,49
 606 -31 606 -31 564 -9.5 c 128,-1,50
 522 12 522 12 480 47 c 128,-1,51
 438 82 438 82 397 126.5 c 128,-1,52
 356 171 356 171 319 217 c 128,-1,53
 282 263 282 263 250 306.5 c 128,-1,54
 218 350 218 350 195 383 c 0,0,1
EndSplineSet
Validated: 1
EndChar

StartChar: W
Encoding: 55 87 58
Width: 1741
GlyphClass: 2
Flags: W
LayerCount: 2
Fore
SplineSet
33 887 m 2,0,1
 33 951 33 951 102 965 c 2,2,-1
 145 973 l 2,3,4
 152 975 152 975 157.5 975 c 128,-1,5
 163 975 163 975 168 975 c 0,6,7
 229 975 229 975 240 905 c 0,8,9
 244 871 244 871 250 819 c 128,-1,10
 256 767 256 767 265.5 705 c 128,-1,11
 275 643 275 643 287.5 575 c 128,-1,12
 300 507 300 507 316 441.5 c 128,-1,13
 332 376 332 376 352 317 c 128,-1,14
 372 258 372 258 397 213 c 128,-1,15
 422 168 422 168 451.5 141.5 c 128,-1,16
 481 115 481 115 516 115 c 0,17,18
 541 115 541 115 566.5 130 c 128,-1,19
 592 145 592 145 617 169.5 c 128,-1,20
 642 194 642 194 665 225 c 128,-1,21
 688 256 688 256 707 288 c 128,-1,22
 726 320 726 320 741.5 349.5 c 128,-1,23
 757 379 757 379 766 401 c 0,24,25
 772 420 772 420 772 436 c 0,26,27
 772 444 772 444 771 452 c 128,-1,28
 770 460 770 460 768 469 c 0,29,30
 749 531 749 531 739 593 c 128,-1,31
 729 655 729 655 729 727 c 0,32,33
 729 769 729 769 736 810 c 128,-1,34
 743 851 743 851 760 885 c 0,35,36
 769 903 769 903 787 916 c 128,-1,37
 805 929 805 929 826.5 937 c 128,-1,38
 848 945 848 945 871.5 948.5 c 128,-1,39
 895 952 895 952 915 952 c 0,40,41
 937 952 937 952 955 943.5 c 128,-1,42
 973 935 973 935 987 915 c 0,43,44
 1015 877 1015 877 1026.5 828 c 128,-1,45
 1038 779 1038 779 1038 729 c 0,46,47
 1038 675 1038 675 1028 618.5 c 128,-1,48
 1018 562 1018 562 1004 506 c 0,49,50
 997 492 997 492 997 475 c 0,51,52
 997 467 997 467 999.5 458 c 128,-1,53
 1002 449 1002 449 1006 438 c 0,54,55
 1024 391 1024 391 1048.5 342.5 c 128,-1,56
 1073 294 1073 294 1105 255 c 128,-1,57
 1137 216 1137 216 1177 191 c 128,-1,58
 1217 166 1217 166 1268 166 c 0,59,60
 1313 166 1313 166 1349 204 c 128,-1,61
 1385 242 1385 242 1409.5 300 c 128,-1,62
 1434 358 1434 358 1447 426.5 c 128,-1,63
 1460 495 1460 495 1460 557 c 0,64,65
 1460 623 1460 623 1455 687 c 128,-1,66
 1450 751 1450 751 1442 805 c 0,67,68
 1440 810 1440 810 1440 815 c 128,-1,69
 1440 820 1440 820 1440 825 c 0,70,71
 1440 882 1440 882 1501 903 c 2,72,-1
 1546 918 l 2,73,74
 1565 924 1565 924 1581 924 c 0,75,76
 1634 924 1634 924 1645 858 c 0,77,78
 1656 796 1656 796 1662.5 734 c 128,-1,79
 1669 672 1669 672 1669 610 c 0,80,81
 1669 478 1669 478 1638 362 c 128,-1,82
 1607 246 1607 246 1551.5 159.5 c 128,-1,83
 1496 73 1496 73 1420 23 c 128,-1,84
 1344 -27 1344 -27 1253 -27 c 0,85,86
 1164 -27 1164 -27 1074 26.5 c 128,-1,87
 984 80 984 80 911 197 c 0,88,89
 897 223 897 223 879 223 c 0,90,91
 862 223 862 223 848 197 c 0,92,93
 813 135 813 135 771 82.5 c 128,-1,94
 729 30 729 30 682 -8 c 128,-1,95
 635 -46 635 -46 584 -67 c 128,-1,96
 533 -88 533 -88 481 -88 c 0,97,98
 397 -88 397 -88 333.5 -42.5 c 128,-1,99
 270 3 270 3 223.5 79 c 128,-1,100
 177 155 177 155 145 253.5 c 128,-1,101
 113 352 113 352 91.5 458.5 c 128,-1,102
 70 565 70 565 56.5 672 c 128,-1,103
 43 779 43 779 33 872 c 1,104,-1
 33 887 l 2,0,1
EndSplineSet
Validated: 1
EndChar

StartChar: X
Encoding: 56 88 59
Width: 1085
GlyphClass: 2
Flags: W
LayerCount: 2
Fore
SplineSet
389 20 m 1,0,1
 367 -33 367 -33 322 -33 c 0,2,3
 304 -33 304 -33 281 -23 c 2,4,-1
 254 -10 l 2,5,6
 205 14 205 14 205 57 c 0,7,8
 205 79 205 79 213 98 c 0,9,10
 244 171 244 171 280 249.5 c 128,-1,11
 316 328 316 328 356 410 c 0,12,13
 359 418 359 418 362 425 c 128,-1,14
 365 432 365 432 365 438 c 0,15,16
 365 462 365 462 340 481 c 0,17,18
 256 544 256 544 173.5 607.5 c 128,-1,19
 91 671 91 671 6 733 c 0,20,21
 -31 759 -31 759 -31 793 c 0,22,23
 -31 807 -31 807 -26 820.5 c 128,-1,24
 -21 834 -21 834 -8 848 c 2,25,-1
 20 881 l 2,26,27
 49 915 49 915 84 915 c 0,28,29
 96 915 96 915 108.5 909.5 c 128,-1,30
 121 904 121 904 135 895 c 0,31,32
 209 841 209 841 281.5 787.5 c 128,-1,33
 354 734 354 734 426 678 c 0,34,35
 435 672 435 672 443 668 c 128,-1,36
 451 664 451 664 459 664 c 0,37,38
 481 664 481 664 498 692 c 0,39,40
 546 785 546 785 597 876 c 128,-1,41
 648 967 648 967 702 1055 c 0,42,43
 729 1096 729 1096 766 1096 c 0,44,45
 787 1096 787 1096 815 1079 c 2,46,-1
 831 1069 l 2,47,48
 872 1042 872 1042 872 1006 c 0,49,50
 872 993 872 993 868 980.5 c 128,-1,51
 864 968 864 968 856 954 c 0,52,53
 797 860 797 860 744 764 c 128,-1,54
 691 668 691 668 641 569 c 0,55,56
 638 561 638 561 635.5 555 c 128,-1,57
 633 549 633 549 633 543 c 0,58,59
 633 518 633 518 657 500 c 0,60,61
 773 410 773 410 887 319.5 c 128,-1,62
 1001 229 1001 229 1116 141 c 0,63,64
 1151 114 1151 114 1151 82 c 0,65,66
 1151 52 1151 52 1120 25 c 2,67,-1
 1085 -6 l 2,68,69
 1056 -33 1056 -33 1026 -33 c 0,70,71
 999 -33 999 -33 971 -10 c 2,72,-1
 575 299 l 2,73,74
 566 305 566 305 558.5 309 c 128,-1,75
 551 313 551 313 543 313 c 0,76,77
 519 313 519 313 504 283 c 2,78,-1
 389 20 l 1,79,-1
 389 20 l 1,0,1
EndSplineSet
Validated: 5
EndChar

StartChar: Y
Encoding: 57 89 60
Width: 950
GlyphClass: 2
Flags: W
LayerCount: 2
Fore
SplineSet
-123 856 m 0,0,1
 -158 882 -158 882 -158 918 c 0,2,3
 -158 932 -158 932 -153 945.5 c 128,-1,4
 -148 959 -148 959 -135 973 c 2,5,-1
 -106 1006 l 2,6,7
 -80 1038 -80 1038 -45 1038 c 0,8,9
 -33 1038 -33 1038 -19.5 1033.5 c 128,-1,10
 -6 1029 -6 1029 8 1018 c 0,11,12
 148 913 148 913 277.5 800.5 c 128,-1,13
 407 688 407 688 528 555 c 0,14,15
 547 537 547 537 561 537 c 0,16,17
 588 537 588 537 594 573 c 2,18,-1
 682 924 l 2,19,20
 697 983 697 983 743 983 c 0,21,22
 753 983 753 983 764.5 980 c 128,-1,23
 776 977 776 977 788 969 c 2,24,-1
 823 950 l 2,25,26
 872 923 872 923 872 877 c 0,27,28
 872 862 872 862 866 844 c 0,29,30
 832 719 832 719 797.5 580.5 c 128,-1,31
 763 442 763 442 727 296.5 c 128,-1,32
 691 151 691 151 653 2 c 128,-1,33
 615 -147 615 -147 575 -293 c 0,34,35
 559 -354 559 -354 506 -354 c 0,36,37
 491 -354 491 -354 473 -348 c 2,38,-1
 440 -338 l 2,39,40
 409 -330 409 -330 395 -312 c 128,-1,41
 381 -294 381 -294 381 -268 c 0,42,43
 381 -262 381 -262 381.5 -254 c 128,-1,44
 382 -246 382 -246 385 -238 c 0,45,46
 417 -119 417 -119 448 -2 c 128,-1,47
 479 115 479 115 508 233 c 0,48,49
 510 240 510 240 511 245 c 128,-1,50
 512 250 512 250 512 256 c 0,51,52
 512 268 512 268 506.5 279 c 128,-1,53
 501 290 501 290 492 301 c 0,54,55
 351 457 351 457 197.5 594 c 128,-1,56
 44 731 44 731 -123 856 c 0,0,1
EndSplineSet
Validated: 1
EndChar

StartChar: Z
Encoding: 58 90 61
Width: 1325
GlyphClass: 2
Flags: W
LayerCount: 2
Fore
SplineSet
137 487 m 1,0,1
 102 487 102 487 81.5 503.5 c 128,-1,2
 61 520 61 520 61 551 c 0,3,4
 61 557 61 557 62.5 563.5 c 128,-1,5
 64 570 64 570 66 578 c 2,6,-1
 72 600 l 2,7,8
 87 669 87 669 160 672 c 0,9,10
 234 674 234 674 307 675 c 128,-1,11
 380 676 380 676 453 676 c 0,12,13
 487 676 487 676 519.5 676 c 128,-1,14
 552 676 552 676 584 674 c 0,15,16
 621 674 621 674 647 700 c 2,17,-1
 705 762 l 2,18,19
 720 777 720 777 726.5 792 c 128,-1,20
 733 807 733 807 733 821 c 0,21,22
 733 840 733 840 719.5 853 c 128,-1,23
 706 866 706 866 680 868 c 0,24,25
 510 868 510 868 392.5 866 c 128,-1,26
 275 864 275 864 213 864 c 0,27,28
 137 864 137 864 137 928 c 0,29,30
 137 934 137 934 138 941 c 128,-1,31
 139 948 139 948 141 956 c 2,32,-1
 147 977 l 1,33,34
 163 1049 163 1049 238 1049 c 0,35,36
 315 1051 315 1051 392 1053 c 128,-1,37
 469 1055 469 1055 547 1055 c 0,38,39
 622 1055 622 1055 681 1053.5 c 128,-1,40
 740 1052 740 1052 787.5 1046 c 128,-1,41
 835 1040 835 1040 873 1029 c 128,-1,42
 911 1018 911 1018 946 999 c 0,43,44
 971 985 971 985 983.5 972.5 c 128,-1,45
 996 960 996 960 1004 946 c 0,46,47
 1009 937 1009 937 1012.5 927.5 c 128,-1,48
 1016 918 1016 918 1016 905 c 0,49,50
 1016 886 1016 886 1008 866 c 0,51,52
 999 841 999 841 981.5 815 c 128,-1,53
 964 789 964 789 942.5 764.5 c 128,-1,54
 921 740 921 740 898.5 717 c 128,-1,55
 876 694 876 694 858 674 c 0,56,57
 856 672 856 672 856 668 c 0,58,59
 856 658 856 658 872 652.5 c 128,-1,60
 888 647 888 647 915 645 c 0,61,62
 988 639 988 639 1059 631.5 c 128,-1,63
 1130 624 1130 624 1202 614 c 0,64,65
 1233 611 1233 611 1250.5 595.5 c 128,-1,66
 1268 580 1268 580 1268 555 c 0,67,68
 1268 536 1268 536 1257 514 c 0,69,70
 1254 508 1254 508 1251.5 502 c 128,-1,71
 1249 496 1249 496 1247 489 c 0,72,73
 1219 430 1219 430 1163 430 c 0,74,75
 1160 430 1160 430 1156 431 c 128,-1,76
 1152 432 1152 432 1147 432 c 0,77,78
 1091 440 1091 440 1023.5 446.5 c 128,-1,79
 956 453 956 453 891.5 458 c 128,-1,80
 827 463 827 463 773.5 466 c 128,-1,81
 720 469 720 469 692 469 c 0,82,83
 661 469 661 469 637 444 c 0,84,85
 596 400 596 400 562.5 360.5 c 128,-1,86
 529 321 529 321 494 272 c 0,87,88
 484 258 484 258 478.5 246 c 128,-1,89
 473 234 473 234 473 221 c 0,90,91
 473 200 473 200 489.5 184.5 c 128,-1,92
 506 169 506 169 535 166 c 0,93,94
 621 155 621 155 712.5 153.5 c 128,-1,95
 804 152 804 152 901 152 c 0,96,97
 929 152 929 152 958 153 c 128,-1,98
 987 154 987 154 1016 156 c 0,99,100
 1094 162 1094 162 1094 207 c 0,101,102
 1094 227 1094 227 1110.5 239.5 c 128,-1,103
 1127 252 1127 252 1159 252 c 0,104,105
 1181 252 1181 252 1215 244.5 c 128,-1,106
 1249 237 1249 237 1280 222 c 128,-1,107
 1311 207 1311 207 1333.5 185 c 128,-1,108
 1356 163 1356 163 1356 135 c 0,109,110
 1356 113 1356 113 1343 92 c 128,-1,111
 1330 71 1330 71 1309 53.5 c 128,-1,112
 1288 36 1288 36 1263 23.5 c 128,-1,113
 1238 11 1238 11 1214 6 c 0,114,115
 1128 -12 1128 -12 1013.5 -22.5 c 128,-1,116
 899 -33 899 -33 780 -33 c 0,117,118
 687 -33 687 -33 602 -27.5 c 128,-1,119
 517 -22 517 -22 451 -12 c 0,120,121
 415 -7 415 -7 378 0.5 c 128,-1,122
 341 8 341 8 309.5 23 c 128,-1,123
 278 38 278 38 255 63 c 128,-1,124
 232 88 232 88 225 129 c 0,125,126
 225 134 225 134 224 137 c 128,-1,127
 223 140 223 140 223 145 c 0,128,129
 223 176 223 176 239 213.5 c 128,-1,130
 255 251 255 251 280 289 c 128,-1,131
 305 327 305 327 334.5 363.5 c 128,-1,132
 364 400 364 400 391 430 c 0,133,134
 408 450 408 450 408 465 c 0,135,136
 408 477 408 477 396 484.5 c 128,-1,137
 384 492 384 492 362 492 c 2,138,-1
 137 487 l 1,139,-1
 137 487 l 1,0,1
EndSplineSet
Validated: 5
EndChar

StartChar: bracketleft
Encoding: 59 91 62
Width: 688
GlyphClass: 2
Flags: W
LayerCount: 2
Fore
SplineSet
682 -84 m 0,0,1
 750 -84 750 -84 750 -139 c 0,2,3
 750 -168 750 -168 743 -190 c 128,-1,4
 736 -212 736 -212 725 -228 c 128,-1,5
 714 -244 714 -244 700.5 -253.5 c 128,-1,6
 687 -263 687 -263 674 -266 c 0,7,8
 589 -280 589 -280 514 -289.5 c 128,-1,9
 439 -299 439 -299 367 -299 c 0,10,11
 322 -299 322 -299 286 -279.5 c 128,-1,12
 250 -260 250 -260 238 -213 c 0,13,14
 206 -52 206 -52 190.5 112 c 128,-1,15
 175 276 175 276 172 444 c 0,16,17
 169 550 169 550 166.5 654 c 128,-1,18
 164 758 164 758 164 866 c 0,19,20
 164 990 164 990 170 1072.5 c 128,-1,21
 176 1155 176 1155 197.5 1205 c 128,-1,22
 219 1255 219 1255 262 1276.5 c 128,-1,23
 305 1298 305 1298 379 1300 c 0,24,25
 450 1300 450 1300 523.5 1302.5 c 128,-1,26
 597 1305 597 1305 682 1305 c 0,27,28
 750 1305 750 1305 750 1251 c 0,29,30
 750 1196 750 1196 724 1159 c 128,-1,31
 698 1122 698 1122 657 1120 c 2,32,-1
 449 1116 l 2,33,34
 377 1116 377 1116 377 1044 c 0,35,36
 377 1005 377 1005 376.5 964 c 128,-1,37
 376 923 376 923 376 870.5 c 128,-1,38
 376 818 376 818 375.5 748.5 c 128,-1,39
 375 679 375 679 375 584 c 0,40,41
 375 537 375 537 376 464 c 128,-1,42
 377 391 377 391 380 305 c 128,-1,43
 383 219 383 219 388.5 127 c 128,-1,44
 394 35 394 35 403 -49 c 1,45,46
 422 -104 422 -104 477 -104 c 0,47,48
 528 -104 528 -104 579.5 -94 c 128,-1,49
 631 -84 631 -84 682 -84 c 0,0,1
EndSplineSet
Validated: 1
EndChar

StartChar: backslash
Encoding: 60 92 63
Width: 602
GlyphClass: 2
Flags: W
LayerCount: 2
Fore
SplineSet
274 1112 m 0,0,1
 294 988 294 988 316.5 861.5 c 128,-1,2
 339 735 339 735 366.5 590.5 c 128,-1,3
 394 446 394 446 428.5 276.5 c 128,-1,4
 463 107 463 107 508 -102 c 0,5,6
 510 -107 510 -107 510 -111.5 c 128,-1,7
 510 -116 510 -116 510 -119 c 0,8,9
 510 -139 510 -139 498.5 -150.5 c 128,-1,10
 487 -162 487 -162 465 -164 c 2,11,-1
 375 -174 l 2,12,13
 350 -174 350 -174 335 -165.5 c 128,-1,14
 320 -157 320 -157 313 -131 c 0,15,16
 241 178 241 178 183.5 487.5 c 128,-1,17
 126 797 126 797 74 1108 c 1,18,19
 74 1137 74 1137 84 1150 c 128,-1,20
 94 1163 94 1163 123 1165 c 2,21,-1
 217 1161 l 2,22,23
 265 1158 265 1158 274 1112 c 0,0,1
EndSplineSet
Validated: 1
EndChar

StartChar: bracketright
Encoding: 61 93 64
Width: 688
GlyphClass: 2
Flags: W
LayerCount: 2
Fore
SplineSet
6 1090 m 0,0,1
 -61 1090 -61 1090 -61 1145 c 0,2,3
 -61 1173 -61 1173 -54 1195.5 c 128,-1,4
 -47 1218 -47 1218 -36 1234 c 128,-1,5
 -25 1250 -25 1250 -12 1259.5 c 128,-1,6
 1 1269 1 1269 14 1272 c 0,7,8
 99 1286 99 1286 174 1295.5 c 128,-1,9
 249 1305 249 1305 322 1305 c 0,10,11
 366 1305 366 1305 402 1285.5 c 128,-1,12
 438 1266 438 1266 451 1219 c 0,13,14
 483 1058 483 1058 498 893.5 c 128,-1,15
 513 729 513 729 516 561 c 0,16,17
 519 456 519 456 521.5 352 c 128,-1,18
 524 248 524 248 524 139 c 0,19,20
 524 16 524 16 518 -67 c 128,-1,21
 512 -150 512 -150 490.5 -200 c 128,-1,22
 469 -250 469 -250 426 -272 c 128,-1,23
 383 -294 383 -294 309 -295 c 0,24,25
 238 -295 238 -295 164.5 -297 c 128,-1,26
 91 -299 91 -299 6 -299 c 0,27,28
 -61 -299 -61 -299 -61 -246 c 0,29,30
 -61 -190 -61 -190 -35.5 -153.5 c 128,-1,31
 -10 -117 -10 -117 31 -115 c 2,32,-1
 240 -111 l 2,33,34
 311 -111 311 -111 311 -39 c 0,35,36
 311 0 311 0 311.5 41.5 c 128,-1,37
 312 83 312 83 312 135.5 c 128,-1,38
 312 188 312 188 312.5 257.5 c 128,-1,39
 313 327 313 327 313 422 c 0,40,41
 313 469 313 469 312 542 c 128,-1,42
 311 615 311 615 308 700.5 c 128,-1,43
 305 786 305 786 299.5 878 c 128,-1,44
 294 970 294 970 285 1055 c 1,45,46
 266 1110 266 1110 211 1110 c 0,47,48
 160 1110 160 1110 108.5 1100 c 128,-1,49
 57 1090 57 1090 6 1090 c 0,0,1
EndSplineSet
Validated: 1
EndChar

StartChar: asciicircum
Encoding: 62 94 65
Width: 915
GlyphClass: 2
Flags: W
LayerCount: 2
Fore
SplineSet
897 508 m 0,0,1
 915 490 915 490 915 469 c 0,2,3
 915 449 915 449 901 432 c 2,4,-1
 860 377 l 2,5,6
 842 354 842 354 821 354 c 0,7,8
 803 354 803 354 784 373 c 0,9,10
 752 404 752 404 714 440 c 128,-1,11
 676 476 676 476 634.5 511 c 128,-1,12
 593 546 593 546 549.5 577 c 128,-1,13
 506 608 506 608 465 629 c 0,14,15
 457 634 457 634 449.5 635.5 c 128,-1,16
 442 637 442 637 436 637 c 0,17,18
 417 637 417 637 396 617.5 c 128,-1,19
 375 598 375 598 354 567 c 128,-1,20
 333 536 333 536 313 496.5 c 128,-1,21
 293 457 293 457 275 417 c 128,-1,22
 257 377 257 377 242.5 340 c 128,-1,23
 228 303 228 303 219 276 c 0,24,25
 207 242 207 242 180 242 c 0,26,27
 170 242 170 242 147 252.5 c 128,-1,28
 124 263 124 263 100.5 279 c 128,-1,29
 77 295 77 295 59 314 c 128,-1,30
 41 333 41 333 41 350 c 0,31,32
 41 362 41 362 50 390.5 c 128,-1,33
 59 419 59 419 75 456.5 c 128,-1,34
 91 494 91 494 113 538.5 c 128,-1,35
 135 583 135 583 160.5 627 c 128,-1,36
 186 671 186 671 215 712 c 128,-1,37
 244 753 244 753 273.5 784.5 c 128,-1,38
 303 816 303 816 332.5 835 c 128,-1,39
 362 854 362 854 389 854 c 0,40,41
 424 854 424 854 466 837.5 c 128,-1,42
 508 821 508 821 552.5 793.5 c 128,-1,43
 597 766 597 766 643.5 730.5 c 128,-1,44
 690 695 690 695 735 656.5 c 128,-1,45
 780 618 780 618 821 579.5 c 128,-1,46
 862 541 862 541 897 508 c 0,0,1
EndSplineSet
Validated: 1
EndChar

StartChar: underscore
Encoding: 63 95 66
Width: 1051
GlyphClass: 2
Flags: W
LayerCount: 2
Fore
SplineSet
0 -666 m 1,0,1
 -47 -666 -47 -666 -47 -625 c 0,2,3
 -47 -622 -47 -622 -47 -617.5 c 128,-1,4
 -47 -613 -47 -613 -45 -608 c 2,5,-1
 -25 -526 l 2,6,7
 -15 -481 -15 -481 31 -481 c 2,8,-1
 1081 -481 l 2,9,10
 1128 -481 1128 -481 1128 -522 c 0,11,12
 1128 -525 1128 -525 1128 -529.5 c 128,-1,13
 1128 -534 1128 -534 1126 -539 c 2,14,-1
 1106 -621 l 2,15,16
 1097 -666 1097 -666 1051 -666 c 2,17,-1
 0 -666 l 1,18,-1
 0 -666 l 1,0,1
EndSplineSet
Validated: 5
EndChar

StartChar: grave
Encoding: 64 96 67
Width: 868
GlyphClass: 2
Flags: W
LayerCount: 2
Fore
SplineSet
193 1245 m 0,0,1
 193 1257 193 1257 204.5 1273.5 c 128,-1,2
 216 1290 216 1290 233.5 1304.5 c 128,-1,3
 251 1319 251 1319 271 1329 c 128,-1,4
 291 1339 291 1339 309 1339 c 0,5,6
 347 1339 347 1339 389.5 1317 c 128,-1,7
 432 1295 432 1295 472.5 1259.5 c 128,-1,8
 513 1224 513 1224 549.5 1179.5 c 128,-1,9
 586 1135 586 1135 613.5 1090.5 c 128,-1,10
 641 1046 641 1046 657.5 1005.5 c 128,-1,11
 674 965 674 965 674 938 c 0,12,13
 674 926 674 926 665.5 915.5 c 128,-1,14
 657 905 657 905 643.5 897.5 c 128,-1,15
 630 890 630 890 613.5 885.5 c 128,-1,16
 597 881 597 881 580 881 c 0,17,18
 561 881 561 881 546.5 886 c 128,-1,19
 532 891 532 891 524 905 c 0,20,21
 487 967 487 967 448.5 1012.5 c 128,-1,22
 410 1058 410 1058 373 1090.5 c 128,-1,23
 336 1123 336 1123 303.5 1145.5 c 128,-1,24
 271 1168 271 1168 246.5 1185 c 128,-1,25
 222 1202 222 1202 207.5 1216 c 128,-1,26
 193 1230 193 1230 193 1245 c 0,0,1
EndSplineSet
Validated: 1
EndChar

StartChar: a
Encoding: 65 97 68
Width: 1137
GlyphClass: 2
Flags: W
AnchorPoint: "tones" 587 1079 basechar 0
LayerCount: 2
Fore
SplineSet
711 874 m 0,0,1
 766 874 766 874 817 857 c 128,-1,2
 868 840 868 840 907 810 c 128,-1,3
 946 780 946 780 969.5 738 c 128,-1,4
 993 696 993 696 993 645 c 0,5,6
 993 624 993 624 983.5 604.5 c 128,-1,7
 974 585 974 585 958 570.5 c 128,-1,8
 942 556 942 556 921.5 547.5 c 128,-1,9
 901 539 901 539 879 539 c 0,10,11
 877 539 877 539 875.5 538.5 c 128,-1,12
 874 538 874 538 872 538 c 0,13,14
 870 537 870 537 868 537 c 1,15,-1
 872 457 l 2,16,17
 876 314 876 314 912.5 248 c 128,-1,18
 949 182 949 182 1008 182 c 0,19,20
 1029 182 1029 182 1045.5 186 c 128,-1,21
 1062 190 1062 190 1076.5 195.5 c 128,-1,22
 1091 201 1091 201 1104 205 c 128,-1,23
 1117 209 1117 209 1130 209 c 0,24,25
 1153 209 1153 209 1170.5 189 c 128,-1,26
 1188 169 1188 169 1188 141 c 256,27,28
 1188 113 1188 113 1166.5 85 c 128,-1,29
 1145 57 1145 57 1110 34.5 c 128,-1,30
 1075 12 1075 12 1031 -2 c 128,-1,31
 987 -16 987 -16 942 -16 c 0,32,33
 864 -16 864 -16 805 48.5 c 128,-1,34
 746 113 746 113 721 238 c 0,35,36
 715 258 715 258 705 258 c 0,37,38
 693 258 693 258 684 246 c 0,39,40
 585 121 585 121 473 58.5 c 128,-1,41
 361 -4 361 -4 252 -4 c 0,42,43
 201 -4 201 -4 160 11 c 128,-1,44
 119 26 119 26 90.5 53.5 c 128,-1,45
 62 81 62 81 46.5 120.5 c 128,-1,46
 31 160 31 160 31 209 c 0,47,48
 31 278 31 278 61.5 354 c 128,-1,49
 92 430 92 430 144 504 c 128,-1,50
 196 578 196 578 264.5 645 c 128,-1,51
 333 712 333 712 408.5 763 c 128,-1,52
 484 814 484 814 562 844 c 128,-1,53
 640 874 640 874 711 874 c 0,0,1
678 528 m 0,54,55
 696 562 696 562 711 577.5 c 128,-1,56
 726 593 726 593 754 598 c 0,57,58
 776 601 776 601 776 612 c 0,59,60
 776 620 776 620 770 629 c 0,61,62
 751 655 751 655 730 674.5 c 128,-1,63
 709 694 709 694 674 694 c 0,64,65
 636 694 636 694 589 672 c 128,-1,66
 542 650 542 650 493.5 613.5 c 128,-1,67
 445 577 445 577 398.5 530.5 c 128,-1,68
 352 484 352 484 316 435 c 128,-1,69
 280 386 280 386 258 338 c 128,-1,70
 236 290 236 290 236 252 c 0,71,72
 236 218 236 218 254.5 199 c 128,-1,73
 273 180 273 180 305 180 c 0,74,75
 387 180 387 180 484 267 c 128,-1,76
 581 354 581 354 678 528 c 0,54,55
EndSplineSet
Validated: 1048577
EndChar

StartChar: b
Encoding: 66 98 69
Width: 1081
GlyphClass: 2
Flags: W
LayerCount: 2
Fore
SplineSet
123 231 m 0,0,1
 104 465 104 465 79.5 696 c 128,-1,2
 55 927 55 927 8 1157 c 0,3,4
 6 1165 6 1165 6 1171.5 c 128,-1,5
 6 1178 6 1178 6 1184 c 0,6,7
 6 1207 6 1207 15.5 1224 c 128,-1,8
 25 1241 25 1241 41 1252.5 c 128,-1,9
 57 1264 57 1264 77.5 1270 c 128,-1,10
 98 1276 98 1276 121 1276 c 0,11,12
 182 1276 182 1276 205 1219 c 0,13,14
 215 1190 215 1190 225.5 1136 c 128,-1,15
 236 1082 236 1082 247.5 1011 c 128,-1,16
 259 940 259 940 270 855.5 c 128,-1,17
 281 771 281 771 291 682 c 0,18,19
 294 657 294 657 307 657 c 0,20,21
 318 657 318 657 330 672 c 0,22,23
 476 864 476 864 676 864 c 0,24,25
 751 864 751 864 816 831 c 128,-1,26
 881 798 881 798 929 741 c 128,-1,27
 977 684 977 684 1004.5 606 c 128,-1,28
 1032 528 1032 528 1032 438 c 0,29,30
 1032 354 1032 354 1005.5 282 c 128,-1,31
 979 210 979 210 932 158 c 128,-1,32
 885 106 885 106 820.5 76.5 c 128,-1,33
 756 47 756 47 680 47 c 0,34,35
 586 47 586 47 496 83.5 c 128,-1,36
 406 120 406 120 326 182 c 0,37,38
 317 190 317 190 307 190 c 0,39,40
 294 190 294 190 283 176 c 0,41,42
 267 158 267 158 249 152.5 c 128,-1,43
 231 147 231 147 205 147 c 0,44,45
 126 147 126 147 123 231 c 0,0,1
641 678 m 0,46,47
 601 678 601 678 561.5 659.5 c 128,-1,48
 522 641 522 641 487 607 c 128,-1,49
 452 573 452 573 422.5 525.5 c 128,-1,50
 393 478 393 478 373 420 c 0,51,52
 371 417 371 417 370 411 c 128,-1,53
 369 405 369 405 369 401 c 0,54,55
 369 384 369 384 381 375 c 0,56,57
 417 344 417 344 455.5 317 c 128,-1,58
 494 290 494 290 532 270 c 128,-1,59
 570 250 570 250 607 238.5 c 128,-1,60
 644 227 644 227 676 227 c 0,61,62
 748 227 748 227 785.5 269 c 128,-1,63
 823 311 823 311 823 391 c 0,64,65
 823 453 823 453 809 505.5 c 128,-1,66
 795 558 795 558 771 596.5 c 128,-1,67
 747 635 747 635 713.5 656.5 c 128,-1,68
 680 678 680 678 641 678 c 0,46,47
EndSplineSet
Validated: 1
EndChar

StartChar: c
Encoding: 67 99 70
Width: 696
GlyphClass: 2
Flags: W
LayerCount: 2
Fore
SplineSet
436 825 m 0,0,1
 488 825 488 825 537 810 c 128,-1,2
 586 795 586 795 623.5 769.5 c 128,-1,3
 661 744 661 744 684 711.5 c 128,-1,4
 707 679 707 679 707 645 c 0,5,6
 707 623 707 623 698 602.5 c 128,-1,7
 689 582 689 582 674 566.5 c 128,-1,8
 659 551 659 551 640 541.5 c 128,-1,9
 621 532 621 532 600 532 c 0,10,11
 577 532 577 532 558 549.5 c 128,-1,12
 539 567 539 567 517.5 588.5 c 128,-1,13
 496 610 496 610 469.5 627.5 c 128,-1,14
 443 645 443 645 406 645 c 0,15,16
 370 645 370 645 341 628 c 128,-1,17
 312 611 312 611 292.5 580.5 c 128,-1,18
 273 550 273 550 262.5 508.5 c 128,-1,19
 252 467 252 467 252 418 c 0,20,21
 252 278 252 278 305 204.5 c 128,-1,22
 358 131 358 131 457 131 c 0,23,24
 504 131 504 131 537.5 146 c 128,-1,25
 571 161 571 161 596.5 179 c 128,-1,26
 622 197 622 197 643 212 c 128,-1,27
 664 227 664 227 686 227 c 0,28,29
 698 227 698 227 710 219.5 c 128,-1,30
 722 212 722 212 731.5 200.5 c 128,-1,31
 741 189 741 189 747.5 175 c 128,-1,32
 754 161 754 161 754 147 c 0,33,34
 754 114 754 114 721.5 79 c 128,-1,35
 689 44 689 44 638 15.5 c 128,-1,36
 587 -13 587 -13 524.5 -31 c 128,-1,37
 462 -49 462 -49 403 -49 c 0,38,39
 324 -49 324 -49 258 -18.5 c 128,-1,40
 192 12 192 12 144 66.5 c 128,-1,41
 96 121 96 121 69.5 197 c 128,-1,42
 43 273 43 273 43 365 c 0,43,44
 43 465 43 465 72.5 549 c 128,-1,45
 102 633 102 633 154.5 694.5 c 128,-1,46
 207 756 207 756 279 790.5 c 128,-1,47
 351 825 351 825 436 825 c 0,0,1
EndSplineSet
Validated: 1
EndChar

StartChar: d
Encoding: 68 100 71
Width: 1200
GlyphClass: 2
Flags: W
LayerCount: 2
Fore
SplineSet
752 731 m 0,0,1
 756 729 756 729 764 729 c 0,2,3
 786 729 786 729 786 758 c 2,4,-1
 786 1069 l 2,5,6
 786 1128 786 1128 812.5 1153 c 128,-1,7
 839 1178 839 1178 901 1178 c 0,8,9
 964 1178 964 1178 990 1152 c 128,-1,10
 1016 1126 1016 1126 1016 1063 c 0,11,12
 1016 1039 1016 1039 1013 992.5 c 128,-1,13
 1010 946 1010 946 1006.5 887 c 128,-1,14
 1003 828 1003 828 1000 760.5 c 128,-1,15
 997 693 997 693 997 627 c 0,16,17
 997 525 997 525 1011 451 c 128,-1,18
 1025 377 1025 377 1051 328.5 c 128,-1,19
 1077 280 1077 280 1113 256.5 c 128,-1,20
 1149 233 1149 233 1194 233 c 0,21,22
 1219 233 1219 233 1239.5 239.5 c 128,-1,23
 1260 246 1260 246 1288 246 c 0,24,25
 1308 246 1308 246 1321.5 225.5 c 128,-1,26
 1335 205 1335 205 1335 176 c 0,27,28
 1335 150 1335 150 1319.5 127 c 128,-1,29
 1304 104 1304 104 1277.5 87 c 128,-1,30
 1251 70 1251 70 1216 60.5 c 128,-1,31
 1181 51 1181 51 1143 51 c 0,32,33
 1061 51 1061 51 993 101.5 c 128,-1,34
 925 152 925 152 891 256 c 0,35,36
 888 272 888 272 881 272 c 0,37,38
 873 272 873 272 868 256 c 0,39,40
 841 183 841 183 797.5 124.5 c 128,-1,41
 754 66 754 66 696.5 24.5 c 128,-1,42
 639 -17 639 -17 570.5 -39 c 128,-1,43
 502 -61 502 -61 426 -61 c 0,44,45
 346 -61 346 -61 279.5 -34.5 c 128,-1,46
 213 -8 213 -8 165 39.5 c 128,-1,47
 117 87 117 87 90 151.5 c 128,-1,48
 63 216 63 216 63 291 c 0,49,50
 63 387 63 387 103 472 c 128,-1,51
 143 557 143 557 211.5 620.5 c 128,-1,52
 280 684 280 684 371 721 c 128,-1,53
 462 758 462 758 565 758 c 0,54,55
 607 758 607 758 654 751.5 c 128,-1,56
 701 745 701 745 752 731 c 0,0,1
465 119 m 0,57,58
 522 119 522 119 566.5 144 c 128,-1,59
 611 169 611 169 645.5 207.5 c 128,-1,60
 680 246 680 246 704 292.5 c 128,-1,61
 728 339 728 339 743 383 c 128,-1,62
 758 427 758 427 765 462 c 128,-1,63
 772 497 772 497 772 512 c 0,64,65
 772 523 772 523 766 531.5 c 128,-1,66
 760 540 760 540 748 545 c 0,67,68
 721 552 721 552 692 557.5 c 128,-1,69
 663 563 663 563 635 567 c 128,-1,70
 607 571 607 571 581.5 573 c 128,-1,71
 556 575 556 575 535 575 c 0,72,73
 475 575 475 575 426 557 c 128,-1,74
 377 539 377 539 342.5 506 c 128,-1,75
 308 473 308 473 289 427.5 c 128,-1,76
 270 382 270 382 270 328 c 0,77,78
 270 280 270 280 284.5 241.5 c 128,-1,79
 299 203 299 203 324.5 176 c 128,-1,80
 350 149 350 149 386 134 c 128,-1,81
 422 119 422 119 465 119 c 0,57,58
EndSplineSet
Validated: 1
EndChar

StartChar: e
Encoding: 69 101 72
Width: 1057
GlyphClass: 2
Flags: W
AnchorPoint: "tones" 546 997 basechar 0
LayerCount: 2
Fore
SplineSet
934 219 m 0,0,1
 963 244 963 244 991 244 c 0,2,3
 1007 244 1007 244 1020 236 c 128,-1,4
 1033 228 1033 228 1049 211 c 1,5,6
 1064 188 1064 188 1070.5 173.5 c 128,-1,7
 1077 159 1077 159 1077 145 c 0,8,9
 1077 115 1077 115 1047 88 c 0,10,11
 999 48 999 48 943 16.5 c 128,-1,12
 887 -15 887 -15 826 -37 c 128,-1,13
 765 -59 765 -59 700 -70.5 c 128,-1,14
 635 -82 635 -82 571 -82 c 0,15,16
 490 -82 490 -82 419 -61.5 c 128,-1,17
 348 -41 348 -41 292.5 -3 c 128,-1,18
 237 35 237 35 199 88.5 c 128,-1,19
 161 142 161 142 145 209 c 0,20,21
 136 237 136 237 128.5 245.5 c 128,-1,22
 121 254 121 254 104 254 c 0,23,24
 67 254 67 254 47 272 c 128,-1,25
 27 290 27 290 27 324 c 0,26,27
 27 338 27 338 29 342 c 2,28,-1
 31 362 l 2,29,30
 36 398 36 398 50.5 414 c 128,-1,31
 65 430 65 430 96 430 c 2,32,-1
 111 430 l 2,33,34
 153 430 153 430 170 469 c 0,35,36
 201 538 201 538 249 595 c 128,-1,37
 297 652 297 652 357 692.5 c 128,-1,38
 417 733 417 733 485.5 755.5 c 128,-1,39
 554 778 554 778 625 778 c 0,40,41
 699 778 699 778 763.5 756.5 c 128,-1,42
 828 735 828 735 876 697 c 128,-1,43
 924 659 924 659 951.5 608 c 128,-1,44
 979 557 979 557 979 498 c 0,45,46
 979 457 979 457 963 423 c 128,-1,47
 947 389 947 389 917 363.5 c 128,-1,48
 887 338 887 338 844.5 322 c 128,-1,49
 802 306 802 306 748 301 c 2,50,-1
 401 266 l 2,51,52
 381 266 381 266 368.5 256 c 128,-1,53
 356 246 356 246 356 229 c 0,54,55
 356 203 356 203 375.5 179 c 128,-1,56
 395 155 395 155 427.5 136.5 c 128,-1,57
 460 118 460 118 502.5 107 c 128,-1,58
 545 96 545 96 590 96 c 0,59,60
 633 96 633 96 678.5 104.5 c 128,-1,61
 724 113 724 113 768.5 129 c 128,-1,62
 813 145 813 145 855 167.5 c 128,-1,63
 897 190 897 190 934 219 c 0,0,1
711 477 m 0,64,65
 726 480 726 480 737 491.5 c 128,-1,66
 748 503 748 503 748 520 c 0,67,68
 748 535 748 535 737 548 c 128,-1,69
 726 561 726 561 707 571.5 c 128,-1,70
 688 582 688 582 663 588 c 128,-1,71
 638 594 638 594 610 594 c 0,72,73
 569 594 569 594 526 582 c 128,-1,74
 483 570 483 570 448 550.5 c 128,-1,75
 413 531 413 531 391 507.5 c 128,-1,76
 369 484 369 484 369 461 c 256,77,78
 369 438 369 438 397 438 c 0,79,80
 414 438 414 438 452 442 c 128,-1,81
 490 446 490 446 536 451.5 c 128,-1,82
 582 457 582 457 629 464 c 128,-1,83
 676 471 676 471 711 477 c 0,64,65
EndSplineSet
Validated: 1048577
EndChar

StartChar: f
Encoding: 70 102 73
Width: 627
GlyphClass: 2
Flags: W
LayerCount: 2
Fore
SplineSet
-2 551 m 1,0,1
 -25 553 -25 553 -39 581 c 128,-1,2
 -53 609 -53 609 -53 643 c 0,3,4
 -53 659 -53 659 -50.5 674.5 c 128,-1,5
 -48 690 -48 690 -42 702 c 128,-1,6
 -36 714 -36 714 -27 721.5 c 128,-1,7
 -18 729 -18 729 -6 729 c 0,8,9
 31 729 31 729 79 731.5 c 128,-1,10
 127 734 127 734 182 737 c 0,11,12
 210 740 210 740 213 770 c 0,13,14
 222 915 222 915 238 1020 c 128,-1,15
 254 1125 254 1125 277 1197.5 c 128,-1,16
 300 1270 300 1270 329.5 1315 c 128,-1,17
 359 1360 359 1360 395 1384 c 0,18,19
 406 1392 406 1392 421 1400.5 c 128,-1,20
 436 1409 436 1409 449 1409 c 0,21,22
 474 1409 474 1409 501.5 1396.5 c 128,-1,23
 529 1384 529 1384 552.5 1364.5 c 128,-1,24
 576 1345 576 1345 591 1320.5 c 128,-1,25
 606 1296 606 1296 606 1272 c 0,26,27
 606 1263 606 1263 602 1257.5 c 128,-1,28
 598 1252 598 1252 592 1247 c 0,29,30
 553 1218 553 1218 523 1182 c 128,-1,31
 493 1146 493 1146 472 1094 c 128,-1,32
 451 1042 451 1042 437 969 c 128,-1,33
 423 896 423 896 416 793 c 0,34,35
 416 777 416 777 421.5 769.5 c 128,-1,36
 427 762 427 762 442 762 c 0,37,38
 481 762 481 762 520.5 768 c 128,-1,39
 560 774 560 774 596 780.5 c 128,-1,40
 632 787 632 787 664 793 c 128,-1,41
 696 799 696 799 721 799 c 0,42,43
 739 799 739 799 747.5 777.5 c 128,-1,44
 756 756 756 756 756 725 c 0,45,46
 756 707 756 707 753 688 c 128,-1,47
 750 669 750 669 743.5 654 c 128,-1,48
 737 639 737 639 727 628.5 c 128,-1,49
 717 618 717 618 702 616 c 2,50,-1
 436 588 l 2,51,52
 415 585 415 585 410.5 571 c 128,-1,53
 406 557 406 557 406 532 c 0,54,55
 406 311 406 311 417 152 c 128,-1,56
 428 -7 428 -7 441.5 -115.5 c 128,-1,57
 455 -224 455 -224 466 -286.5 c 128,-1,58
 477 -349 477 -349 477 -377 c 0,59,60
 477 -398 477 -398 460.5 -415 c 128,-1,61
 444 -432 444 -432 418.5 -444 c 128,-1,62
 393 -456 393 -456 363 -462.5 c 128,-1,63
 333 -469 333 -469 307 -469 c 0,64,65
 282 -469 282 -469 262.5 -460.5 c 128,-1,66
 243 -452 243 -452 240 -432 c 0,67,68
 230 -362 230 -362 223 -278.5 c 128,-1,69
 216 -195 216 -195 211.5 -93.5 c 128,-1,70
 207 8 207 8 205 128.5 c 128,-1,71
 203 249 203 249 203 393 c 0,72,73
 203 430 203 430 203 465 c 128,-1,74
 203 500 203 500 205 535 c 0,75,76
 205 565 205 565 172 565 c 2,77,-1
 -2 551 l 1,78,-1
 -2 551 l 1,0,1
EndSplineSet
Validated: 5
EndChar

StartChar: g
Encoding: 71 103 74
Width: 1165
GlyphClass: 2
Flags: W
LayerCount: 2
Fore
SplineSet
612 780 m 0,0,1
 660 780 660 780 703 772.5 c 128,-1,2
 746 765 746 765 781 756.5 c 128,-1,3
 816 748 816 748 841 740.5 c 128,-1,4
 866 733 866 733 877 733 c 0,5,6
 886 733 886 733 894 742.5 c 128,-1,7
 902 752 902 752 914 763 c 128,-1,8
 926 774 926 774 946 783.5 c 128,-1,9
 966 793 966 793 999 793 c 0,10,11
 1037 793 1037 793 1059 773.5 c 128,-1,12
 1081 754 1081 754 1081 725 c 0,13,14
 1081 359 1081 359 1056 103.5 c 128,-1,15
 1031 -152 1031 -152 975 -312 c 128,-1,16
 919 -472 919 -472 830 -544 c 128,-1,17
 741 -616 741 -616 614 -616 c 0,18,19
 556 -616 556 -616 493.5 -590 c 128,-1,20
 431 -564 431 -564 379 -523.5 c 128,-1,21
 327 -483 327 -483 293.5 -434 c 128,-1,22
 260 -385 260 -385 260 -340 c 0,23,24
 260 -325 260 -325 276 -305 c 128,-1,25
 292 -285 292 -285 315 -266 c 128,-1,26
 338 -247 338 -247 363 -234 c 128,-1,27
 388 -221 388 -221 406 -221 c 0,28,29
 425 -221 425 -221 438 -236.5 c 128,-1,30
 451 -252 451 -252 462.5 -275 c 128,-1,31
 474 -298 474 -298 486 -325.5 c 128,-1,32
 498 -353 498 -353 516 -376 c 128,-1,33
 534 -399 534 -399 560 -414.5 c 128,-1,34
 586 -430 586 -430 625 -430 c 0,35,36
 843 -430 843 -430 881 236 c 0,37,38
 881 266 881 266 864 266 c 0,39,40
 850 266 850 266 842 252 c 0,41,42
 748 125 748 125 622.5 61.5 c 128,-1,43
 497 -2 497 -2 344 -2 c 0,44,45
 273 -2 273 -2 213 19.5 c 128,-1,46
 153 41 153 41 109.5 79.5 c 128,-1,47
 66 118 66 118 42 171.5 c 128,-1,48
 18 225 18 225 18 289 c 0,49,50
 18 352 18 352 40.5 413.5 c 128,-1,51
 63 475 63 475 103.5 529.5 c 128,-1,52
 144 584 144 584 200 630 c 128,-1,53
 256 676 256 676 322 709.5 c 128,-1,54
 388 743 388 743 461.5 761.5 c 128,-1,55
 535 780 535 780 612 780 c 0,0,1
375 182 m 0,56,57
 512 182 512 182 626 268.5 c 128,-1,58
 740 355 740 355 821 520 c 0,59,60
 823 526 823 526 824 529.5 c 128,-1,61
 825 533 825 533 825 537 c 0,62,63
 825 547 825 547 804 558 c 128,-1,64
 783 569 783 569 749 577 c 128,-1,65
 715 585 715 585 671.5 590.5 c 128,-1,66
 628 596 628 596 584 596 c 0,67,68
 513 596 513 596 447 572 c 128,-1,69
 381 548 381 548 330 508 c 128,-1,70
 279 468 279 468 248 417 c 128,-1,71
 217 366 217 366 217 311 c 0,72,73
 217 252 217 252 260.5 217 c 128,-1,74
 304 182 304 182 375 182 c 0,56,57
EndSplineSet
Validated: 1
EndChar

StartChar: h
Encoding: 72 104 75
Width: 1100
GlyphClass: 2
Flags: W
LayerCount: 2
Fore
SplineSet
55 963 m 0,0,1
 55 1071 55 1071 195 1071 c 0,2,3
 219 1071 219 1071 237 1058 c 128,-1,4
 255 1045 255 1045 258 1022 c 0,5,6
 267 961 267 961 274 901 c 128,-1,7
 281 841 281 841 287.5 766.5 c 128,-1,8
 294 692 294 692 300.5 594.5 c 128,-1,9
 307 497 307 497 315 362 c 0,10,11
 315 348 315 348 319.5 342 c 128,-1,12
 324 336 324 336 330 336 c 0,13,14
 339 336 339 336 348 354 c 0,15,16
 382 429 382 429 424 488.5 c 128,-1,17
 466 548 466 548 514 589.5 c 128,-1,18
 562 631 562 631 615.5 652.5 c 128,-1,19
 669 674 669 674 725 674 c 0,20,21
 799 674 799 674 859 632 c 128,-1,22
 919 590 919 590 961 513 c 128,-1,23
 1003 436 1003 436 1026 326.5 c 128,-1,24
 1049 217 1049 217 1049 82 c 0,25,26
 1049 45 1049 45 1043.5 21.5 c 128,-1,27
 1038 -2 1038 -2 1025 -16 c 128,-1,28
 1012 -30 1012 -30 989 -35.5 c 128,-1,29
 966 -41 966 -41 932 -41 c 0,30,31
 885 -41 885 -41 864.5 -23 c 128,-1,32
 844 -5 844 -5 844 33 c 0,33,34
 844 127 844 127 831.5 210.5 c 128,-1,35
 819 294 819 294 797 357 c 128,-1,36
 775 420 775 420 745.5 457 c 128,-1,37
 716 494 716 494 682 494 c 0,38,39
 605 494 605 494 528.5 369 c 128,-1,40
 452 244 452 244 369 -8 c 0,41,42
 361 -31 361 -31 351 -46 c 128,-1,43
 341 -61 341 -61 327.5 -70 c 128,-1,44
 314 -79 314 -79 295 -82.5 c 128,-1,45
 276 -86 276 -86 250 -86 c 0,46,47
 197 -86 197 -86 174.5 -66 c 128,-1,48
 152 -46 152 -46 150 0 c 0,49,50
 144 174 144 174 128.5 332.5 c 128,-1,51
 113 491 113 491 96.5 619.5 c 128,-1,52
 80 748 80 748 67.5 837.5 c 128,-1,53
 55 927 55 927 55 963 c 0,0,1
EndSplineSet
Validated: 1
EndChar

StartChar: i
Encoding: 73 105 76
Width: 444
GlyphClass: 2
Flags: W
AnchorPoint: "tones" 216 975 basechar 0
LayerCount: 2
Fore
SplineSet
233 1020 m 0,0,1
 204 1020 204 1020 178.5 1028.5 c 128,-1,2
 153 1037 153 1037 134.5 1052.5 c 128,-1,3
 116 1068 116 1068 105 1089 c 128,-1,4
 94 1110 94 1110 94 1135 c 0,5,6
 94 1177 94 1177 127.5 1203 c 128,-1,7
 161 1229 161 1229 217 1229 c 0,8,9
 243 1229 243 1229 267 1219.5 c 128,-1,10
 291 1210 291 1210 309.5 1194 c 128,-1,11
 328 1178 328 1178 339 1156.5 c 128,-1,12
 350 1135 350 1135 350 1112 c 0,13,14
 350 1069 350 1069 318.5 1044.5 c 128,-1,15
 287 1020 287 1020 233 1020 c 0,0,1
96 715 m 0,16,17
 96 750 96 750 126.5 772.5 c 128,-1,18
 157 795 157 795 207 795 c 0,19,20
 297 795 297 795 303 733 c 0,21,22
 307 690 307 690 311.5 636 c 128,-1,23
 316 582 316 582 320.5 521.5 c 128,-1,24
 325 461 325 461 328.5 396.5 c 128,-1,25
 332 332 332 332 335 269.5 c 128,-1,26
 338 207 338 207 340 149 c 128,-1,27
 342 91 342 91 342 43 c 0,28,29
 342 -7 342 -7 306.5 -32 c 128,-1,30
 271 -57 271 -57 203 -57 c 0,31,32
 172 -57 172 -57 154.5 -42.5 c 128,-1,33
 137 -28 137 -28 137 0 c 0,34,35
 137 138 137 138 130.5 258.5 c 128,-1,36
 124 379 124 379 116.5 473 c 128,-1,37
 109 567 109 567 102.5 629.5 c 128,-1,38
 96 692 96 692 96 715 c 0,16,17
EndSplineSet
Validated: 1048577
EndChar

StartChar: j
Encoding: 74 106 77
Width: 596
GlyphClass: 2
Flags: W
LayerCount: 2
Fore
SplineSet
162 -342 m 0,0,1
 188 -342 188 -342 205 -334.5 c 128,-1,2
 222 -327 222 -327 232 -307 c 128,-1,3
 242 -287 242 -287 246 -253 c 128,-1,4
 250 -219 250 -219 250 -166 c 0,5,6
 250 39 250 39 235.5 187 c 128,-1,7
 221 335 221 335 204 437 c 128,-1,8
 187 539 187 539 172.5 600.5 c 128,-1,9
 158 662 158 662 158 694 c 0,10,11
 158 728 158 728 189 749 c 128,-1,12
 220 770 220 770 274 772 c 0,13,14
 351 772 351 772 367 727 c 0,15,16
 388 656 388 656 405.5 563.5 c 128,-1,17
 423 471 423 471 435.5 364 c 128,-1,18
 448 257 448 257 454.5 140.5 c 128,-1,19
 461 24 461 24 461 -94 c 0,20,21
 461 -219 461 -219 446.5 -304.5 c 128,-1,22
 432 -390 432 -390 397.5 -442 c 128,-1,23
 363 -494 363 -494 307 -516.5 c 128,-1,24
 251 -539 251 -539 168 -539 c 0,25,26
 119 -539 119 -539 65.5 -526.5 c 128,-1,27
 12 -514 12 -514 -39 -493.5 c 128,-1,28
 -90 -473 -90 -473 -135.5 -445 c 128,-1,29
 -181 -417 -181 -417 -215.5 -386.5 c 128,-1,30
 -250 -356 -250 -356 -270.5 -324 c 128,-1,31
 -291 -292 -291 -292 -291 -262 c 0,32,33
 -291 -247 -291 -247 -279 -228 c 128,-1,34
 -267 -209 -267 -209 -249.5 -192.5 c 128,-1,35
 -232 -176 -232 -176 -212 -165 c 128,-1,36
 -192 -154 -192 -154 -176 -154 c 0,37,38
 -157 -154 -157 -154 -136.5 -168 c 128,-1,39
 -116 -182 -116 -182 -92.5 -203 c 128,-1,40
 -69 -224 -69 -224 -42.5 -248 c 128,-1,41
 -16 -272 -16 -272 15.5 -293 c 128,-1,42
 47 -314 47 -314 83 -328 c 128,-1,43
 119 -342 119 -342 162 -342 c 0,0,1
293 938 m 0,44,45
 264 939 264 939 239.5 948 c 128,-1,46
 215 957 215 957 197 972.5 c 128,-1,47
 179 988 179 988 168.5 1008.5 c 128,-1,48
 158 1029 158 1029 158 1053 c 0,49,50
 158 1095 158 1095 190 1121 c 128,-1,51
 222 1147 222 1147 276 1147 c 0,52,53
 303 1147 303 1147 327.5 1137.5 c 128,-1,54
 352 1128 352 1128 371 1111.5 c 128,-1,55
 390 1095 390 1095 401 1073.5 c 128,-1,56
 412 1052 412 1052 412 1028 c 0,57,58
 412 985 412 985 381 961.5 c 128,-1,59
 350 938 350 938 293 938 c 0,44,45
EndSplineSet
Validated: 1
EndChar

StartChar: k
Encoding: 75 107 78
Width: 913
GlyphClass: 2
Flags: W
LayerCount: 2
Fore
SplineSet
143 20 m 0,0,1
 143 107 143 107 138 209 c 128,-1,2
 133 311 133 311 125.5 415.5 c 128,-1,3
 118 520 118 520 109.5 620 c 128,-1,4
 101 720 101 720 93.5 803 c 128,-1,5
 86 886 86 886 81 946 c 128,-1,6
 76 1006 76 1006 76 1030 c 0,7,8
 76 1070 76 1070 106 1091 c 128,-1,9
 136 1112 136 1112 193 1112 c 0,10,11
 218 1112 218 1112 235.5 1107 c 128,-1,12
 253 1102 253 1102 264 1090 c 128,-1,13
 275 1078 275 1078 281.5 1058.5 c 128,-1,14
 288 1039 288 1039 291 1010 c 0,15,16
 295 970 295 970 298 924.5 c 128,-1,17
 301 879 301 879 304.5 821 c 128,-1,18
 308 763 308 763 312 690 c 128,-1,19
 316 617 316 617 322 522 c 0,20,21
 322 508 322 508 327 502 c 128,-1,22
 332 496 332 496 338 496 c 0,23,24
 349 496 349 496 358 514 c 0,25,26
 443 687 443 687 536 778.5 c 128,-1,27
 629 870 629 870 717 870 c 0,28,29
 769 870 769 870 799 839 c 128,-1,30
 829 808 829 808 829 756 c 0,31,32
 829 700 829 700 804.5 652.5 c 128,-1,33
 780 605 780 605 743.5 563 c 128,-1,34
 707 521 707 521 664.5 484 c 128,-1,35
 622 447 622 447 585.5 412 c 128,-1,36
 549 377 549 377 524.5 343.5 c 128,-1,37
 500 310 500 310 500 276 c 0,38,39
 500 245 500 245 536.5 212.5 c 128,-1,40
 573 180 573 180 642 148.5 c 128,-1,41
 711 117 711 117 811 87.5 c 128,-1,42
 911 58 911 58 1038 31 c 0,43,44
 1058 26 1058 26 1066.5 15 c 128,-1,45
 1075 4 1075 4 1075 -14 c 0,46,47
 1075 -36 1075 -36 1065 -59.5 c 128,-1,48
 1055 -83 1055 -83 1040 -102.5 c 128,-1,49
 1025 -122 1025 -122 1006.5 -134.5 c 128,-1,50
 988 -147 988 -147 971 -147 c 0,51,52
 937 -147 937 -147 890 -138 c 128,-1,53
 843 -129 843 -129 788.5 -113.5 c 128,-1,54
 734 -98 734 -98 676 -77.5 c 128,-1,55
 618 -57 618 -57 563.5 -33.5 c 128,-1,56
 509 -10 509 -10 460.5 15.5 c 128,-1,57
 412 41 412 41 377 66 c 0,58,59
 366 72 366 72 359.5 76 c 128,-1,60
 353 80 353 80 348 80 c 0,61,62
 342 80 342 80 341 75.5 c 128,-1,63
 340 71 340 71 340 57 c 0,64,65
 340 22 340 22 334.5 0 c 128,-1,66
 329 -22 329 -22 316 -34.5 c 128,-1,67
 303 -47 303 -47 280 -52 c 128,-1,68
 257 -57 257 -57 223 -57 c 0,69,70
 178 -57 178 -57 160.5 -40 c 128,-1,71
 143 -23 143 -23 143 20 c 0,0,1
EndSplineSet
Validated: 1
EndChar

StartChar: l
Encoding: 76 108 79
Width: 451
GlyphClass: 2
Flags: W
LayerCount: 2
Fore
SplineSet
29 1139 m 0,0,1
 29 1191 29 1191 59 1213 c 128,-1,2
 89 1235 89 1235 158 1235 c 0,3,4
 182 1235 182 1235 200 1230 c 128,-1,5
 218 1225 218 1225 230 1213.5 c 128,-1,6
 242 1202 242 1202 249.5 1182.5 c 128,-1,7
 257 1163 257 1163 262 1133 c 0,8,9
 275 1044 275 1044 288.5 946.5 c 128,-1,10
 302 849 302 849 314.5 752.5 c 128,-1,11
 327 656 327 656 338 564.5 c 128,-1,12
 349 473 349 473 357.5 394.5 c 128,-1,13
 366 316 366 316 370.5 255.5 c 128,-1,14
 375 195 375 195 375 160 c 0,15,16
 375 124 375 124 368.5 99 c 128,-1,17
 362 74 362 74 346.5 59 c 128,-1,18
 331 44 331 44 306.5 37.5 c 128,-1,19
 282 31 282 31 246 31 c 0,20,21
 211 31 211 31 190.5 49 c 128,-1,22
 170 67 170 67 170 104 c 0,23,24
 170 142 170 142 164 205.5 c 128,-1,25
 158 269 158 269 148 347 c 128,-1,26
 138 425 138 425 125.5 513 c 128,-1,27
 113 601 113 601 99.5 687 c 128,-1,28
 86 773 86 773 73.5 852.5 c 128,-1,29
 61 932 61 932 51 993.5 c 128,-1,30
 41 1055 41 1055 35 1094.5 c 128,-1,31
 29 1134 29 1134 29 1139 c 0,0,1
EndSplineSet
Validated: 1
EndChar

StartChar: m
Encoding: 77 109 80
Width: 1454
GlyphClass: 2
Flags: W
LayerCount: 2
Fore
SplineSet
172 -43 m 0,0,1
 165 90 165 90 149.5 202.5 c 128,-1,2
 134 315 134 315 117.5 399 c 128,-1,3
 101 483 101 483 88.5 535 c 128,-1,4
 76 587 76 587 76 600 c 0,5,6
 76 619 76 619 90.5 637 c 128,-1,7
 105 655 105 655 127 668.5 c 128,-1,8
 149 682 149 682 174.5 690 c 128,-1,9
 200 698 200 698 221 698 c 0,10,11
 238 698 238 698 250.5 692 c 128,-1,12
 263 686 263 686 268 672 c 0,13,14
 273 655 273 655 277.5 636.5 c 128,-1,15
 282 618 282 618 287 592 c 0,16,17
 293 555 293 555 303 555 c 0,18,19
 314 555 314 555 328 588 c 0,20,21
 348 634 348 634 371 664 c 128,-1,22
 394 694 394 694 420.5 711.5 c 128,-1,23
 447 729 447 729 475.5 736 c 128,-1,24
 504 743 504 743 535 743 c 0,25,26
 629 743 629 743 694.5 669 c 128,-1,27
 760 595 760 595 797 455 c 0,28,29
 802 439 802 439 806 434.5 c 128,-1,30
 810 430 810 430 815 430 c 256,31,32
 820 430 820 430 825.5 434.5 c 128,-1,33
 831 439 831 439 836 453 c 0,34,35
 860 518 860 518 892 563.5 c 128,-1,36
 924 609 924 609 958.5 637.5 c 128,-1,37
 993 666 993 666 1029 679 c 128,-1,38
 1065 692 1065 692 1098 692 c 0,39,40
 1159 692 1159 692 1208.5 647.5 c 128,-1,41
 1258 603 1258 603 1296.5 510.5 c 128,-1,42
 1335 418 1335 418 1363.5 276.5 c 128,-1,43
 1392 135 1392 135 1411 -59 c 1,44,45
 1411 -113 1411 -113 1378 -134.5 c 128,-1,46
 1345 -156 1345 -156 1288 -156 c 0,47,48
 1251 -156 1251 -156 1230 -140 c 128,-1,49
 1209 -124 1209 -124 1206 -98 c 0,50,51
 1193 41 1193 41 1177.5 149.5 c 128,-1,52
 1162 258 1162 258 1144 332.5 c 128,-1,53
 1126 407 1126 407 1104.5 446 c 128,-1,54
 1083 485 1083 485 1057 485 c 0,55,56
 1044 485 1044 485 1024.5 466 c 128,-1,57
 1005 447 1005 447 983 396.5 c 128,-1,58
 961 346 961 346 937 258.5 c 128,-1,59
 913 171 913 171 891 35 c 0,60,61
 885 -3 885 -3 854.5 -23 c 128,-1,62
 824 -43 824 -43 780 -43 c 0,63,64
 729 -43 729 -43 709.5 -27 c 128,-1,65
 690 -11 690 -11 688 27 c 0,66,67
 684 93 684 93 674.5 158.5 c 128,-1,68
 665 224 665 224 651 283.5 c 128,-1,69
 637 343 637 343 620 393.5 c 128,-1,70
 603 444 603 444 584 481.5 c 128,-1,71
 565 519 565 519 545 540 c 128,-1,72
 525 561 525 561 506 561 c 0,73,74
 481 561 481 561 457.5 526 c 128,-1,75
 434 491 434 491 415.5 427 c 128,-1,76
 397 363 397 363 386 273 c 128,-1,77
 375 183 375 183 375 72 c 0,78,79
 375 53 375 53 376 34.5 c 128,-1,80
 377 16 377 16 377 -4 c 0,81,82
 377 -34 377 -34 367.5 -53 c 128,-1,83
 358 -72 358 -72 340.5 -83 c 128,-1,84
 323 -94 323 -94 300 -98 c 128,-1,85
 277 -102 277 -102 250 -102 c 0,86,87
 225 -102 225 -102 210 -98.5 c 128,-1,88
 195 -95 195 -95 187 -88 c 128,-1,89
 179 -81 179 -81 176 -69.5 c 128,-1,90
 173 -58 173 -58 172 -43 c 0,0,1
EndSplineSet
Validated: 1
EndChar

StartChar: n
Encoding: 78 110 81
Width: 973
GlyphClass: 2
Flags: W
LayerCount: 2
Fore
SplineSet
100 807 m 4,0,1
 100 822 100 822 113 836.5 c 132,-1,2
 126 851 126 851 147 862.5 c 132,-1,3
 168 874 168 874 194.5 881.5 c 132,-1,4
 221 889 221 889 248 889 c 4,5,6
 263 889 263 889 273.5 881 c 132,-1,7
 284 873 284 873 292 850.5 c 132,-1,8
 300 828 300 828 306.5 787.5 c 132,-1,9
 313 747 313 747 319 682 c 4,10,11
 323 662 323 662 326.5 651.5 c 132,-1,12
 330 641 330 641 336 641 c 4,13,14
 345 641 345 641 354 672 c 4,15,16
 427 883 427 883 565 883 c 4,17,18
 629 883 629 883 681.5 843 c 132,-1,19
 734 803 734 803 779.5 712.5 c 132,-1,20
 825 622 825 622 866 474.5 c 132,-1,21
 907 327 907 327 948 111 c 4,22,23
 950 100 950 100 951 91 c 132,-1,24
 952 82 952 82 952 74 c 4,25,26
 952 51 952 51 941.5 34.5 c 132,-1,27
 931 18 931 18 914 7.5 c 132,-1,28
 897 -3 897 -3 876 -8.5 c 132,-1,29
 855 -14 855 -14 834 -14 c 4,30,31
 792 -14 792 -14 773.5 -5 c 132,-1,32
 755 4 755 4 750 29 c 4,33,34
 721 181 721 181 693.5 299 c 132,-1,35
 666 417 666 417 639.5 497.5 c 132,-1,36
 613 578 613 578 587 620 c 132,-1,37
 561 662 561 662 535 662 c 260,38,39
 509 662 509 662 486.5 629.5 c 132,-1,40
 464 597 464 597 443 528 c 132,-1,41
 422 459 422 459 402.5 353 c 132,-1,42
 383 247 383 247 365 100 c 4,43,44
 360 60 360 60 325 36 c 132,-1,45
 290 12 290 12 236 12 c 4,46,47
 200 12 200 12 181 27 c 132,-1,48
 162 42 162 42 160 68 c 4,49,50
 151 276 151 276 140.5 410.5 c 132,-1,51
 130 545 130 545 121 626.5 c 132,-1,52
 112 708 112 708 106 748 c 132,-1,53
 100 788 100 788 100 807 c 4,0,1
EndSplineSet
Validated: 1
EndChar

StartChar: o
Encoding: 79 111 82
Width: 1063
GlyphClass: 2
Flags: W
AnchorPoint: "tones" 519 1051 basechar 0
AnchorPoint: "o_dot" 946 954 basechar 0
LayerCount: 2
Fore
SplineSet
96 332 m 0,0,1
 96 349 96 349 100 370 c 128,-1,2
 104 391 104 391 104 416 c 0,3,4
 104 433 104 433 89.5 442 c 128,-1,5
 75 451 75 451 57 462 c 128,-1,6
 39 473 39 473 24.5 490 c 128,-1,7
 10 507 10 507 10 539 c 0,8,9
 10 562 10 562 22.5 585 c 128,-1,10
 35 608 35 608 59 627 c 0,11,12
 118 671 118 671 181.5 706 c 128,-1,13
 245 741 245 741 308.5 765 c 128,-1,14
 372 789 372 789 434 802 c 128,-1,15
 496 815 496 815 553 815 c 0,16,17
 649 815 649 815 733.5 779.5 c 128,-1,18
 818 744 818 744 880.5 682.5 c 128,-1,19
 943 621 943 621 979.5 538.5 c 128,-1,20
 1016 456 1016 456 1016 362 c 0,21,22
 1016 270 1016 270 977.5 187.5 c 128,-1,23
 939 105 939 105 874 43 c 128,-1,24
 809 -19 809 -19 721.5 -55.5 c 128,-1,25
 634 -92 634 -92 537 -92 c 0,26,27
 442 -92 442 -92 361 -60 c 128,-1,28
 280 -28 280 -28 221 28.5 c 128,-1,29
 162 85 162 85 129 162.5 c 128,-1,30
 96 240 96 240 96 332 c 0,0,1
559 88 m 0,31,32
 601 88 601 88 646 105 c 128,-1,33
 691 122 691 122 728.5 154.5 c 128,-1,34
 766 187 766 187 790.5 234 c 128,-1,35
 815 281 815 281 815 340 c 0,36,37
 815 400 815 400 793 452 c 128,-1,38
 771 504 771 504 732.5 542.5 c 128,-1,39
 694 581 694 581 641.5 603 c 128,-1,40
 589 625 589 625 528 625 c 0,41,42
 417 625 417 625 358 567.5 c 128,-1,43
 299 510 299 510 299 391 c 0,44,45
 299 326 299 326 318.5 270.5 c 128,-1,46
 338 215 338 215 373 174.5 c 128,-1,47
 408 134 408 134 455.5 111 c 128,-1,48
 503 88 503 88 559 88 c 0,31,32
EndSplineSet
Validated: 1
EndChar

StartChar: p
Encoding: 80 112 83
Width: 1008
GlyphClass: 2
Flags: W
LayerCount: 2
Fore
SplineSet
-14 698 m 0,0,1
 -14 737 -14 737 21 757.5 c 128,-1,2
 56 778 56 778 121 778 c 0,3,4
 136 778 136 778 148 774 c 128,-1,5
 160 770 160 770 169.5 758.5 c 128,-1,6
 179 747 179 747 187 727 c 128,-1,7
 195 707 195 707 203 676 c 0,8,9
 211 641 211 641 219 641 c 0,10,11
 226 641 226 641 236 670 c 0,12,13
 254 727 254 727 283.5 769.5 c 128,-1,14
 313 812 313 812 350 840.5 c 128,-1,15
 387 869 387 869 430.5 883 c 128,-1,16
 474 897 474 897 522 897 c 0,17,18
 619 897 619 897 703 860.5 c 128,-1,19
 787 824 787 824 848 759.5 c 128,-1,20
 909 695 909 695 944 607.5 c 128,-1,21
 979 520 979 520 979 418 c 0,22,23
 979 310 979 310 941.5 218 c 128,-1,24
 904 126 904 126 837 59.5 c 128,-1,25
 770 -7 770 -7 677.5 -44.5 c 128,-1,26
 585 -82 585 -82 475 -82 c 1,27,-1
 424 -80 l 2,28,29
 379 -80 379 -80 379 -131 c 1,30,-1
 430 -590 l 2,31,32
 429 -607 429 -607 418.5 -621.5 c 128,-1,33
 408 -636 408 -636 390.5 -647 c 128,-1,34
 373 -658 373 -658 349.5 -664 c 128,-1,35
 326 -670 326 -670 301 -670 c 0,36,37
 229 -670 229 -670 223 -623 c 0,38,39
 202 -441 202 -441 176.5 -277 c 128,-1,40
 151 -113 151 -113 124.5 28.5 c 128,-1,41
 98 170 98 170 73 286 c 128,-1,42
 48 402 48 402 28.5 488 c 128,-1,43
 9 574 9 574 -2.5 628 c 128,-1,44
 -14 682 -14 682 -14 698 c 0,0,1
311 434 m 0,45,46
 311 369 311 369 316 305.5 c 128,-1,47
 321 242 321 242 332 168 c 0,48,49
 338 123 338 123 381 117 c 0,50,51
 407 111 407 111 439.5 105.5 c 128,-1,52
 472 100 472 100 494 100 c 0,53,54
 558 100 558 100 610 119 c 128,-1,55
 662 138 662 138 699 173.5 c 128,-1,56
 736 209 736 209 756 258 c 128,-1,57
 776 307 776 307 776 367 c 0,58,59
 776 440 776 440 756 503.5 c 128,-1,60
 736 567 736 567 701.5 614 c 128,-1,61
 667 661 667 661 620.5 688 c 128,-1,62
 574 715 574 715 520 715 c 0,63,64
 473 715 473 715 434.5 694.5 c 128,-1,65
 396 674 396 674 368.5 637.5 c 128,-1,66
 341 601 341 601 326 549 c 128,-1,67
 311 497 311 497 311 434 c 0,45,46
EndSplineSet
Validated: 1
EndChar

StartChar: q
Encoding: 81 113 84
Width: 1225
GlyphClass: 2
Flags: W
LayerCount: 2
Fore
SplineSet
938 -168 m 0,0,1
 932 -127 932 -127 901 -127 c 0,2,3
 890 -127 890 -127 874 -133 c 0,4,5
 843 -147 843 -147 802 -165 c 128,-1,6
 761 -183 761 -183 723 -199.5 c 128,-1,7
 685 -216 685 -216 656.5 -227 c 128,-1,8
 628 -238 628 -238 623 -238 c 0,9,10
 608 -238 608 -238 595 -228.5 c 128,-1,11
 582 -219 582 -219 572.5 -204 c 128,-1,12
 563 -189 563 -189 557 -170 c 128,-1,13
 551 -151 551 -151 551 -133 c 0,14,15
 551 -113 551 -113 559 -96 c 128,-1,16
 567 -79 567 -79 586 -70 c 0,17,18
 654 -36 654 -36 723.5 -6 c 128,-1,19
 793 24 793 24 864 53 c 0,20,21
 901 68 901 68 901 109 c 2,22,-1
 887 256 l 2,23,24
 881 295 881 295 858 295 c 0,25,26
 842 295 842 295 823 270 c 0,27,28
 730 150 730 150 624.5 94.5 c 128,-1,29
 519 39 519 39 395 39 c 0,30,31
 321 39 321 39 258.5 60 c 128,-1,32
 196 81 196 81 151 118 c 128,-1,33
 106 155 106 155 80.5 206.5 c 128,-1,34
 55 258 55 258 55 319 c 0,35,36
 55 387 55 387 83 449 c 128,-1,37
 111 511 111 511 159 564 c 128,-1,38
 207 617 207 617 270.5 660.5 c 128,-1,39
 334 704 334 704 404.5 735 c 128,-1,40
 475 766 475 766 548.5 782.5 c 128,-1,41
 622 799 622 799 690 799 c 0,42,43
 762 799 762 799 811.5 791 c 128,-1,44
 861 783 861 783 893 774 c 1,45,46
 907 791 907 791 921.5 799 c 128,-1,47
 936 807 936 807 950 807 c 0,48,49
 969 807 969 807 990.5 800.5 c 128,-1,50
 1012 794 1012 794 1030.5 783 c 128,-1,51
 1049 772 1049 772 1061 758 c 128,-1,52
 1073 744 1073 744 1073 729 c 0,53,54
 1073 718 1073 718 1069 708 c 128,-1,55
 1065 698 1065 698 1060.5 688.5 c 128,-1,56
 1056 679 1056 679 1052.5 668 c 128,-1,57
 1049 657 1049 657 1049 645 c 0,58,59
 1049 621 1049 621 1053.5 572 c 128,-1,60
 1058 523 1058 523 1065.5 460.5 c 128,-1,61
 1073 398 1073 398 1081.5 329 c 128,-1,62
 1090 260 1090 260 1098 197 c 0,63,64
 1104 154 1104 154 1139 154 c 0,65,66
 1142 154 1142 154 1147 155 c 128,-1,67
 1152 156 1152 156 1157 158 c 0,68,69
 1196 169 1196 169 1238 180.5 c 128,-1,70
 1280 192 1280 192 1316.5 201 c 128,-1,71
 1353 210 1353 210 1379 215.5 c 128,-1,72
 1405 221 1405 221 1413 221 c 0,73,74
 1445 221 1445 221 1461 198 c 128,-1,75
 1477 175 1477 175 1477 135 c 0,76,77
 1477 104 1477 104 1466 77 c 128,-1,78
 1455 50 1455 50 1434 45 c 0,79,80
 1365 30 1365 30 1300 12.5 c 128,-1,81
 1235 -5 1235 -5 1169 -25 c 0,82,83
 1130 -37 1130 -37 1130 -76 c 1,84,-1
 1182 -498 l 2,85,86
 1182 -520 1182 -520 1168.5 -539 c 128,-1,87
 1155 -558 1155 -558 1134 -572 c 128,-1,88
 1113 -586 1113 -586 1087 -594 c 128,-1,89
 1061 -602 1061 -602 1036 -602 c 0,90,91
 1013 -602 1013 -602 998 -589.5 c 128,-1,92
 983 -577 983 -577 981 -557 c 0,93,94
 972 -460 972 -460 960.5 -364 c 128,-1,95
 949 -268 949 -268 938 -168 c 0,0,1
438 225 m 0,96,97
 488 225 488 225 535.5 239.5 c 128,-1,98
 583 254 583 254 628.5 290 c 128,-1,99
 674 326 674 326 718 387.5 c 128,-1,100
 762 449 762 449 805 543 c 0,101,102
 808 551 808 551 810.5 558 c 128,-1,103
 813 565 813 565 813 571 c 0,104,105
 813 604 813 604 774 610 c 0,106,107
 741 616 741 616 698 616 c 0,108,109
 616 616 616 616 537 594 c 128,-1,110
 458 572 458 572 396 536 c 128,-1,111
 334 500 334 500 296 454 c 128,-1,112
 258 408 258 408 258 360 c 0,113,114
 258 294 258 294 304 259.5 c 128,-1,115
 350 225 350 225 438 225 c 0,96,97
EndSplineSet
Validated: 1
EndChar

StartChar: r
Encoding: 82 114 85
Width: 725
GlyphClass: 2
Flags: W
LayerCount: 2
Fore
SplineSet
625 748 m 0,0,1
 588 748 588 748 560 728.5 c 128,-1,2
 532 709 532 709 512 674.5 c 128,-1,3
 492 640 492 640 479 593.5 c 128,-1,4
 466 547 466 547 458 492 c 128,-1,5
 450 437 450 437 447 377 c 128,-1,6
 444 317 444 317 444 256 c 0,7,8
 444 176 444 176 450.5 98.5 c 128,-1,9
 457 21 457 21 457 -45 c 0,10,11
 457 -88 457 -88 425 -112.5 c 128,-1,12
 393 -137 393 -137 334 -137 c 0,13,14
 323 -137 323 -137 309 -135 c 128,-1,15
 295 -133 295 -133 282.5 -127 c 128,-1,16
 270 -121 270 -121 260.5 -110.5 c 128,-1,17
 251 -100 251 -100 250 -82 c 0,18,19
 241 6 241 6 224 98 c 128,-1,20
 207 190 207 190 181.5 281.5 c 128,-1,21
 156 373 156 373 120.5 463 c 128,-1,22
 85 553 85 553 39 639 c 0,23,24
 31 654 31 654 25.5 667 c 128,-1,25
 20 680 20 680 20 692 c 0,26,27
 20 707 20 707 33.5 724.5 c 128,-1,28
 47 742 47 742 67.5 757 c 128,-1,29
 88 772 88 772 112.5 781.5 c 128,-1,30
 137 791 137 791 160 791 c 0,31,32
 198 791 198 791 227 738.5 c 128,-1,33
 256 686 256 686 281 571 c 0,34,35
 286 551 286 551 289 543 c 128,-1,36
 292 535 292 535 297 535 c 0,37,38
 308 535 308 535 311 569 c 0,39,40
 323 664 323 664 352 732.5 c 128,-1,41
 381 801 381 801 424.5 845.5 c 128,-1,42
 468 890 468 890 524.5 911 c 128,-1,43
 581 932 581 932 649 932 c 0,44,45
 688 932 688 932 728 925 c 128,-1,46
 768 918 768 918 800 904 c 128,-1,47
 832 890 832 890 852 870 c 128,-1,48
 872 850 872 850 872 825 c 0,49,50
 872 807 872 807 864.5 782.5 c 128,-1,51
 857 758 857 758 845 735.5 c 128,-1,52
 833 713 833 713 817.5 697.5 c 128,-1,53
 802 682 802 682 786 682 c 0,54,55
 768 682 768 682 751 692.5 c 128,-1,56
 734 703 734 703 714.5 715 c 128,-1,57
 695 727 695 727 673.5 737.5 c 128,-1,58
 652 748 652 748 625 748 c 0,0,1
EndSplineSet
Validated: 1
EndChar

StartChar: s
Encoding: 83 115 86
Width: 754
GlyphClass: 2
Flags: W
LayerCount: 2
Fore
SplineSet
332 868 m 0,0,1
 399 868 399 868 470 850.5 c 128,-1,2
 541 833 541 833 600 805.5 c 128,-1,3
 659 778 659 778 697 744 c 128,-1,4
 735 710 735 710 735 678 c 0,5,6
 735 662 735 662 721 642.5 c 128,-1,7
 707 623 707 623 687 605.5 c 128,-1,8
 667 588 667 588 643.5 576.5 c 128,-1,9
 620 565 620 565 602 565 c 0,10,11
 578 565 578 565 548.5 585 c 128,-1,12
 519 605 519 605 483.5 629.5 c 128,-1,13
 448 654 448 654 406 674 c 128,-1,14
 364 694 364 694 315 694 c 0,15,16
 283 694 283 694 262.5 678.5 c 128,-1,17
 242 663 242 663 242 635 c 0,18,19
 242 610 242 610 266 584.5 c 128,-1,20
 290 559 290 559 329.5 532 c 128,-1,21
 369 505 369 505 419 475 c 128,-1,22
 469 445 469 445 521.5 411 c 128,-1,23
 574 377 574 377 624 337 c 128,-1,24
 674 297 674 297 713.5 250 c 128,-1,25
 753 203 753 203 777 147.5 c 128,-1,26
 801 92 801 92 801 27 c 0,27,28
 801 -29 801 -29 781 -75 c 128,-1,29
 761 -121 761 -121 724 -154 c 128,-1,30
 687 -187 687 -187 636 -205 c 128,-1,31
 585 -223 585 -223 524 -223 c 0,32,33
 447 -223 447 -223 382 -199.5 c 128,-1,34
 317 -176 317 -176 270 -135 c 128,-1,35
 223 -94 223 -94 196.5 -37 c 128,-1,36
 170 20 170 20 170 88 c 0,37,38
 170 176 170 176 201.5 216 c 128,-1,39
 233 256 233 256 301 256 c 0,40,41
 343 256 343 256 368 240 c 128,-1,42
 393 224 393 224 393 201 c 0,43,44
 393 189 393 189 389 176.5 c 128,-1,45
 385 164 385 164 380.5 150.5 c 128,-1,46
 376 137 376 137 372.5 122 c 128,-1,47
 369 107 369 107 369 92 c 0,48,49
 369 66 369 66 381 42 c 128,-1,50
 393 18 393 18 413.5 -0.5 c 128,-1,51
 434 -19 434 -19 461 -30 c 128,-1,52
 488 -41 488 -41 518 -41 c 0,53,54
 598 -41 598 -41 598 25 c 0,55,56
 598 77 598 77 557 123.5 c 128,-1,57
 516 170 516 170 454 214.5 c 128,-1,58
 392 259 392 259 320.5 304 c 128,-1,59
 249 349 249 349 187 398 c 128,-1,60
 125 447 125 447 84 502.5 c 128,-1,61
 43 558 43 558 43 623 c 0,62,63
 43 677 43 677 65.5 722 c 128,-1,64
 88 767 88 767 127 799.5 c 128,-1,65
 166 832 166 832 218.5 850 c 128,-1,66
 271 868 271 868 332 868 c 0,0,1
EndSplineSet
Validated: 1
EndChar

StartChar: t
Encoding: 84 116 87
Width: 836
GlyphClass: 2
Flags: W
LayerCount: 2
Fore
SplineSet
176 1155 m 0,0,1
 176 1208 176 1208 206 1229.5 c 128,-1,2
 236 1251 236 1251 305 1251 c 0,3,4
 330 1251 330 1251 347.5 1246.5 c 128,-1,5
 365 1242 365 1242 377.5 1230 c 128,-1,6
 390 1218 390 1218 397.5 1198.5 c 128,-1,7
 405 1179 405 1179 410 1149 c 0,8,9
 422 1056 422 1056 436.5 957 c 128,-1,10
 451 858 451 858 467 758 c 0,11,12
 473 713 473 713 514 713 c 0,13,14
 525 713 525 713 550.5 715.5 c 128,-1,15
 576 718 576 718 611 721.5 c 128,-1,16
 646 725 646 725 686.5 729 c 128,-1,17
 727 733 727 733 767.5 736.5 c 128,-1,18
 808 740 808 740 844.5 742.5 c 128,-1,19
 881 745 881 745 909 745 c 0,20,21
 931 745 931 745 944 736.5 c 128,-1,22
 957 728 957 728 964.5 714.5 c 128,-1,23
 972 701 972 701 974.5 684.5 c 128,-1,24
 977 668 977 668 977 651 c 0,25,26
 977 636 977 636 971.5 620 c 128,-1,27
 966 604 966 604 956.5 591.5 c 128,-1,28
 947 579 947 579 933 571 c 128,-1,29
 919 563 919 563 901 563 c 0,30,31
 814 563 814 563 725.5 557.5 c 128,-1,32
 637 552 637 552 549 543 c 0,33,34
 504 537 504 537 504 498 c 0,35,36
 504 495 504 495 505 490.5 c 128,-1,37
 506 486 506 486 506 483 c 0,38,39
 518 396 518 396 528.5 320 c 128,-1,40
 539 244 539 244 546.5 184.5 c 128,-1,41
 554 125 554 125 558.5 85.5 c 128,-1,42
 563 46 563 46 563 33 c 0,43,44
 563 -3 563 -3 556 -27.5 c 128,-1,45
 549 -52 549 -52 533 -67.5 c 128,-1,46
 517 -83 517 -83 490.5 -89.5 c 128,-1,47
 464 -96 464 -96 424 -96 c 0,48,49
 386 -96 386 -96 368 -78 c 128,-1,50
 350 -60 350 -60 348 -23 c 0,51,52
 342 95 342 95 329 214.5 c 128,-1,53
 316 334 316 334 299 453 c 0,54,55
 290 496 290 496 254 496 c 0,56,57
 251 496 251 496 247 495 c 128,-1,58
 243 494 243 494 240 494 c 0,59,60
 178 480 178 480 123 466 c 128,-1,61
 68 452 68 452 20 436 c 0,62,63
 -7 427 -7 427 -28 423.5 c 128,-1,64
 -49 420 -49 420 -66 420 c 0,65,66
 -89 420 -89 420 -100 440.5 c 128,-1,67
 -111 461 -111 461 -111 492 c 0,68,69
 -111 503 -111 503 -109 517.5 c 128,-1,70
 -107 532 -107 532 -101.5 546.5 c 128,-1,71
 -96 561 -96 561 -85.5 573.5 c 128,-1,72
 -75 586 -75 586 -57 594 c 0,73,74
 -15 611 -15 611 55 629.5 c 128,-1,75
 125 648 125 648 213 664 c 0,76,77
 233 669 233 669 244.5 680.5 c 128,-1,78
 256 692 256 692 256 715 c 0,79,80
 256 720 256 720 256 725.5 c 128,-1,81
 256 731 256 731 254 737 c 0,82,83
 238 829 238 829 223.5 904.5 c 128,-1,84
 209 980 209 980 198.5 1034 c 128,-1,85
 188 1088 188 1088 182 1119 c 128,-1,86
 176 1150 176 1150 176 1155 c 0,0,1
EndSplineSet
Validated: 1
EndChar

StartChar: u
Encoding: 85 117 88
Width: 961
GlyphClass: 2
Flags: W
AnchorPoint: "tones" 492 997 basechar 0
LayerCount: 2
Fore
SplineSet
293 354 m 0,0,1
 293 220 293 220 334 147 c 128,-1,2
 375 74 375 74 453 74 c 0,3,4
 502 74 502 74 543.5 103 c 128,-1,5
 585 132 585 132 615 184 c 128,-1,6
 645 236 645 236 661.5 307.5 c 128,-1,7
 678 379 678 379 678 463 c 0,8,9
 678 514 678 514 674 551.5 c 128,-1,10
 670 589 670 589 665.5 618.5 c 128,-1,11
 661 648 661 648 657 671 c 128,-1,12
 653 694 653 694 653 715 c 0,13,14
 653 747 653 747 680 761.5 c 128,-1,15
 707 776 707 776 766 776 c 0,16,17
 841 776 841 776 882.5 742 c 128,-1,18
 924 708 924 708 924 643 c 0,19,20
 924 466 924 466 889.5 325 c 128,-1,21
 855 184 855 184 790.5 85.5 c 128,-1,22
 726 -13 726 -13 634 -66 c 128,-1,23
 542 -119 542 -119 428 -119 c 0,24,25
 347 -119 347 -119 278.5 -85.5 c 128,-1,26
 210 -52 210 -52 160.5 8.5 c 128,-1,27
 111 69 111 69 83 152.5 c 128,-1,28
 55 236 55 236 55 336 c 0,29,30
 55 374 55 374 57 417 c 128,-1,31
 59 460 59 460 63 509.5 c 128,-1,32
 67 559 67 559 73.5 617 c 128,-1,33
 80 675 80 675 88 743 c 0,34,35
 91 772 91 772 115.5 789.5 c 128,-1,36
 140 807 140 807 178 807 c 0,37,38
 212 807 212 807 242 800 c 128,-1,39
 272 793 272 793 293.5 781 c 128,-1,40
 315 769 315 769 327.5 753 c 128,-1,41
 340 737 340 737 340 719 c 256,42,43
 340 701 340 701 332.5 662.5 c 128,-1,44
 325 624 325 624 316.5 574.5 c 128,-1,45
 308 525 308 525 300.5 467.5 c 128,-1,46
 293 410 293 410 293 354 c 0,0,1
EndSplineSet
Validated: 1048577
EndChar

StartChar: v
Encoding: 86 118 89
Width: 903
GlyphClass: 2
Flags: W
LayerCount: 2
Fore
SplineSet
618 772 m 2,0,1
 621 800 621 800 625.5 818.5 c 128,-1,2
 630 837 630 837 639.5 848.5 c 128,-1,3
 649 860 649 860 664 865 c 128,-1,4
 679 870 679 870 702 870 c 0,5,6
 775 870 775 870 809.5 848.5 c 128,-1,7
 844 827 844 827 844 780 c 0,8,9
 844 771 844 771 840.5 740.5 c 128,-1,10
 837 710 837 710 831 665.5 c 128,-1,11
 825 621 825 621 817.5 567.5 c 128,-1,12
 810 514 810 514 803 459 c 0,13,14
 785 331 785 331 762 172 c 0,15,16
 748 78 748 78 706.5 37 c 128,-1,17
 665 -4 665 -4 584 -4 c 0,18,19
 523 -4 523 -4 458 27 c 128,-1,20
 393 58 393 58 332 111 c 128,-1,21
 271 164 271 164 216.5 234.5 c 128,-1,22
 162 305 162 305 121 384.5 c 128,-1,23
 80 464 80 464 56.5 547 c 128,-1,24
 33 630 33 630 33 709 c 0,25,26
 33 798 33 798 58.5 842.5 c 128,-1,27
 84 887 84 887 147 887 c 0,28,29
 191 887 191 887 220 881.5 c 128,-1,30
 249 876 249 876 266.5 862.5 c 128,-1,31
 284 849 284 849 291.5 827 c 128,-1,32
 299 805 299 805 299 772 c 0,33,34
 299 750 299 750 297 728 c 128,-1,35
 295 706 295 706 295 684 c 0,36,37
 295 633 295 633 305.5 577.5 c 128,-1,38
 316 522 316 522 334 469 c 128,-1,39
 352 416 352 416 376 368.5 c 128,-1,40
 400 321 400 321 427 285 c 128,-1,41
 454 249 454 249 481.5 228 c 128,-1,42
 509 207 509 207 535 207 c 0,43,44
 553 207 553 207 562.5 219 c 128,-1,45
 572 231 572 231 575 260 c 2,46,-1
 618 772 l 2,0,1
EndSplineSet
Validated: 1
EndChar

StartChar: w
Encoding: 87 119 90
Width: 1587
GlyphClass: 2
Flags: W
LayerCount: 2
Fore
SplineSet
719 428 m 0,0,1
 719 586 719 586 757 671 c 128,-1,2
 795 756 795 756 866 756 c 0,3,4
 979 756 979 756 979 561 c 0,5,6
 979 492 979 492 971.5 431 c 128,-1,7
 964 370 964 370 950 313 c 0,8,9
 948 305 948 305 947 298 c 128,-1,10
 946 291 946 291 946 285 c 0,11,12
 946 264 946 264 954 248 c 0,13,14
 1004 121 1004 121 1139 121 c 0,15,16
 1187 121 1187 121 1229 142 c 128,-1,17
 1271 163 1271 163 1302 199.5 c 128,-1,18
 1333 236 1333 236 1350.5 285 c 128,-1,19
 1368 334 1368 334 1368 391 c 0,20,21
 1368 455 1368 455 1353 497.5 c 128,-1,22
 1338 540 1338 540 1320 570.5 c 128,-1,23
 1302 601 1302 601 1287 626.5 c 128,-1,24
 1272 652 1272 652 1272 684 c 0,25,26
 1272 699 1272 699 1285.5 715.5 c 128,-1,27
 1299 732 1299 732 1319.5 746 c 128,-1,28
 1340 760 1340 760 1364.5 769 c 128,-1,29
 1389 778 1389 778 1411 778 c 0,30,31
 1440 778 1440 778 1468.5 746 c 128,-1,32
 1497 714 1497 714 1519.5 662.5 c 128,-1,33
 1542 611 1542 611 1555.5 545 c 128,-1,34
 1569 479 1569 479 1569 412 c 0,35,36
 1569 315 1569 315 1533 229 c 128,-1,37
 1497 143 1497 143 1435 78 c 128,-1,38
 1373 13 1373 13 1290.5 -25 c 128,-1,39
 1208 -63 1208 -63 1116 -63 c 0,40,41
 1038 -63 1038 -63 977.5 -35.5 c 128,-1,42
 917 -8 917 -8 866 61 c 0,43,44
 858 74 858 74 850 79 c 128,-1,45
 842 84 842 84 834 84 c 0,46,47
 824 84 824 84 816 79 c 128,-1,48
 808 74 808 74 799 61 c 0,49,50
 731 -28 731 -28 653.5 -66 c 128,-1,51
 576 -104 576 -104 483 -104 c 0,52,53
 380 -104 380 -104 297.5 -47.5 c 128,-1,54
 215 9 215 9 157 113 c 128,-1,55
 99 217 99 217 68 365.5 c 128,-1,56
 37 514 37 514 37 698 c 0,57,58
 37 773 37 773 43 822.5 c 128,-1,59
 49 872 49 872 65 900.5 c 128,-1,60
 81 929 81 929 107 940.5 c 128,-1,61
 133 952 133 952 174 952 c 0,62,63
 217 952 217 952 236.5 935.5 c 128,-1,64
 256 919 256 919 256 879 c 0,65,66
 256 848 256 848 250 809.5 c 128,-1,67
 244 771 244 771 244 743 c 0,68,69
 244 598 244 598 264.5 476 c 128,-1,70
 285 354 285 354 321.5 266 c 128,-1,71
 358 178 358 178 408.5 129 c 128,-1,72
 459 80 459 80 520 80 c 0,73,74
 656 80 656 80 721 219 c 0,75,76
 727 230 727 230 729 239.5 c 128,-1,77
 731 249 731 249 731 260 c 0,78,79
 731 266 731 266 731 272.5 c 128,-1,80
 731 279 731 279 729 287 c 0,81,82
 724 325 724 325 721.5 359.5 c 128,-1,83
 719 394 719 394 719 428 c 0,0,1
EndSplineSet
Validated: 1
EndChar

StartChar: x
Encoding: 88 120 91
Width: 1077
GlyphClass: 2
Flags: W
LayerCount: 2
Fore
SplineSet
111 844 m 0,0,1
 98 865 98 865 94 879.5 c 128,-1,2
 90 894 90 894 90 903 c 0,3,4
 90 920 90 920 105 938 c 128,-1,5
 120 956 120 956 142 970.5 c 128,-1,6
 164 985 164 985 189 994.5 c 128,-1,7
 214 1004 214 1004 233 1004 c 0,8,9
 244 1004 244 1004 256.5 995.5 c 128,-1,10
 269 987 269 987 291 952 c 0,11,12
 326 895 326 895 364.5 834 c 128,-1,13
 403 773 403 773 446 711 c 0,14,15
 463 688 463 688 481 688 c 0,16,17
 501 688 501 688 518 709 c 0,18,19
 586 784 586 784 655 848 c 128,-1,20
 724 912 724 912 793 952 c 0,21,22
 835 977 835 977 862 985 c 128,-1,23
 889 993 889 993 901 993 c 0,24,25
 920 993 920 993 940 981 c 128,-1,26
 960 969 960 969 976.5 951.5 c 128,-1,27
 993 934 993 934 1003.5 915 c 128,-1,28
 1014 896 1014 896 1014 881 c 0,29,30
 1014 858 1014 858 985.5 836 c 128,-1,31
 957 814 957 814 903 782 c 0,32,33
 828 736 828 736 760.5 674 c 128,-1,34
 693 612 693 612 631 543 c 0,35,36
 621 533 621 533 617.5 524 c 128,-1,37
 614 515 614 515 614 506 c 0,38,39
 614 498 614 498 617.5 489 c 128,-1,40
 621 480 621 480 629 471 c 0,41,42
 666 428 666 428 703 392 c 128,-1,43
 740 356 740 356 774.5 330.5 c 128,-1,44
 809 305 809 305 841.5 290.5 c 128,-1,45
 874 276 874 276 903 276 c 0,46,47
 926 276 926 276 952 282.5 c 128,-1,48
 978 289 978 289 999 289 c 0,49,50
 1028 289 1028 289 1039.5 271.5 c 128,-1,51
 1051 254 1051 254 1051 225 c 0,52,53
 1051 192 1051 192 1039 166 c 128,-1,54
 1027 140 1027 140 1006.5 122.5 c 128,-1,55
 986 105 986 105 958 95.5 c 128,-1,56
 930 86 930 86 899 86 c 0,57,58
 851 86 851 86 801 103 c 128,-1,59
 751 120 751 120 701 150 c 128,-1,60
 651 180 651 180 602 220.5 c 128,-1,61
 553 261 553 261 506 309 c 0,62,63
 488 328 488 328 469 328 c 0,64,65
 449 328 449 328 432 307 c 0,66,67
 385 249 385 249 341.5 198 c 128,-1,68
 298 147 298 147 257.5 109 c 128,-1,69
 217 71 217 71 179.5 49 c 128,-1,70
 142 27 142 27 106 27 c 0,71,72
 80 27 80 27 60.5 37.5 c 128,-1,73
 41 48 41 48 28 63 c 128,-1,74
 15 78 15 78 8.5 94 c 128,-1,75
 2 110 2 110 2 121 c 0,76,77
 2 135 2 135 12 147.5 c 128,-1,78
 22 160 22 160 41 175.5 c 128,-1,79
 60 191 60 191 85.5 213 c 128,-1,80
 111 235 111 235 143 268 c 0,81,82
 178 303 178 303 220 354.5 c 128,-1,83
 262 406 262 406 311 465 c 0,84,85
 316 471 316 471 319 478.5 c 128,-1,86
 322 486 322 486 322 494 c 0,87,88
 322 522 322 522 291 565 c 0,89,90
 229 650 229 650 183 724.5 c 128,-1,91
 137 799 137 799 111 844 c 0,0,1
EndSplineSet
Validated: 1
EndChar

StartChar: y
Encoding: 89 121 92
Width: 1008
GlyphClass: 2
Flags: W
LayerCount: 2
Fore
SplineSet
500 -27 m 0,0,1
 440 -27 440 -27 380 2.5 c 128,-1,2
 320 32 320 32 265 83 c 128,-1,3
 210 134 210 134 163 203.5 c 128,-1,4
 116 273 116 273 81 353.5 c 128,-1,5
 46 434 46 434 26 522 c 128,-1,6
 6 610 6 610 6 698 c 0,7,8
 6 766 6 766 34 795.5 c 128,-1,9
 62 825 62 825 125 825 c 0,10,11
 204 825 204 825 213 760 c 0,12,13
 231 622 231 622 263 511 c 128,-1,14
 295 400 295 400 338.5 322 c 128,-1,15
 382 244 382 244 435.5 202 c 128,-1,16
 489 160 489 160 549 160 c 0,17,18
 592 160 592 160 630 181.5 c 128,-1,19
 668 203 668 203 696 242 c 0,20,21
 706 257 706 257 709.5 271 c 128,-1,22
 713 285 713 285 715 303 c 0,23,24
 720 374 720 374 726.5 442.5 c 128,-1,25
 733 511 733 511 739 580 c 0,26,27
 741 610 741 610 747 629 c 128,-1,28
 753 648 753 648 765 659 c 128,-1,29
 777 670 777 670 796.5 674 c 128,-1,30
 816 678 816 678 846 678 c 0,31,32
 880 678 880 678 904 668.5 c 128,-1,33
 928 659 928 659 943 637.5 c 128,-1,34
 958 616 958 616 964.5 581.5 c 128,-1,35
 971 547 971 547 971 496 c 0,36,37
 971 452 971 452 964.5 419.5 c 128,-1,38
 958 387 958 387 949.5 358.5 c 128,-1,39
 941 330 941 330 933.5 302.5 c 128,-1,40
 926 275 926 275 924 242 c 0,41,42
 919 159 919 159 915 98.5 c 128,-1,43
 911 38 911 38 908.5 -5 c 128,-1,44
 906 -48 906 -48 904.5 -79 c 128,-1,45
 903 -110 903 -110 902 -134.5 c 128,-1,46
 901 -159 901 -159 901 -181 c 128,-1,47
 901 -203 901 -203 901 -229 c 0,48,49
 901 -276 901 -276 905 -331.5 c 128,-1,50
 909 -387 909 -387 913.5 -438 c 128,-1,51
 918 -489 918 -489 922 -528 c 128,-1,52
 926 -567 926 -567 926 -582 c 0,53,54
 926 -601 926 -601 914 -618 c 128,-1,55
 902 -635 902 -635 882 -648 c 128,-1,56
 862 -661 862 -661 835 -668.5 c 128,-1,57
 808 -676 808 -676 778 -676 c 0,58,59
 752 -676 752 -676 736.5 -658.5 c 128,-1,60
 721 -641 721 -641 719 -612 c 0,61,62
 716 -574 716 -574 714 -519.5 c 128,-1,63
 712 -465 712 -465 710 -403.5 c 128,-1,64
 708 -342 708 -342 707.5 -278.5 c 128,-1,65
 707 -215 707 -215 706 -160.5 c 128,-1,66
 705 -106 705 -106 705 -65 c 128,-1,67
 705 -24 705 -24 705 -6 c 256,68,69
 705 12 705 12 701 19.5 c 128,-1,70
 697 27 697 27 686 27 c 0,71,72
 680 27 680 27 670 23.5 c 128,-1,73
 660 20 660 20 647 12 c 0,74,75
 612 -9 612 -9 576 -18 c 128,-1,76
 540 -27 540 -27 500 -27 c 0,0,1
EndSplineSet
Validated: 1
EndChar

StartChar: z
Encoding: 90 122 93
Width: 903
GlyphClass: 2
Flags: W
LayerCount: 2
Fore
SplineSet
502 248 m 0,0,1
 468 248 468 248 436.5 243 c 128,-1,2
 405 238 405 238 378 232.5 c 128,-1,3
 351 227 351 227 330 222 c 128,-1,4
 309 217 309 217 297 217 c 0,5,6
 286 217 286 217 274.5 226.5 c 128,-1,7
 263 236 263 236 254 251 c 128,-1,8
 245 266 245 266 239 284 c 128,-1,9
 233 302 233 302 233 319 c 0,10,11
 233 334 233 334 254.5 361 c 128,-1,12
 276 388 276 388 307.5 422 c 128,-1,13
 339 456 339 456 376.5 495 c 128,-1,14
 414 534 414 534 445.5 573 c 128,-1,15
 477 612 477 612 498.5 648.5 c 128,-1,16
 520 685 520 685 520 715 c 0,17,18
 520 749 520 749 495 765.5 c 128,-1,19
 470 782 470 782 430 782 c 0,20,21
 375 782 375 782 320.5 769 c 128,-1,22
 266 756 266 756 219 740 c 128,-1,23
 172 724 172 724 134.5 711 c 128,-1,24
 97 698 97 698 76 698 c 0,25,26
 62 698 62 698 49.5 706 c 128,-1,27
 37 714 37 714 27 727.5 c 128,-1,28
 17 741 17 741 11.5 759 c 128,-1,29
 6 777 6 777 6 797 c 0,30,31
 6 832 6 832 17.5 858.5 c 128,-1,32
 29 885 29 885 49 893 c 0,33,34
 87 907 87 907 139.5 919.5 c 128,-1,35
 192 932 192 932 249 942 c 128,-1,36
 306 952 306 952 362.5 957.5 c 128,-1,37
 419 963 419 963 465 963 c 0,38,39
 589 963 589 963 654 913.5 c 128,-1,40
 719 864 719 864 719 770 c 0,41,42
 719 728 719 728 708.5 691 c 128,-1,43
 698 654 698 654 675.5 617 c 128,-1,44
 653 580 653 580 619 540.5 c 128,-1,45
 585 501 585 501 537 455 c 0,46,47
 518 436 518 436 518 424 c 0,48,49
 518 407 518 407 555 403 c 0,50,51
 652 398 652 398 726.5 369 c 128,-1,52
 801 340 801 340 852 290 c 128,-1,53
 903 240 903 240 929.5 171.5 c 128,-1,54
 956 103 956 103 956 18 c 0,55,56
 956 -87 956 -87 917.5 -178.5 c 128,-1,57
 879 -270 879 -270 811.5 -337.5 c 128,-1,58
 744 -405 744 -405 653 -444 c 128,-1,59
 562 -483 562 -483 457 -483 c 0,60,61
 364 -483 364 -483 283 -454.5 c 128,-1,62
 202 -426 202 -426 142.5 -376.5 c 128,-1,63
 83 -327 83 -327 48.5 -260.5 c 128,-1,64
 14 -194 14 -194 14 -117 c 0,65,66
 14 -81 14 -81 22 -44.5 c 128,-1,67
 30 -8 30 -8 43 21 c 128,-1,68
 56 50 56 50 72 68 c 128,-1,69
 88 86 88 86 104 86 c 0,70,71
 129 86 129 86 152.5 80.5 c 128,-1,72
 176 75 176 75 194.5 65.5 c 128,-1,73
 213 56 213 56 224.5 44 c 128,-1,74
 236 32 236 32 236 20 c 0,75,76
 236 10 236 10 232.5 -0.5 c 128,-1,77
 229 -11 229 -11 225.5 -23.5 c 128,-1,78
 222 -36 222 -36 218.5 -50 c 128,-1,79
 215 -64 215 -64 215 -80 c 0,80,81
 215 -125 215 -125 235.5 -165.5 c 128,-1,82
 256 -206 256 -206 291 -236 c 128,-1,83
 326 -266 326 -266 373 -283.5 c 128,-1,84
 420 -301 420 -301 473 -301 c 0,85,86
 537 -301 537 -301 589.5 -279.5 c 128,-1,87
 642 -258 642 -258 679.5 -218.5 c 128,-1,88
 717 -179 717 -179 737.5 -124.5 c 128,-1,89
 758 -70 758 -70 758 -4 c 0,90,91
 758 50 758 50 738.5 96 c 128,-1,92
 719 142 719 142 685 175.5 c 128,-1,93
 651 209 651 209 604 228.5 c 128,-1,94
 557 248 557 248 502 248 c 0,0,1
EndSplineSet
Validated: 1
EndChar

StartChar: braceleft
Encoding: 91 123 94
Width: 735
GlyphClass: 2
Flags: W
LayerCount: 2
Fore
SplineSet
631 -63 m 0,0,1
 662 -35 662 -35 690 -35 c 0,2,3
 704 -35 704 -35 718 -41.5 c 128,-1,4
 732 -48 732 -48 748 -63 c 0,5,6
 776 -93 776 -93 776 -123 c 0,7,8
 776 -152 776 -152 750 -178 c 0,9,10
 687 -238 687 -238 615 -265.5 c 128,-1,11
 543 -293 543 -293 463 -293 c 0,12,13
 398 -293 398 -293 351.5 -271.5 c 128,-1,14
 305 -250 305 -250 275.5 -214.5 c 128,-1,15
 246 -179 246 -179 232.5 -133 c 128,-1,16
 219 -87 219 -87 219 -37 c 0,17,18
 219 5 219 5 228.5 44.5 c 128,-1,19
 238 84 238 84 250 123 c 128,-1,20
 262 162 262 162 271.5 201 c 128,-1,21
 281 240 281 240 281 281 c 0,22,23
 281 315 281 315 269 336.5 c 128,-1,24
 257 358 257 358 238.5 372 c 128,-1,25
 220 386 220 386 199 396 c 128,-1,26
 178 406 178 406 159.5 417 c 128,-1,27
 141 428 141 428 129 442.5 c 128,-1,28
 117 457 117 457 117 481 c 0,29,30
 117 518 117 518 136 543.5 c 128,-1,31
 155 569 155 569 186 580 c 0,32,33
 242 598 242 598 266.5 624 c 128,-1,34
 291 650 291 650 291 688 c 0,35,36
 291 721 291 721 279 760.5 c 128,-1,37
 267 800 267 800 252 841.5 c 128,-1,38
 237 883 237 883 225 924 c 128,-1,39
 213 965 213 965 213 1001 c 0,40,41
 213 1073 213 1073 244 1129.5 c 128,-1,42
 275 1186 275 1186 324.5 1225 c 128,-1,43
 374 1264 374 1264 436.5 1284.5 c 128,-1,44
 499 1305 499 1305 561 1305 c 0,45,46
 590 1305 590 1305 626 1299 c 128,-1,47
 662 1293 662 1293 693.5 1281 c 128,-1,48
 725 1269 725 1269 746.5 1250 c 128,-1,49
 768 1231 768 1231 768 1206 c 0,50,51
 768 1192 768 1192 758.5 1175 c 128,-1,52
 749 1158 749 1158 723 1130 c 0,53,54
 695 1100 695 1100 680.5 1089.5 c 128,-1,55
 666 1079 666 1079 653 1079 c 0,56,57
 641 1079 641 1079 627 1085.5 c 128,-1,58
 613 1092 613 1092 596.5 1100.5 c 128,-1,59
 580 1109 580 1109 561 1115.5 c 128,-1,60
 542 1122 542 1122 520 1122 c 0,61,62
 491 1122 491 1122 471.5 1112 c 128,-1,63
 452 1102 452 1102 440 1087 c 128,-1,64
 428 1072 428 1072 423 1054.5 c 128,-1,65
 418 1037 418 1037 418 1022 c 0,66,67
 418 996 418 996 429.5 957 c 128,-1,68
 441 918 441 918 455 875.5 c 128,-1,69
 469 833 469 833 480.5 792.5 c 128,-1,70
 492 752 492 752 492 723 c 0,71,72
 492 669 492 669 468.5 626 c 128,-1,73
 445 583 445 583 401 549 c 0,74,75
 379 530 379 530 379 516 c 0,76,77
 379 499 379 499 403 483 c 0,78,79
 450 451 450 451 466.5 412.5 c 128,-1,80
 483 374 483 374 483 322 c 0,81,82
 483 281 483 281 474 242 c 128,-1,83
 465 203 465 203 453.5 164.5 c 128,-1,84
 442 126 442 126 433 87 c 128,-1,85
 424 48 424 48 424 8 c 0,86,87
 424 -26 424 -26 431.5 -48.5 c 128,-1,88
 439 -71 439 -71 452 -84.5 c 128,-1,89
 465 -98 465 -98 483.5 -103.5 c 128,-1,90
 502 -109 502 -109 524 -109 c 0,91,92
 556 -109 556 -109 582.5 -96 c 128,-1,93
 609 -83 609 -83 631 -63 c 0,0,1
EndSplineSet
Validated: 1
EndChar

StartChar: bar
Encoding: 92 124 95
Width: 512
GlyphClass: 2
Flags: W
LayerCount: 2
Fore
SplineSet
154 1276 m 2,0,1
 154 1316 154 1316 192 1340 c 128,-1,2
 230 1364 230 1364 295 1364 c 0,3,4
 326 1364 326 1364 342 1343.5 c 128,-1,5
 358 1323 358 1323 358 1288 c 2,6,-1
 358 -410 l 2,7,8
 358 -450 358 -450 320 -474 c 128,-1,9
 282 -498 282 -498 217 -498 c 0,10,11
 186 -498 186 -498 170 -477.5 c 128,-1,12
 154 -457 154 -457 154 -422 c 2,13,-1
 154 1276 l 2,0,1
EndSplineSet
Validated: 1
EndChar

StartChar: braceright
Encoding: 93 125 96
Width: 735
GlyphClass: 2
Flags: W
LayerCount: 2
Fore
SplineSet
104 1075 m 0,0,1
 89 1061 89 1061 75 1054 c 128,-1,2
 61 1047 61 1047 45 1047 c 0,3,4
 16 1047 16 1047 -12 1075 c 0,5,6
 -41 1104 -41 1104 -41 1135 c 0,7,8
 -41 1163 -41 1163 -14 1190 c 0,9,10
 49 1250 49 1250 120.5 1277.5 c 128,-1,11
 192 1305 192 1305 272 1305 c 0,12,13
 337 1305 337 1305 383.5 1283.5 c 128,-1,14
 430 1262 430 1262 459.5 1226.5 c 128,-1,15
 489 1191 489 1191 502.5 1145 c 128,-1,16
 516 1099 516 1099 516 1049 c 0,17,18
 516 1007 516 1007 506.5 967.5 c 128,-1,19
 497 928 497 928 485.5 889 c 128,-1,20
 474 850 474 850 464.5 811 c 128,-1,21
 455 772 455 772 455 731 c 0,22,23
 455 697 455 697 467 675.5 c 128,-1,24
 479 654 479 654 497 640 c 128,-1,25
 515 626 515 626 536.5 615.5 c 128,-1,26
 558 605 558 605 576 594 c 128,-1,27
 594 583 594 583 606 568.5 c 128,-1,28
 618 554 618 554 618 530 c 0,29,30
 618 493 618 493 599 468 c 128,-1,31
 580 443 580 443 549 432 c 0,32,33
 493 414 493 414 468.5 388 c 128,-1,34
 444 362 444 362 444 324 c 0,35,36
 444 291 444 291 456 251.5 c 128,-1,37
 468 212 468 212 483 170 c 128,-1,38
 498 128 498 128 510 87 c 128,-1,39
 522 46 522 46 522 10 c 0,40,41
 522 -61 522 -61 491 -117.5 c 128,-1,42
 460 -174 460 -174 410.5 -213 c 128,-1,43
 361 -252 361 -252 298.5 -272.5 c 128,-1,44
 236 -293 236 -293 174 -293 c 0,45,46
 145 -293 145 -293 109 -287 c 128,-1,47
 73 -281 73 -281 41.5 -269 c 128,-1,48
 10 -257 10 -257 -11.5 -238.5 c 128,-1,49
 -33 -220 -33 -220 -33 -195 c 0,50,51
 -33 -181 -33 -181 -23.5 -164 c 128,-1,52
 -14 -147 -14 -147 12 -119 c 0,53,54
 40 -88 40 -88 55 -78 c 128,-1,55
 70 -68 70 -68 82 -68 c 256,56,57
 94 -68 94 -68 108.5 -74.5 c 128,-1,58
 123 -81 123 -81 139.5 -89.5 c 128,-1,59
 156 -98 156 -98 175 -104.5 c 128,-1,60
 194 -111 194 -111 215 -111 c 0,61,62
 244 -111 244 -111 263.5 -100.5 c 128,-1,63
 283 -90 283 -90 295 -75 c 128,-1,64
 307 -60 307 -60 312 -42.5 c 128,-1,65
 317 -25 317 -25 317 -10 c 0,66,67
 317 16 317 16 305.5 55 c 128,-1,68
 294 94 294 94 280.5 136 c 128,-1,69
 267 178 267 178 255.5 219 c 128,-1,70
 244 260 244 260 244 289 c 0,71,72
 244 343 244 343 267 386 c 128,-1,73
 290 429 290 429 334 463 c 0,74,75
 356 482 356 482 356 496 c 0,76,77
 356 513 356 513 332 528 c 0,78,79
 285 560 285 560 268.5 599 c 128,-1,80
 252 638 252 638 252 690 c 0,81,82
 252 731 252 731 261 770 c 128,-1,83
 270 809 270 809 281.5 847.5 c 128,-1,84
 293 886 293 886 302 925 c 128,-1,85
 311 964 311 964 311 1004 c 0,86,87
 311 1038 311 1038 303.5 1060 c 128,-1,88
 296 1082 296 1082 283 1095.5 c 128,-1,89
 270 1109 270 1109 251.5 1114.5 c 128,-1,90
 233 1120 233 1120 211 1120 c 0,91,92
 179 1120 179 1120 152.5 1107.5 c 128,-1,93
 126 1095 126 1095 104 1075 c 0,0,1
EndSplineSet
Validated: 1
EndChar

StartChar: asciitilde
Encoding: 94 126 97
Width: 971
GlyphClass: 2
Flags: W
LayerCount: 2
Fore
SplineSet
776 606 m 0,0,1
 787 615 787 615 803.5 621 c 128,-1,2
 820 627 820 627 831 627 c 0,3,4
 846 627 846 627 861 615 c 128,-1,5
 876 603 876 603 889 586 c 128,-1,6
 902 569 902 569 910 550 c 128,-1,7
 918 531 918 531 918 516 c 0,8,9
 918 486 918 486 893.5 461 c 128,-1,10
 869 436 869 436 832 417.5 c 128,-1,11
 795 399 795 399 751 389 c 128,-1,12
 707 379 707 379 668 379 c 0,13,14
 621 379 621 379 568 394.5 c 128,-1,15
 515 410 515 410 463.5 429 c 128,-1,16
 412 448 412 448 367 463.5 c 128,-1,17
 322 479 322 479 291 479 c 0,18,19
 267 479 267 479 246 470 c 128,-1,20
 225 461 225 461 207 450.5 c 128,-1,21
 189 440 189 440 174 431 c 128,-1,22
 159 422 159 422 147 422 c 256,23,24
 135 422 135 422 119 437 c 128,-1,25
 103 452 103 452 88 472 c 128,-1,26
 73 492 73 492 63 512.5 c 128,-1,27
 53 533 53 533 53 545 c 0,28,29
 53 569 53 569 74.5 590 c 128,-1,30
 96 611 96 611 128.5 626.5 c 128,-1,31
 161 642 161 642 200.5 650.5 c 128,-1,32
 240 659 240 659 276 659 c 0,33,34
 326 659 326 659 377 643 c 128,-1,35
 428 627 428 627 475.5 608 c 128,-1,36
 523 589 523 589 565.5 573 c 128,-1,37
 608 557 608 557 641 557 c 0,38,39
 681 557 681 557 714 571 c 128,-1,40
 747 585 747 585 776 606 c 0,0,1
EndSplineSet
Validated: 1
EndChar

StartChar: exclamdown
Encoding: 96 161 99
Width: 520
GlyphClass: 2
Flags: W
LayerCount: 2
Fore
SplineSet
475 -483 m 0,0,1
 478 -497 478 -497 480.5 -508 c 128,-1,2
 483 -519 483 -519 483 -530 c 0,3,4
 483 -558 483 -558 466 -577 c 128,-1,5
 449 -596 449 -596 414 -596 c 0,6,7
 259 -596 259 -596 244 -522 c 0,8,9
 209 -335 209 -335 184.5 -141 c 128,-1,10
 160 53 160 53 160 262 c 0,11,12
 160 282 160 282 162 301 c 128,-1,13
 164 320 164 320 170 334.5 c 128,-1,14
 176 349 176 349 186.5 358 c 128,-1,15
 197 367 197 367 215 367 c 2,16,-1
 299 354 l 2,17,18
 325 351 325 351 335.5 338.5 c 128,-1,19
 346 326 346 326 348 303 c 0,20,21
 356 120 356 120 387.5 -79.5 c 128,-1,22
 419 -279 419 -279 475 -483 c 0,0,1
268 748 m 0,23,24
 297 748 297 748 322.5 739 c 128,-1,25
 348 730 348 730 367 714.5 c 128,-1,26
 386 699 386 699 397 678 c 128,-1,27
 408 657 408 657 408 633 c 0,28,29
 408 591 408 591 374 565 c 128,-1,30
 340 539 340 539 285 539 c 0,31,32
 259 539 259 539 235 548.5 c 128,-1,33
 211 558 211 558 192.5 574 c 128,-1,34
 174 590 174 590 163 611 c 128,-1,35
 152 632 152 632 152 655 c 0,36,37
 152 699 152 699 183 723.5 c 128,-1,38
 214 748 214 748 268 748 c 0,23,24
EndSplineSet
Validated: 1
EndChar

StartChar: cent
Encoding: 97 162 100
Width: 696
GlyphClass: 2
Flags: W
LayerCount: 2
Fore
SplineSet
395 1069 m 2,0,1
 398 1130 398 1130 459 1139 c 1,2,-1
 510 1143 l 2,3,4
 536 1143 536 1143 549.5 1128.5 c 128,-1,5
 563 1114 563 1114 563 1090 c 2,6,-1
 548 806 l 1,7,8
 582 795 582 795 611 777.5 c 128,-1,9
 640 760 640 760 661.5 739 c 128,-1,10
 683 718 683 718 695 694 c 128,-1,11
 707 670 707 670 707 645 c 0,12,13
 707 623 707 623 698 602.5 c 128,-1,14
 689 582 689 582 674 566.5 c 128,-1,15
 659 551 659 551 640 541.5 c 128,-1,16
 621 532 621 532 600 532 c 0,17,18
 582 532 582 532 567 543 c 128,-1,19
 552 554 552 554 536 570 c 1,20,-1
 514 138 l 1,21,22
 545 147 545 147 569 162 c 128,-1,23
 593 177 593 177 613 191.5 c 128,-1,24
 633 206 633 206 650.5 216.5 c 128,-1,25
 668 227 668 227 686 227 c 0,26,27
 698 227 698 227 710 219.5 c 128,-1,28
 722 212 722 212 731.5 200.5 c 128,-1,29
 741 189 741 189 747.5 175 c 128,-1,30
 754 161 754 161 754 147 c 0,31,32
 754 121 754 121 733 93.5 c 128,-1,33
 712 66 712 66 677.5 41 c 128,-1,34
 643 16 643 16 598 -4 c 128,-1,35
 553 -24 553 -24 505 -36 c 1,36,-1
 492 -285 l 2,37,38
 488 -345 488 -345 428 -354 c 1,39,-1
 375 -358 l 2,40,41
 349 -358 349 -358 336.5 -341 c 128,-1,42
 324 -324 324 -324 324 -293 c 2,43,-1
 337 -43 l 1,44,45
 271 -31 271 -31 217 3.5 c 128,-1,46
 163 38 163 38 124.5 91 c 128,-1,47
 86 144 86 144 64.5 213.5 c 128,-1,48
 43 283 43 283 43 365 c 0,49,50
 43 456 43 456 68 535 c 128,-1,51
 93 614 93 614 138 674 c 128,-1,52
 183 734 183 734 245 772 c 128,-1,53
 307 810 307 810 382 821 c 1,54,-1
 395 1069 l 2,0,1
252 418 m 0,55,56
 252 229 252 229 347 162 c 1,57,-1
 372 640 l 1,58,59
 343 633 343 633 321 613.5 c 128,-1,60
 299 594 299 594 283.5 565 c 128,-1,61
 268 536 268 536 260 498.5 c 128,-1,62
 252 461 252 461 252 418 c 0,55,56
EndSplineSet
Validated: 1
EndChar

StartChar: sterling
Encoding: 98 163 101
Width: 909
GlyphClass: 2
Flags: W
LayerCount: 2
Fore
SplineSet
242 -51 m 1,0,1
 166 -51 166 -51 166 12 c 0,2,3
 166 15 166 15 167 27 c 128,-1,4
 168 39 168 39 171.5 55 c 128,-1,5
 175 71 175 71 183 87 c 128,-1,6
 191 103 191 103 205 115 c 0,7,8
 219 126 219 126 231 134.5 c 128,-1,9
 243 143 243 143 251.5 152.5 c 128,-1,10
 260 162 260 162 265 173.5 c 128,-1,11
 270 185 270 185 270 203 c 2,12,-1
 270 291 l 2,13,14
 270 328 270 328 270 363 c 128,-1,15
 270 398 270 398 272 432 c 0,16,17
 272 463 272 463 240 463 c 2,18,-1
 66 449 l 2,19,20
 43 451 43 451 28.5 479 c 128,-1,21
 14 507 14 507 14 541 c 0,22,23
 14 557 14 557 17 572.5 c 128,-1,24
 20 588 20 588 25.5 600 c 128,-1,25
 31 612 31 612 40 619.5 c 128,-1,26
 49 627 49 627 61 627 c 0,27,28
 99 627 99 627 146.5 629.5 c 128,-1,29
 194 632 194 632 250 635 c 0,30,31
 278 638 278 638 281 668 c 0,32,33
 291 795 291 795 311 884 c 128,-1,34
 331 973 331 973 358 1033 c 128,-1,35
 385 1093 385 1093 417 1129.5 c 128,-1,36
 449 1166 449 1166 483 1188 c 0,37,38
 509 1205 509 1205 532 1215 c 128,-1,39
 555 1225 555 1225 573 1225 c 0,40,41
 595 1225 595 1225 620 1212.5 c 128,-1,42
 645 1200 645 1200 666 1180.5 c 128,-1,43
 687 1161 687 1161 701 1136.5 c 128,-1,44
 715 1112 715 1112 715 1087 c 0,45,46
 715 1071 715 1071 700 1063 c 0,47,48
 652 1040 652 1040 615.5 1010.5 c 128,-1,49
 579 981 579 981 552.5 938.5 c 128,-1,50
 526 896 526 896 509 835.5 c 128,-1,51
 492 775 492 775 483 690 c 0,52,53
 483 676 483 676 488.5 667.5 c 128,-1,54
 494 659 494 659 510 659 c 0,55,56
 529 659 529 659 565.5 665 c 128,-1,57
 602 671 602 671 643.5 677.5 c 128,-1,58
 685 684 685 684 724.5 690 c 128,-1,59
 764 696 764 696 788 696 c 0,60,61
 807 696 807 696 815 674 c 128,-1,62
 823 652 823 652 823 623 c 0,63,64
 823 605 823 605 820 586.5 c 128,-1,65
 817 568 817 568 811 552 c 128,-1,66
 805 536 805 536 795 525.5 c 128,-1,67
 785 515 785 515 770 514 c 2,68,-1
 504 485 l 2,69,70
 482 482 482 482 477.5 468.5 c 128,-1,71
 473 455 473 455 473 430 c 0,72,73
 473 364 473 364 473 305.5 c 128,-1,74
 473 247 473 247 475 193 c 0,75,76
 478 143 478 143 526 143 c 2,77,-1
 856 164 l 2,78,79
 894 164 894 164 913 146.5 c 128,-1,80
 932 129 932 129 932 86 c 0,81,82
 932 33 932 33 911 8.5 c 128,-1,83
 890 -16 890 -16 848 -18 c 2,84,-1
 242 -51 l 1,0,1
EndSplineSet
Validated: 1
EndChar

StartChar: currency
Encoding: 99 164 102
Width: 922
GlyphClass: 2
Flags: W
LayerCount: 2
Fore
SplineSet
61 399 m 0,0,1
 61 488 61 488 104 563 c 0,2,3
 115 582 115 582 115 596 c 0,4,5
 115 617 115 617 96 635 c 2,6,-1
 18 715 l 2,7,8
 4 727 4 727 -2 740.5 c 128,-1,9
 -8 754 -8 754 -8 768 c 0,10,11
 -8 783 -8 783 0 798 c 128,-1,12
 8 813 8 813 27 825 c 1,13,-1
 41 838 l 2,14,15
 69 860 69 860 96 860 c 0,16,17
 129 860 129 860 158 831 c 2,18,-1
 240 748 l 2,19,20
 260 727 260 727 283 727 c 0,21,22
 294 727 294 727 309 733 c 0,23,24
 375 756 375 756 449 756 c 0,25,26
 498 756 498 756 547 745 c 0,27,28
 552 743 552 743 557 743 c 128,-1,29
 562 743 562 743 567 743 c 0,30,31
 593 743 593 743 616 766 c 2,32,-1
 696 850 l 2,33,34
 710 864 710 864 724 871.5 c 128,-1,35
 738 879 738 879 752 879 c 0,36,37
 782 879 782 879 809 846 c 2,38,-1
 821 831 l 2,39,40
 846 805 846 805 846 774 c 0,41,42
 846 759 846 759 839.5 744 c 128,-1,43
 833 729 833 729 819 715 c 2,44,-1
 791 684 l 2,45,46
 783 675 783 675 778.5 667 c 128,-1,47
 774 659 774 659 774 649 c 0,48,49
 774 633 774 633 791 610 c 0,50,51
 860 529 860 529 860 424 c 0,52,53
 860 377 860 377 843 333 c 128,-1,54
 826 289 826 289 795 252 c 0,55,56
 778 230 778 230 778 213 c 0,57,58
 778 197 778 197 795 178 c 2,59,-1
 836 135 l 2,60,61
 860 108 860 108 860 82 c 0,62,63
 860 46 860 46 815 20 c 2,64,-1
 797 10 l 2,65,66
 773 -4 773 -4 750 -4 c 0,67,68
 712 -4 712 -4 682 33 c 0,69,70
 670 47 670 47 656 62 c 128,-1,71
 642 77 642 77 627 92 c 0,72,73
 604 113 604 113 584 113 c 0,74,75
 577 113 577 113 571 112 c 128,-1,76
 565 111 565 111 559 109 c 0,77,78
 489 92 489 92 418 92 c 0,79,80
 354 92 354 92 299 104 c 0,81,82
 293 106 293 106 287 107.5 c 128,-1,83
 281 109 281 109 274 109 c 0,84,85
 253 109 253 109 231 88 c 2,86,-1
 154 8 l 2,87,88
 127 -18 127 -18 98 -18 c 0,89,90
 81 -18 81 -18 65 -7.5 c 128,-1,91
 49 3 49 3 37 25 c 2,92,-1
 27 43 l 2,93,94
 10 71 10 71 10 94 c 0,95,96
 10 128 10 128 43 158 c 2,97,-1
 80 195 l 2,98,99
 98 216 98 216 98 233 c 0,100,101
 98 241 98 241 95.5 247.5 c 128,-1,102
 93 254 93 254 90 262 c 0,103,104
 76 291 76 291 68.5 326 c 128,-1,105
 61 361 61 361 61 399 c 0,0,1
682 399 m 0,106,107
 682 438 682 438 661 472 c 128,-1,108
 640 506 640 506 604 531.5 c 128,-1,109
 568 557 568 557 520 571.5 c 128,-1,110
 472 586 472 586 418 586 c 0,111,112
 381 586 381 586 349 574.5 c 128,-1,113
 317 563 317 563 294 542.5 c 128,-1,114
 271 522 271 522 257.5 494.5 c 128,-1,115
 244 467 244 467 244 436 c 0,116,117
 244 351 244 351 294.5 305.5 c 128,-1,118
 345 260 345 260 436 260 c 0,119,120
 487 260 487 260 531.5 271 c 128,-1,121
 576 282 576 282 609.5 300.5 c 128,-1,122
 643 319 643 319 662.5 344.5 c 128,-1,123
 682 370 682 370 682 399 c 0,106,107
EndSplineSet
Validated: 1
EndChar

